<svg width="28" height="28" viewBox="0 0 28 28" fill="none" xmlns="http://www.w3.org/2000/svg">
<g clip-path="url(#clip0_210_231)">
<path d="M27.83 3.94C27.5708 2.92358 27.0115 2.00882 26.2249 1.31494C25.4382 0.621062 24.4609 0.180239 23.42 0.0499878C23.3756 0.0404027 23.3344 0.0197681 23.3 -0.0100098H4.69995C4.44995 0.0499902 4.19995 0.0900037 3.94995 0.160004C2.93159 0.415362 2.0147 0.973575 1.32019 1.76093C0.62568 2.54827 0.186317 3.52774 0.0600586 4.57001C0.0504735 4.61442 0.0297778 4.65569 0 4.69V23.29C0.06 23.54 0.100044 23.79 0.170044 24.04C0.429183 25.0564 0.988512 25.9712 1.77515 26.6651C2.56178 27.359 3.53914 27.7997 4.57996 27.93C4.62437 27.9396 4.66564 27.9602 4.69995 27.99H23.3C23.66 27.9 24.04 27.84 24.39 27.72C25.3036 27.4283 26.1184 26.8887 26.7434 26.1613C27.3684 25.4338 27.7792 24.5471 27.9301 23.6C27.9301 23.5 27.93 23.4 28 23.3V4.70001C27.94 4.45001 27.9 4.19 27.83 3.94Z" fill="white"/>
<path d="M16.2798 7.23157C16.2105 7.15973 16.1276 7.10226 16.036 7.06246C15.9444 7.02265 15.8459 7.00129 15.746 6.99959C15.6462 6.99788 15.547 7.01588 15.4541 7.05254C15.3612 7.0892 15.2764 7.1438 15.2046 7.21324L14.8419 7.56405L14.8612 3.76409C14.8622 3.56245 14.783 3.3687 14.6411 3.22543C14.4992 3.08215 14.3063 3.00108 14.1046 3.00003L14.1007 3.00003C14.0912 3.00003 14.0818 3.00003 14.0724 3.00003C14.063 3.00003 14.0541 3.00003 14.0447 3.00003L14.0407 3.00003C13.8391 3.00108 13.6461 3.08215 13.5042 3.22543C13.3623 3.3687 13.2832 3.56245 13.2841 3.76409L13.3024 7.56405L12.9397 7.21324C12.868 7.14344 12.7832 7.08848 12.6902 7.05152C12.5972 7.01456 12.4978 6.99632 12.3977 6.99784C12.2976 6.99936 12.1988 7.02062 12.107 7.0604C12.0151 7.10018 11.9321 7.15769 11.8625 7.22964C11.7929 7.30159 11.7382 7.38657 11.7016 7.47969C11.6649 7.57282 11.647 7.67227 11.6488 7.77233C11.6507 7.8724 11.6722 7.97112 11.7123 8.06284C11.7524 8.15455 11.8101 8.23746 11.8823 8.3068L13.5145 9.88446C13.5852 9.96063 13.671 10.0214 13.7663 10.0629C13.8616 10.1044 13.9645 10.1258 14.0684 10.1258L14.0709 10.1258C14.1755 10.1259 14.279 10.1043 14.3749 10.0624C14.4707 10.0205 14.5569 9.95928 14.6279 9.88248L16.26 8.30482C16.4046 8.16492 16.4879 7.97343 16.4916 7.77229C16.4953 7.57114 16.4192 7.37672 16.2798 7.23157Z" fill="#757575"/>
<path d="M8.61638 7.81596C8.52038 7.78843 8.4199 7.78009 8.32067 7.79141C8.22144 7.80274 8.12542 7.83351 8.03809 7.88196C7.95076 7.93041 7.87384 7.9956 7.81172 8.0738C7.74959 8.152 7.70349 8.24167 7.67604 8.3377L7.53734 8.82286L5.65409 5.52233C5.55407 5.34725 5.38862 5.21905 5.19411 5.16591C4.9996 5.11277 4.79195 5.13904 4.61681 5.23895L4.61338 5.24093C4.60522 5.24564 4.59707 5.25035 4.58892 5.25505C4.58076 5.25976 4.57304 5.26422 4.56489 5.26893L4.56145 5.27091C4.38736 5.37264 4.26078 5.53933 4.20954 5.73435C4.15831 5.92937 4.18661 6.13675 4.28822 6.31091L6.20408 9.59261L5.71457 9.47015C5.61755 9.44557 5.51663 9.44038 5.4176 9.45487C5.31857 9.46937 5.22338 9.50326 5.13747 9.55462C5.05157 9.60597 4.97664 9.67378 4.917 9.75415C4.85735 9.83452 4.81415 9.92587 4.78988 10.023C4.7656 10.1201 4.76073 10.221 4.77554 10.32C4.79035 10.419 4.82454 10.514 4.87617 10.5998C4.9278 10.6855 4.99585 10.7602 5.0764 10.8196C5.15696 10.879 5.24845 10.9219 5.34562 10.9459L7.54795 11.4961C7.64732 11.5267 7.75193 11.5364 7.85524 11.5247C7.95855 11.513 8.05834 11.4801 8.14835 11.4281L8.1505 11.4269C8.24113 11.3746 8.31996 11.3042 8.38203 11.22C8.44411 11.1359 8.48808 11.0397 8.51117 10.9377L9.13584 8.75533C9.19109 8.56188 9.16745 8.35443 9.0701 8.17837C8.97274 8.00232 8.8096 7.872 8.61638 7.81596Z" fill="#757575"/>
<path d="M22.858 10.377C22.8598 10.2771 22.8418 10.1779 22.8052 10.085C22.7686 9.99208 22.714 9.9073 22.6446 9.83548C22.5752 9.76367 22.4923 9.70624 22.4007 9.66647C22.3091 9.6267 22.2106 9.60538 22.1107 9.60372L21.6062 9.59531L24.3068 6.922C24.4501 6.78007 24.5311 6.58708 24.532 6.38545C24.533 6.18381 24.4539 5.99003 24.3121 5.84671L24.3093 5.84391C24.3026 5.83726 24.296 5.8306 24.2893 5.82394C24.2826 5.81728 24.2763 5.81098 24.2697 5.80432L24.2669 5.80152C24.1236 5.65968 23.9298 5.58056 23.7282 5.58155C23.5265 5.58253 23.3335 5.66354 23.1916 5.80677L20.5176 8.50672L20.5092 8.00218C20.5078 7.90211 20.4867 7.80329 20.4471 7.71138C20.4074 7.61948 20.3501 7.5363 20.2782 7.46662C20.2064 7.39693 20.1215 7.34211 20.0284 7.30529C19.9354 7.26848 19.8359 7.2504 19.7359 7.25208C19.6358 7.25376 19.537 7.27518 19.4453 7.3151C19.3535 7.35502 19.2705 7.41267 19.201 7.48473C19.1316 7.55679 19.077 7.64185 19.0405 7.73504C19.004 7.82822 18.9862 7.9277 18.9882 8.02776L19.0268 10.2975C19.0229 10.4014 19.0406 10.5049 19.0786 10.6017C19.1167 10.6984 19.1743 10.7863 19.2478 10.8598L19.2496 10.8615C19.3235 10.9356 19.4119 10.9935 19.5093 11.0317C19.6067 11.0698 19.7109 11.0874 19.8154 11.0833L22.0851 11.1219C22.2863 11.1252 22.4806 11.0486 22.6254 10.909C22.7703 10.7694 22.8539 10.5781 22.858 10.377Z" fill="#757575"/>
<circle cx="14.1817" cy="17.4427" r="6.07969" fill="#7721AD"/>
<path d="M14.1851 15.9393C14.9517 15.9282 15.7589 15.8739 16.5388 15.6277C16.7389 15.5651 16.9309 15.4794 17.1111 15.3723C17.459 15.1631 17.4546 14.8739 17.1129 14.6556C16.7652 14.4344 16.3724 14.3308 15.9741 14.2599C14.6738 14.0261 13.3731 14.0237 12.0806 14.3134C11.799 14.3764 11.5307 14.5007 11.2586 14.603C11.1979 14.6248 11.1438 14.6709 11.0921 14.7121C10.8474 14.9084 10.8448 15.1306 11.0921 15.3228C11.3785 15.5444 11.7201 15.641 12.0647 15.723C12.7467 15.8839 13.44 15.9341 14.1851 15.9393Z" fill="white"/>
<path d="M17.4102 15.9393C17.1921 16.2521 16.8918 16.3609 16.5891 16.4547C15.7784 16.706 14.942 16.7716 14.0986 16.7648C13.2813 16.7583 12.4709 16.6894 11.6892 16.429C11.4124 16.3369 11.142 16.2268 10.9505 15.9443C10.9505 16.3544 10.9333 16.7363 10.9614 17.1147C10.9695 17.2224 11.0923 17.3454 11.1924 17.4181C11.4835 17.6279 11.8275 17.7234 12.1738 17.7939C13.5738 18.0774 14.9732 18.0809 16.3647 17.7448C16.6246 17.682 16.8739 17.5635 17.1178 17.4486C17.3221 17.3524 17.4262 17.1869 17.4135 16.9415C17.3978 16.6207 17.4102 16.2988 17.4102 15.9393Z" fill="white"/>
<path d="M17.4102 17.6353C17.1921 17.9481 16.8918 18.0569 16.5891 18.1507C15.7784 18.4019 14.942 18.4676 14.0986 18.4608C13.2813 18.4543 12.4709 18.3854 11.6892 18.125C11.4124 18.0329 11.142 17.9228 10.9505 17.6403C10.9505 18.0504 10.9333 18.4323 10.9614 18.8107C10.9695 18.9184 11.0923 19.0414 11.1924 19.114C11.4835 19.3239 11.8275 19.4194 12.1738 19.4898C13.5738 19.7734 14.9732 19.7769 16.3647 19.4408C16.6246 19.378 16.8739 19.2595 17.1178 19.1446C17.3221 19.0484 17.4262 18.8829 17.4135 18.6375C17.3978 18.3167 17.4102 17.9947 17.4102 17.6353Z" fill="white"/>
<path d="M17.4138 19.7261C17.1084 20.1126 16.6812 20.2207 16.2607 20.3193C15.2384 20.5592 14.2014 20.5874 13.159 20.4901C12.6273 20.4406 12.1019 20.3577 11.5994 20.1688C11.3595 20.0785 11.1233 19.9747 10.9758 19.7446C10.783 20.3893 11.0024 20.9442 11.5846 21.2637C12.0356 21.5112 12.5296 21.6247 13.0343 21.6905C14.0757 21.8266 15.11 21.8028 16.1285 21.5232C16.4609 21.4321 16.7787 21.3034 17.0493 21.0816C17.2932 20.882 17.4286 20.6319 17.4151 20.3084C17.4083 20.1219 17.4138 19.9348 17.4138 19.7261Z" fill="white"/>
</g>
<defs>
<clipPath id="clip0_210_231">
<rect width="28" height="28" fill="white"/>
</clipPath>
</defs>
</svg>
