<svg width="28" height="28" viewBox="0 0 28 28" fill="none" xmlns="http://www.w3.org/2000/svg">
<g clip-path="url(#clip0_210_117)">
<path d="M27.832 3.93866C27.3373 1.89466 25.4893 0.270662 23.4173 0.0466616C23.38 0.0466616 23.3333 0.00932829 23.296 -0.00933838C17.0987 -5.04497e-06 10.9013 -5.04497e-06 4.704 -5.04497e-06C4.452 0.055995 4.2 0.102662 3.948 0.167995C1.89467 0.662662 0.270667 2.51066 0.056 4.58266C0.056 4.61999 0.0186667 4.66666 0 4.70399C0 10.9013 0 17.0987 0 23.296C0.056 23.548 0.102667 23.8 0.168 24.052C0.662667 26.096 2.51067 27.72 4.58267 27.944C4.62 27.944 4.66667 27.9813 4.704 28C10.9013 28 17.0987 28 23.296 28C23.66 27.9067 24.0427 27.8507 24.388 27.7293C26.3573 27.0387 27.5147 25.6387 27.9347 23.6133C27.9533 23.5107 27.972 23.408 28 23.3053C28 17.108 28 10.9107 28 4.71333C27.944 4.45199 27.8973 4.19066 27.832 3.93866Z" fill="white"/>
<path d="M14.9424 18.3773C14.9424 18.76 14.9518 19.1427 14.9331 19.5253C14.9051 20.3187 15.3998 20.6453 15.9598 20.776C16.1464 20.8227 16.3424 20.832 16.5384 20.8507C17.0518 20.8787 17.4344 21.2893 17.4251 21.7933C17.4158 22.2973 17.0144 22.708 16.5011 22.708C15.6051 22.708 14.8118 22.428 14.1024 21.8867C14.0651 21.8587 14.0371 21.84 13.9904 21.8027C13.5424 22.1667 13.0571 22.4467 12.4971 22.568C12.1704 22.6427 11.8438 22.6893 11.5078 22.6987C10.9944 22.7173 10.5744 22.2973 10.5651 21.7933C10.5558 21.28 10.9478 20.888 11.4704 20.8413C11.7878 20.8133 12.1238 20.748 12.4224 20.6267C12.8331 20.4587 13.0478 20.1133 13.0478 19.6653C13.0478 19.2267 13.0384 18.7787 13.0384 18.34C13.0384 18.1347 13.0478 17.9293 13.0478 17.724C13.0478 17.2947 13.0571 16.8653 13.0571 16.436C13.0571 14.3827 13.0571 12.3387 13.0571 10.2853C13.0571 10.0707 13.0571 9.84667 13.0571 9.632C13.0571 9.22133 13.0664 8.82 13.0571 8.40933C13.0478 7.84933 12.7958 7.476 12.2638 7.29867C12.0118 7.21467 11.7411 7.17733 11.4798 7.15867C10.9478 7.12133 10.5651 6.72 10.5744 6.20667C10.5838 5.70267 10.9944 5.292 11.5171 5.292C12.3944 5.292 13.1878 5.572 13.8784 6.104C13.9158 6.132 13.9531 6.16 13.9998 6.19733C14.4478 5.83333 14.9331 5.55333 15.4931 5.42267C15.8291 5.348 16.1744 5.30133 16.5198 5.292C17.0238 5.28267 17.4251 5.72133 17.4251 6.216C17.4251 6.71067 17.0424 7.12133 16.5384 7.14C16.2024 7.15867 15.8758 7.196 15.5678 7.35467C15.1664 7.56 14.9424 7.88667 14.9424 8.344C14.9424 8.78267 14.9518 9.22133 14.9518 9.65067C14.9518 9.856 14.9424 10.0613 14.9424 10.2667C14.9424 10.696 14.9331 11.1253 14.9331 11.5547C14.9331 13.608 14.9331 15.652 14.9331 17.7053C14.9424 17.9387 14.9424 18.1533 14.9424 18.3773Z" fill="#7721AD"/>
<path d="M22.904 16.3613C22.568 16.4547 22.568 16.8 22.568 16.9213V17.304C22.568 17.556 22.54 17.584 22.288 17.584H22.2226C22.036 17.584 21.8493 17.5933 21.6533 17.6213C21.448 17.6587 21.3173 17.836 21.3266 18.0693C21.336 18.2933 21.4666 18.4427 21.6813 18.48C21.8306 18.508 21.9706 18.5173 22.1106 18.5173C22.3253 18.5173 22.54 18.4893 22.7453 18.424C23.184 18.2933 23.3613 17.92 23.4546 17.6493L23.464 17.6307V16.6413L23.4173 16.5853C23.324 16.464 23.1746 16.2773 22.904 16.3613Z" fill="#757575"/>
<path d="M23.4639 10.3507C23.3053 9.884 23.0439 9.62266 22.6519 9.548C22.3533 9.492 22.0453 9.492 21.8119 9.50133C21.6533 9.50133 21.5319 9.55733 21.4386 9.65066C21.3546 9.73466 21.3173 9.856 21.3266 9.98666C21.3453 10.2387 21.5506 10.416 21.8493 10.4253C21.9426 10.4253 22.0359 10.4253 22.1386 10.4253C22.2133 10.4253 22.2879 10.4253 22.3626 10.4253C22.5213 10.4253 22.5679 10.472 22.5679 10.6307C22.5679 10.724 22.5679 10.808 22.5679 10.9013C22.5679 11.004 22.5679 11.1067 22.5679 11.2093C22.5773 11.4333 22.7173 11.6013 22.9226 11.6293C22.9413 11.6293 22.9506 11.6293 22.9693 11.6293C23.0719 11.6293 23.1653 11.5827 23.2493 11.5453C23.2679 11.536 23.2866 11.5267 23.3053 11.5173C23.3706 11.4893 23.3986 11.4333 23.4266 11.4053C23.4359 11.396 23.4359 11.3867 23.4453 11.3867L23.4733 11.3493V10.3693L23.4639 10.3507Z" fill="#757575"/>
<path d="M23.3985 12.1987C23.2865 12.0213 23.0999 11.956 22.8759 12.0213C22.7359 12.068 22.5679 12.18 22.5679 12.4973C22.5772 12.7773 22.5679 13.0573 22.5679 13.3467C22.5679 13.5613 22.6612 13.7107 22.8479 13.7853C22.8945 13.804 22.9599 13.8227 23.0252 13.8227C23.1559 13.8227 23.3052 13.7667 23.4452 13.5707L23.4732 13.5333V12.2547L23.4172 12.2173C23.4079 12.208 23.4079 12.1987 23.3985 12.1987Z" fill="#757575"/>
<path d="M23.4076 14.392C23.2863 14.2053 23.0903 14.14 22.8756 14.2053C22.7636 14.2427 22.5676 14.3453 22.577 14.672C22.577 14.8213 22.577 14.98 22.577 15.1293C22.577 15.2693 22.577 15.4093 22.577 15.5493C22.577 15.708 22.6423 15.8387 22.745 15.9227C22.8103 15.9787 22.8943 16.0067 22.9876 16.0067C23.025 16.0067 23.0623 15.9973 23.0996 15.988C23.2023 15.96 23.2863 15.8853 23.3516 15.82C23.3796 15.8013 23.3983 15.7733 23.4263 15.7547L23.473 15.708V14.4573L23.4356 14.42C23.4263 14.4107 23.417 14.4013 23.4076 14.392Z" fill="#757575"/>
<path d="M6.16898 17.584C6.05698 17.584 5.94498 17.584 5.84231 17.584C5.77698 17.584 5.72098 17.584 5.65564 17.584C5.46898 17.584 5.43164 17.5467 5.42231 17.36C5.42231 17.2853 5.42231 17.2013 5.42231 17.1267C5.42231 17.0147 5.42231 16.9027 5.42231 16.7907C5.41298 16.5573 5.21698 16.352 4.99298 16.3427C4.98364 16.3427 4.98364 16.3427 4.98364 16.3427C4.75964 16.3427 4.54498 16.548 4.53564 16.7907C4.53564 16.8747 4.53564 16.9587 4.53564 17.0333C4.53564 17.0707 4.53564 17.108 4.53564 17.1453V17.2013C4.53564 17.276 4.53564 17.3413 4.53564 17.416C4.53564 17.9387 4.85298 18.34 5.32898 18.4427C5.53431 18.4893 5.74898 18.4987 5.95431 18.4987C6.04764 18.4987 6.13164 18.4987 6.22498 18.4893C6.36498 18.48 6.47698 18.4333 6.56098 18.3493C6.63564 18.2653 6.68231 18.144 6.67298 18.0227C6.65431 17.7707 6.44898 17.5933 6.16898 17.584Z" fill="#757575"/>
<path d="M4.52648 10.948C4.52648 11.032 4.52648 11.116 4.52648 11.1907C4.53582 11.452 4.74115 11.6573 4.98382 11.6573C5.20782 11.6573 5.41315 11.4427 5.42248 11.1907C5.42248 11.0787 5.42248 10.976 5.42248 10.864C5.42248 10.8173 5.42248 10.7613 5.42248 10.7147C5.42248 10.444 5.44115 10.4253 5.71181 10.4253H5.78648C5.96381 10.4253 6.15048 10.4253 6.32782 10.388C6.54248 10.3507 6.68248 10.164 6.66382 9.93067C6.64515 9.69734 6.50515 9.53867 6.29048 9.52934C6.02915 9.52001 5.75848 9.52001 5.49715 9.52934C5.17982 9.54801 4.90915 9.69734 4.71315 9.98667C4.51715 10.2667 4.51715 10.584 4.52648 10.8547C4.52648 10.8827 4.52648 10.9107 4.52648 10.948Z" fill="#757575"/>
<path d="M11.9182 9.492C11.5916 9.492 11.3862 9.66934 11.3862 9.95867C11.3862 10.2387 11.5916 10.416 11.9182 10.4253C12.1796 10.4253 12.4502 10.4253 12.7116 10.4253H13.1969V9.492H12.7116C12.4502 9.492 12.1796 9.492 11.9182 9.492Z" fill="#757575"/>
<path d="M16.0902 17.584C15.8289 17.584 15.5675 17.584 15.3062 17.584H14.8115V18.5173H15.2969C15.5675 18.5173 15.8289 18.5173 16.0995 18.5173C16.4262 18.5173 16.6315 18.34 16.6315 18.0507C16.6222 17.7613 16.4169 17.584 16.0902 17.584Z" fill="#757575"/>
<path d="M8.4185 9.50134C8.1105 9.48267 7.79317 9.48267 7.45717 9.50134C7.3265 9.51067 7.20517 9.56667 7.12117 9.66933C7.0465 9.76267 7.00917 9.884 7.0185 9.996C7.0465 10.2387 7.2425 10.4067 7.51317 10.416C7.56917 10.416 7.62517 10.416 7.68117 10.416C7.72783 10.416 7.76517 10.416 7.81183 10.416C7.89583 10.416 7.97983 10.416 8.06383 10.416C8.1665 10.416 8.25983 10.416 8.35317 10.416C8.63317 10.4067 8.8385 10.2293 8.85717 9.98667C8.87583 9.72533 8.68917 9.52934 8.4185 9.50134Z" fill="#757575"/>
<path d="M10.5746 9.50134C10.2292 9.48267 9.92124 9.49201 9.6319 9.51067C9.3519 9.52934 9.17457 9.72534 9.19324 9.99601C9.2119 10.2387 9.4079 10.416 9.67857 10.4253C9.73457 10.4253 9.79057 10.4253 9.84657 10.4253C9.89324 10.4253 9.93057 10.4253 9.97724 10.4253C10.0239 10.4253 10.0612 10.4253 10.1079 10.4253H10.2292C10.3319 10.4253 10.4252 10.4253 10.5279 10.4253C10.8172 10.416 11.0319 10.22 11.0412 9.96801C11.0506 9.72534 10.8359 9.51067 10.5746 9.50134Z" fill="#757575"/>
<path d="M20.5518 9.50134C20.2158 9.48267 19.8891 9.48267 19.5904 9.50134C19.3104 9.52 19.1331 9.716 19.1424 9.97734C19.1611 10.2293 19.3664 10.4067 19.6371 10.416C19.7398 10.416 19.8331 10.416 19.9358 10.416C20.0198 10.416 20.1038 10.416 20.1878 10.416C20.2344 10.416 20.2718 10.416 20.3184 10.416C20.3744 10.416 20.4304 10.416 20.4864 10.416C20.7664 10.4067 20.9718 10.22 20.9811 9.97734C20.9998 9.76267 20.8318 9.52 20.5518 9.50134Z" fill="#757575"/>
<path d="M8.37183 17.584C8.26917 17.584 8.17583 17.584 8.07317 17.584C8.0265 17.584 7.97983 17.584 7.9425 17.584C7.89583 17.584 7.8585 17.584 7.81183 17.584C7.70917 17.584 7.6065 17.584 7.50383 17.584C7.2425 17.5933 7.03717 17.7707 7.0185 18.004C7.00917 18.116 7.0465 18.2373 7.12117 18.3307C7.20517 18.424 7.31717 18.48 7.4385 18.4893C7.6065 18.4987 7.7745 18.508 7.93317 18.508C8.10117 18.508 8.26917 18.4987 8.43717 18.4893C8.70783 18.4707 8.87583 18.2747 8.85717 18.0133C8.8385 17.7707 8.63317 17.5933 8.37183 17.584Z" fill="#757575"/>
<path d="M20.4771 17.584C20.3837 17.584 20.2811 17.584 20.1877 17.584H20.0571H19.6744C19.6651 17.584 19.6651 17.584 19.6557 17.584C19.3757 17.5933 19.1704 17.7707 19.1517 18.0133C19.1331 18.2747 19.3104 18.4707 19.5904 18.4987C19.7491 18.508 19.9077 18.5173 20.0664 18.5173C20.2251 18.5173 20.3837 18.508 20.5517 18.4987C20.6824 18.4893 20.8037 18.4333 20.8877 18.3307C20.9624 18.2373 20.9997 18.116 20.9904 18.004C20.9624 17.7613 20.7571 17.584 20.4771 17.584Z" fill="#757575"/>
<path d="M18.3864 9.51067C18.0784 9.48267 17.7424 9.48267 17.3877 9.51067C17.2664 9.52 17.1451 9.576 17.0704 9.67867C16.9957 9.772 16.9584 9.89334 16.9677 9.996C16.9957 10.2293 17.2011 10.4067 17.4624 10.416C17.5184 10.416 17.5744 10.416 17.6304 10.416C17.6771 10.416 17.7144 10.416 17.7611 10.416C17.8077 10.416 17.8451 10.416 17.8917 10.416H18.3024C18.3117 10.416 18.3304 10.416 18.3397 10.416C18.6104 10.3973 18.8064 10.22 18.8157 9.98667C18.8251 9.72534 18.6571 9.52934 18.3864 9.51067Z" fill="#757575"/>
<path d="M10.5372 17.584C10.4439 17.584 10.3412 17.584 10.2386 17.584C10.1546 17.584 10.0706 17.584 9.98657 17.584C9.89324 17.584 9.79057 17.584 9.6879 17.584C9.4079 17.5933 9.20257 17.7707 9.19324 18.0227C9.17457 18.284 9.3519 18.48 9.64124 18.4987C9.79057 18.508 9.9399 18.5173 10.0986 18.5173C10.2572 18.5173 10.4252 18.508 10.5932 18.4987C10.8359 18.48 11.0412 18.2653 11.0319 18.032C11.0226 17.78 10.8079 17.5933 10.5372 17.584Z" fill="#757575"/>
<path d="M18.321 17.584C18.2183 17.584 18.125 17.584 18.0317 17.584C17.985 17.584 17.9477 17.584 17.901 17.584H17.481C17.4717 17.584 17.4623 17.584 17.4623 17.584C17.2103 17.6027 17.005 17.78 16.977 18.004C16.9677 18.116 17.005 18.228 17.0797 18.3213C17.1637 18.424 17.2757 18.48 17.397 18.4893C17.565 18.4987 17.7237 18.508 17.8823 18.508C18.0597 18.508 18.2277 18.4987 18.3863 18.4893C18.657 18.4707 18.825 18.2747 18.8063 18.0133C18.7877 17.7707 18.5917 17.5933 18.321 17.584Z" fill="#757575"/>
<path d="M16.1649 9.52C15.8756 9.52 15.5862 9.52 15.2969 9.52H14.8116L14.8022 10.416H15.2316C15.3529 10.416 15.4836 10.416 15.6049 10.416C15.7542 10.416 15.9036 10.416 16.0529 10.416C16.1369 10.416 16.2209 10.4067 16.2862 10.388C16.5289 10.3227 16.6502 10.1267 16.6129 9.884C16.5942 9.66 16.4169 9.52 16.1649 9.52Z" fill="#757575"/>
<path d="M11.9465 17.584C11.8625 17.584 11.7785 17.5933 11.7132 17.612C11.4705 17.6773 11.3492 17.8733 11.3865 18.116C11.4145 18.3307 11.5919 18.4707 11.8345 18.48C11.9559 18.48 12.0679 18.48 12.1892 18.48C12.3572 18.48 12.5345 18.48 12.7025 18.48H13.1879L13.1972 17.584H12.7679C12.4972 17.584 12.2265 17.584 11.9465 17.584Z" fill="#757575"/>
<path d="M4.97448 13.8133C5.24514 13.8133 5.42248 13.636 5.43181 13.3747C5.43181 13.2627 5.43181 13.16 5.43181 13.0573C5.43181 13.0107 5.43181 12.964 5.43181 12.9173V12.46V12.4413C5.42248 12.1707 5.25448 12.0027 4.99314 11.9933H4.98381C4.72248 11.9933 4.53581 12.1707 4.53581 12.432C4.52648 12.7587 4.52648 13.076 4.53581 13.384C4.53581 13.636 4.71314 13.8133 4.97448 13.8133Z" fill="#757575"/>
<path d="M4.52642 15.5493C4.53576 15.82 4.71309 15.9973 4.97442 15.9973H4.98376C5.24509 15.988 5.42242 15.82 5.42242 15.5493C5.42242 15.26 5.42242 14.952 5.42242 14.6347C5.42242 14.364 5.24509 14.1867 4.98376 14.1773C4.71309 14.168 4.52642 14.3453 4.51709 14.6253C4.51709 14.728 4.51709 14.84 4.51709 14.9427V15.0827V15.2227C4.52642 15.3347 4.52642 15.4373 4.52642 15.5493Z" fill="#757575"/>
</g>
<defs>
<clipPath id="clip0_210_117">
<rect width="28" height="28" fill="white"/>
</clipPath>
</defs>
</svg>
