<svg width="28" height="28" viewBox="0 0 28 28" fill="none" xmlns="http://www.w3.org/2000/svg">
<g clip-path="url(#clip0_210_380)">
<path d="M27.832 3.93872C27.3373 1.89472 25.4893 0.270723 23.4173 0.0467227C23.38 0.0467227 23.3333 0.00938932 23.296 -0.00927734C17.0987 5.59902e-05 10.9013 5.59902e-05 4.704 5.59902e-05C4.452 0.056056 4.2 0.102723 3.948 0.168056C1.89467 0.662723 0.270667 2.51072 0.056 4.58272C0.056 4.62006 0.0186667 4.66672 0 4.70406C0 10.9014 0 17.0987 0 23.2961C0.056 23.5481 0.102667 23.8001 0.168 24.0521C0.662667 26.0961 2.51067 27.7201 4.58267 27.9441C4.62 27.9441 4.66667 27.9814 4.704 28.0001C10.9013 28.0001 17.0987 28.0001 23.296 28.0001C23.66 27.9067 24.0427 27.8507 24.388 27.7294C26.3573 27.0387 27.5147 25.6387 27.9347 23.6134C27.9533 23.5107 27.972 23.4081 28 23.3054C28 17.1081 28 10.9107 28 4.71339C27.944 4.45206 27.8973 4.19072 27.832 3.93872Z" fill="white"/>
<path d="M20.2904 20.132C19.8144 20.188 19.4131 20.5333 19.2918 21C19.2731 21.056 19.2358 21.14 19.1798 21.1587C18.7598 21.3173 18.3491 21.4947 17.9198 21.616C16.1931 22.1293 14.4291 22.2693 12.6371 22.1013C11.2838 21.98 9.97711 21.6813 8.74511 21.112C7.88645 20.72 7.09311 20.2253 6.49578 19.4787C6.01978 18.8907 5.75845 18.228 5.87045 17.4533C5.99178 16.6973 6.41178 16.1093 6.95311 15.6053C7.45711 15.1387 8.03578 14.7933 8.66111 14.504C8.85711 14.4107 8.87578 14.336 8.78245 14.14C8.67978 13.9533 8.58645 13.7667 8.48378 13.58C8.39045 13.3933 8.31578 13.3747 8.13845 13.4587C7.43845 13.7947 6.77578 14.2053 6.19711 14.7373C5.51578 15.3627 4.99311 16.1 4.76911 17.0147C4.73178 17.164 4.70378 17.3133 4.67578 17.4533C4.67578 17.6867 4.67578 17.9107 4.67578 18.144C4.75978 18.4427 4.80645 18.76 4.91845 19.0493C5.30111 20.048 6.01045 20.776 6.86911 21.3733C8.55845 22.5307 10.4624 23.044 12.4691 23.2493C13.6918 23.3707 14.9238 23.3427 16.1371 23.1747C17.3131 23.016 18.4611 22.7267 19.5531 22.2507C19.6558 22.204 19.7211 22.204 19.8144 22.2693C20.3091 22.5773 20.9624 22.4747 21.3264 22.0267C21.6251 21.6627 21.6811 21.1493 21.4478 20.7293C21.2144 20.3187 20.7478 20.076 20.2904 20.132Z" fill="#757575"/>
<path d="M12.5903 20.3466C13.0476 20.3746 13.5143 20.4026 13.7756 20.4213C15.2503 20.4026 16.5196 20.2813 17.7516 19.9079C18.4516 19.6933 19.1236 19.4133 19.6463 18.8719C20.2809 18.2186 20.2809 17.3693 19.6463 16.7159C19.2729 16.3333 18.8063 16.0813 18.3116 15.8853C18.1903 15.8386 18.1063 15.8666 18.0223 15.9693C17.8729 16.1653 17.7236 16.3519 17.5743 16.5479C17.4529 16.7066 17.4809 16.8093 17.6676 16.8933C17.7329 16.9213 17.8076 16.9399 17.8729 16.9679C18.2089 17.1173 18.5543 17.2666 18.8156 17.5373C18.9929 17.7239 19.0023 17.8639 18.8249 18.0413C18.6943 18.1719 18.5356 18.2933 18.3769 18.3773C17.6489 18.7973 16.8463 18.9746 16.0249 19.1053C14.9609 19.2733 13.8876 19.2919 12.8049 19.2079C12.5903 19.1893 12.5529 19.2359 12.5249 19.4413C12.4876 19.6466 12.4409 19.8519 12.3849 20.0573C12.3476 20.2439 12.4036 20.3373 12.5903 20.3466Z" fill="#757575"/>
<path d="M22.6051 15.6146C21.8958 14.6159 20.9158 13.9626 19.8238 13.4399C19.6931 13.3746 19.6091 13.4306 19.5438 13.5519C19.4504 13.7386 19.3571 13.9159 19.2544 14.1026C19.1144 14.3546 19.1331 14.4106 19.3944 14.5319C20.0384 14.8399 20.6358 15.2133 21.1584 15.7173C22.0918 16.6133 22.5678 17.8453 21.7651 19.1426C21.6998 19.2546 21.7278 19.3386 21.8211 19.4319C21.9891 19.5906 22.1478 19.7493 22.3064 19.9173C22.4371 20.0666 22.5491 20.0666 22.6611 19.9079C23.0998 19.2733 23.3331 18.5733 23.3424 17.9106C23.3331 17.0333 23.0811 16.2773 22.6051 15.6146Z" fill="#757575"/>
<path d="M7.86768 17.836C7.91434 18.4894 8.32501 18.956 8.90368 19.3014C9.00634 19.3574 9.05301 19.4134 9.07168 19.5254C9.20234 20.0947 9.74368 20.4774 10.3223 20.412C10.8917 20.3467 11.3583 19.8614 11.3677 19.2827C11.377 18.844 11.1903 18.4894 10.817 18.2654C10.425 18.032 10.0237 18.0227 9.62234 18.2374C9.56634 18.2654 9.47301 18.2934 9.43568 18.2654C8.93168 17.9107 8.89434 17.696 9.37968 17.3694C9.66901 17.1734 9.99568 17.0427 10.313 16.8934C10.4903 16.8094 10.5277 16.7067 10.4157 16.5574C10.2663 16.3614 10.1077 16.1654 9.95834 15.9694C9.88368 15.8667 9.78101 15.8387 9.66901 15.8947C9.27701 16.1187 8.87568 16.3147 8.51168 16.576C8.12901 16.856 7.88634 17.2574 7.86768 17.836Z" fill="#757575"/>
<path d="M15.2495 5.33567L15.2495 5.33569L15.2538 5.33683C17.1785 5.84334 18.6175 7.54464 18.8032 9.52009C18.8953 10.4998 18.6636 11.4383 18.2466 12.3786L18.2462 12.3796C17.6482 13.7363 16.7865 14.9432 15.783 16.0653L15.783 16.0653L15.7805 16.0682C15.3335 16.5758 14.856 17.0508 14.3649 17.5394C14.2658 17.6379 14.1662 17.737 14.0662 17.8371L14.0661 17.837L14.0598 17.8436C14.0331 17.8712 14.014 17.8824 14.0055 17.8864C14.0027 17.8877 14.0008 17.8885 13.9996 17.8888C13.992 17.8872 13.9682 17.879 13.9293 17.8429L13.9292 17.8428C12.3955 16.4193 11.055 14.8752 10.0721 13.0538C9.614 12.2005 9.28245 11.336 9.20608 10.4129C9.07881 8.80658 9.62311 7.46398 10.817 6.38096L10.8178 6.38022C11.571 5.69399 12.4635 5.3063 13.4963 5.19343C13.5572 5.18962 13.6078 5.17732 13.6429 5.16663H13.6444H13.6461H13.6478H13.6495H13.6512H13.6529H13.6546H13.6563H13.658H13.6597H13.6614H13.6631H13.6648H13.6665H13.6682H13.6699H13.6717H13.6734H13.6751H13.6768H13.6785H13.6802H13.6819H13.6836H13.6853H13.687H13.6887H13.6904H13.6922H13.6939H13.6956H13.6973H13.699H13.7007H13.7024H13.7041H13.7058H13.7075H13.7093H13.711H13.7127H13.7144H13.7161H13.7178H13.7195H13.7212H13.7229H13.7247H13.7264H13.7281H13.7298H13.7315H13.7332H13.7349H13.7366H13.7384H13.7401H13.7418H13.7435H13.7452H13.7469H13.7486H13.7504H13.7521H13.7538H13.7555H13.7572H13.7589H13.7606H13.7624H13.7641H13.7658H13.7675H13.7692H13.7709H13.7726H13.7744H13.7761H13.7778H13.7795H13.7812H13.7829H13.7847H13.7864H13.7881H13.7898H13.7915H13.7932H13.795H13.7967H13.7984H13.8001H13.8018H13.8035H13.8053H13.807H13.8087H13.8104H13.8121H13.8138H13.8156H13.8173H13.819H13.8207H13.8224H13.8242H13.8259H13.8276H13.8293H13.831H13.8327H13.8345H13.8362H13.8379H13.8396H13.8413H13.8431H13.8448H13.8465H13.8482H13.8499H13.8517H13.8534H13.8551H13.8568H13.8585H13.8603H13.862H13.8637H13.8654H13.8671H13.8689H13.8706H13.8723H13.874H13.8757H13.8775H13.8792H13.8809H13.8826H13.8843H13.8861H13.8878H13.8895H13.8912H13.8929H13.8947H13.8964H13.8981H13.8998H13.9015H13.9033H13.905H13.9067H13.9084H13.9102H13.9119H13.9136H13.9153H13.917H13.9188H13.9205H13.9222H13.9239H13.9257H13.9274H13.9291H13.9308H13.9325H13.9343H13.936H13.9377H13.9394H13.9411H13.9429H13.9446H13.9463H13.948H13.9498H13.9515H13.9532H13.9549H13.9566H13.9584H13.9601H13.9618H13.9635H13.9653H13.967H13.9687H13.9704H13.9722H13.9739H13.9756H13.9773H13.979H13.9808H13.9825H13.9842H13.9859H13.9877H13.9894H13.9911H13.9928H13.9945H13.9963H13.998H13.9997H14.0014H14.0032H14.0049H14.0066H14.0083H14.01H14.0118H14.0135H14.0152H14.0169H14.0187H14.0204H14.0221H14.0238H14.0256H14.0273H14.029H14.0307H14.0324H14.0342H14.0359H14.0376H14.0393H14.0411H14.0428H14.0445H14.0462H14.0479H14.0497H14.0514H14.0531H14.0548H14.0566H14.0583H14.06H14.0617H14.0634H14.0652H14.0669H14.0686H14.0703H14.0721H14.0738H14.0755H14.0772H14.0789H14.0807H14.0824H14.0841H14.0858H14.0876H14.0893H14.091H14.0927H14.0944H14.0962H14.0979H14.0996H14.1013H14.103H14.1048H14.1065H14.1082H14.1099H14.1116H14.1134H14.1151H14.1168H14.1185H14.1203H14.122H14.1237H14.1254H14.1271H14.1289H14.1306H14.1323H14.134H14.1357H14.1375H14.1392H14.1409H14.1426H14.1443H14.1461H14.1478H14.1495H14.1512H14.1529H14.1547H14.1564H14.1581H14.1598H14.1615H14.1632H14.165H14.1667H14.1684H14.1701H14.1718H14.1736H14.1753H14.177H14.1787H14.1804H14.1821H14.1839H14.1856H14.1873H14.189H14.1907H14.1925H14.1942H14.1959H14.1976H14.1993H14.201H14.2028H14.2045H14.2062H14.2079H14.2096H14.2113H14.2131H14.2148H14.2165H14.2182H14.2199H14.2216H14.2234H14.2251H14.2268H14.2285H14.2302H14.2319H14.2336H14.2354H14.2371H14.2388H14.2405H14.2422H14.2439H14.2456H14.2474H14.2491H14.2508H14.2525H14.2542H14.2559H14.2576H14.2594H14.2611H14.2628H14.2645H14.2662H14.2679H14.2696H14.2713H14.2731H14.2748H14.2765H14.2782H14.2799H14.2816H14.2833H14.285H14.2867H14.2885H14.2902H14.2919H14.2936H14.2953H14.297H14.2987H14.3004H14.3021H14.3039H14.3056H14.3073H14.309H14.3107H14.3124H14.3141H14.3158H14.3175H14.3192H14.3209H14.3226H14.3244H14.3261H14.3278H14.3295H14.3312H14.3329H14.3346H14.3363H14.338H14.3397H14.3414H14.3431H14.3448H14.3465H14.3482H14.35H14.3517H14.3534H14.3551H14.3568H14.3585H14.3602H14.3619H14.3636H14.3653H14.367H14.3687H14.3704H14.3721H14.3738H14.3755H14.3772H14.3789H14.3806H14.3823H14.384H14.3857H14.3874H14.3882C14.5187 5.19264 14.6321 5.21204 14.7375 5.23008C14.9163 5.26066 15.0722 5.28733 15.2495 5.33567ZM14.0023 17.8892C14.0023 17.8892 14.0017 17.8892 14.0007 17.889L14.0023 17.8892ZM13.7047 5.14507C13.7048 5.14505 13.7048 5.14506 13.7047 5.1451L13.7047 5.14507ZM14.012 6.49997V6.49996H14.009C12.1214 6.49996 10.5784 8.02737 10.5784 9.91196C10.5784 11.7934 12.1182 13.3333 13.9997 13.3333C15.8797 13.3333 17.4117 11.8043 17.4024 9.92129C17.4117 8.0388 15.8808 6.5109 14.012 6.49997Z" stroke="#7721AD"/>
<path d="M14.0091 8.16663C13.0477 8.16663 12.2544 8.95063 12.2544 9.91196C12.2544 10.8733 13.0384 11.6666 13.9997 11.6666C14.9611 11.6666 15.7544 10.8826 15.7544 9.92129C15.7544 8.95063 14.9704 8.16663 14.0091 8.16663Z" fill="#7721AD"/>
</g>
<defs>
<clipPath id="clip0_210_380">
<rect width="28" height="28" fill="white"/>
</clipPath>
</defs>
</svg>
