<svg width="28" height="28" viewBox="0 0 28 28" fill="none" xmlns="http://www.w3.org/2000/svg">
<g clip-path="url(#clip0_210_180)">
<path d="M27.832 3.93866C27.3373 1.89466 25.4893 0.270662 23.4173 0.0466616C23.38 0.0466616 23.3333 0.00932829 23.296 -0.00933838C17.0987 -5.04539e-06 10.9013 -5.04539e-06 4.704 -5.04539e-06C4.452 0.055995 4.2 0.102662 3.948 0.167995C1.89467 0.662662 0.270667 2.51066 0.056 4.58266C0.056 4.61999 0.0186667 4.66666 0 4.70399C0 10.9013 0 17.0987 0 23.296C0.056 23.548 0.102667 23.8 0.168 24.052C0.662667 26.096 2.51067 27.72 4.58267 27.944C4.62 27.944 4.66667 27.9813 4.704 28C10.9013 28 17.0987 28 23.296 28C23.66 27.9067 24.0427 27.8507 24.388 27.7293C26.3573 27.0387 27.5147 25.6387 27.9347 23.6133C27.9533 23.5107 27.972 23.408 28 23.3053C28 17.108 28 10.9107 28 4.71333C27.944 4.45199 27.8973 4.19066 27.832 3.93866Z" fill="white"/>
<path d="M18 9.5C18 11.7101 16.2101 13.5 14 13.5C11.7899 13.5 10 11.7101 10 9.5C10 7.28989 11.7899 5.5 14 5.5C16.2101 5.5 18 7.28989 18 9.5ZM5.5 20.75C5.5 20.1855 5.7788 19.6541 6.32296 19.1518C6.87052 18.6465 7.65278 18.2052 8.55953 17.842C10.3738 17.1151 12.5606 16.75 14 16.75C15.4394 16.75 17.6262 17.1151 19.4405 17.842C20.3472 18.2052 21.1295 18.6465 21.677 19.1518C22.2212 19.6541 22.5 20.1855 22.5 20.75V22.5H5.5V20.75Z" stroke="#7721AD"/>
</g>
<defs>
<clipPath id="clip0_210_180">
<rect width="28" height="28" fill="white"/>
</clipPath>
</defs>
</svg>
