<svg width="28" height="28" viewBox="0 0 28 28" fill="none" xmlns="http://www.w3.org/2000/svg">
<g clip-path="url(#clip0_210_271)">
<path d="M27.83 3.93997C27.5708 2.92355 27.0115 2.00879 26.2249 1.31491C25.4382 0.621031 24.4609 0.180209 23.42 0.0499573C23.3756 0.0403722 23.3344 0.0197375 23.3 -0.0100403H4.69995C4.44995 0.0499597 4.19995 0.0899731 3.94995 0.159973C2.93159 0.415331 2.0147 0.973545 1.32019 1.76089C0.62568 2.54824 0.186317 3.52771 0.0600586 4.56998C0.0504735 4.61439 0.0297778 4.65566 0 4.68997V23.2899C0.06 23.5399 0.100044 23.7899 0.170044 24.0399C0.429183 25.0564 0.988512 25.9712 1.77515 26.6651C2.56178 27.3589 3.53914 27.7997 4.57996 27.93C4.62437 27.9395 4.66564 27.9602 4.69995 27.99H23.3C23.66 27.9 24.04 27.8399 24.39 27.7199C25.3036 27.4282 26.1184 26.8887 26.7434 26.1612C27.3684 25.4338 27.7792 24.5471 27.9301 23.5999C27.9301 23.4999 27.93 23.4 28 23.3V4.69998C27.94 4.44998 27.9 4.18997 27.83 3.93997Z" fill="white"/>
<path d="M7.76582 23.329C7.56386 23.2657 7.3528 23.2228 7.16198 23.1357C6.41598 22.7945 5.99955 22.2298 6 21.3844C6.00182 16.7873 6.00235 12.1899 6.00159 7.59239C6.00159 6.44315 6.89474 5.53386 8.04739 5.51293C8.65373 5.50202 9.26031 5.51111 9.901 5.51111C9.901 5.27708 9.901 5.05396 9.901 4.83062C9.901 4.45512 10.0345 4.30752 10.4146 4.29887C10.8414 4.28841 11.2686 4.29273 11.6955 4.29592C11.7987 4.29592 11.8599 4.27499 11.9099 4.16878C12.3298 3.27836 13.0383 2.82281 14.0222 2.83054C15.0001 2.83827 15.7423 3.24288 16.1564 4.16742C16.1826 4.22587 16.279 4.28659 16.3443 4.28864C16.7443 4.29978 17.1449 4.29182 17.5452 4.29569C17.6583 4.29361 17.7713 4.30553 17.8815 4.33117C18.109 4.39167 18.1999 4.51539 18.2034 4.75034C18.2068 4.99597 18.2034 5.24137 18.2034 5.5102C18.4394 5.5102 18.6582 5.50702 18.8757 5.5102C19.376 5.51953 19.8802 5.4911 20.3736 5.55251C21.3481 5.67373 22.1005 6.54913 22.1021 7.53121C22.1063 12.1752 22.1063 16.8192 22.1021 21.4633C22.1021 22.361 21.4289 23.1061 20.4896 23.2851C20.4386 23.2949 20.3893 23.3128 20.3392 23.3269L7.76582 23.329ZM9.901 6.51456C9.87751 6.5047 9.85314 6.49708 9.82822 6.49182C9.28123 6.48977 8.73425 6.48682 8.18726 6.4875C7.41238 6.4875 6.97161 6.931 6.97161 7.70406V21.2952C6.97161 21.3487 6.97161 21.4021 6.97161 21.4544C6.98003 21.7501 7.11035 21.9775 7.35371 22.1424C7.5891 22.3016 7.85407 22.3533 8.13245 22.3533C12.0754 22.3533 16.0186 22.3528 19.9619 22.3519C20.0753 22.3522 20.1885 22.3432 20.3003 22.3248C20.8323 22.2357 21.133 21.8802 21.133 21.3441C21.133 16.7802 21.133 12.2163 21.133 7.65243C21.133 6.95716 20.6822 6.4966 19.9869 6.48704C19.58 6.48136 19.1731 6.48591 18.766 6.48568H18.2422C18.2236 6.51866 18.2115 6.5298 18.2115 6.54117C18.2084 6.87475 18.206 7.20832 18.2045 7.5419C18.2029 7.99859 18.0148 8.19328 17.5661 8.1935C15.2174 8.1935 12.8688 8.1935 10.5203 8.1935C10.0866 8.1935 9.90214 8.00678 9.90123 7.57124C9.90032 7.21985 9.901 6.86709 9.901 6.51456ZM17.2156 5.26866H15.9995C15.5856 5.26866 15.4418 5.15927 15.3297 4.76012C15.1493 4.1192 14.563 3.69389 13.9248 3.7412C13.3455 3.78418 12.8615 4.20267 12.6919 4.80788C12.5984 5.14107 12.4321 5.26753 12.0858 5.26866C11.9588 5.26866 11.8322 5.26866 11.7053 5.26866H10.8985V7.20916H17.2156V5.26866Z" fill="#757575"/>
<path d="M9.84861 10.227C10.3475 9.75211 10.8451 9.27866 11.3415 8.80665C11.5462 8.61333 11.7509 8.57922 11.9579 8.69293C12.2535 8.85783 12.3218 9.21604 12.0809 9.45098C11.4401 10.0726 10.7923 10.6867 10.1375 11.2932C9.93845 11.4784 9.68599 11.4611 9.49199 11.2677C9.16175 10.9386 8.83576 10.605 8.51401 10.267C8.29613 10.0378 8.29363 9.7255 8.49491 9.53445C8.68732 9.3525 8.98685 9.37684 9.20724 9.59813C9.40943 9.80101 9.60776 10.0075 9.80813 10.2122C9.81199 10.2177 9.81995 10.2177 9.84861 10.227Z" fill="#757575"/>
<path d="M19.4562 9.91019H13.1107C12.8783 9.91019 12.6899 10.0986 12.6899 10.3309C12.6899 10.5633 12.8783 10.7517 13.1107 10.7517H19.4562C19.6886 10.7517 19.8769 10.5633 19.8769 10.3309C19.8769 10.0986 19.6886 9.91019 19.4562 9.91019Z" fill="#381052"/>
<path d="M9.84861 13.2292C10.3475 12.7543 10.8451 12.2808 11.3415 11.8088C11.5462 11.6155 11.7509 11.5814 11.9579 11.6951C12.2535 11.86 12.3218 12.2182 12.0809 12.4531C11.4401 13.0748 10.7923 13.6889 10.1375 14.2954C9.93845 14.4805 9.68599 14.4632 9.49199 14.2699C9.16175 13.9407 8.83576 13.6072 8.51401 13.2692C8.29613 13.0399 8.29363 12.7277 8.49491 12.5366C8.68732 12.3547 8.98685 12.379 9.20724 12.6003C9.40943 12.8032 9.60776 13.0097 9.80813 13.2144C9.81199 13.2198 9.81995 13.2198 9.84861 13.2292Z" fill="#757575"/>
<path d="M19.4562 12.9123H13.1107C12.8783 12.9123 12.6899 13.1007 12.6899 13.3331C12.6899 13.5654 12.8783 13.7538 13.1107 13.7538H19.4562C19.6886 13.7538 19.8769 13.5654 19.8769 13.3331C19.8769 13.1007 19.6886 12.9123 19.4562 12.9123Z" fill="#381052"/>
<path d="M8.94203 16.8075C8.89208 16.8557 8.85213 16.9133 8.82446 16.977C8.79678 17.0407 8.78193 17.1092 8.78074 17.1786C8.77956 17.248 8.79207 17.317 8.81756 17.3816C8.84304 17.4462 8.88101 17.5051 8.92929 17.555L9.17319 17.8072L6.53122 17.7938C6.39103 17.7931 6.25632 17.8482 6.15671 17.9468C6.0571 18.0455 6.00073 18.1796 6 18.3198V18.3226C6 18.3291 6 18.3357 6 18.3422C6 18.3488 6 18.355 6 18.3615V18.3643C6.00073 18.5045 6.0571 18.6386 6.15671 18.7373C6.25632 18.8359 6.39103 18.891 6.53122 18.8903L9.17319 18.8776L8.92929 19.1298C8.88076 19.1796 8.84255 19.2386 8.81685 19.3033C8.79115 19.3679 8.77847 19.437 8.77953 19.5066C8.78059 19.5762 8.79537 19.6449 8.82303 19.7087C8.85068 19.7726 8.89067 19.8303 8.94069 19.8787C8.99072 19.9271 9.0498 19.9651 9.11454 19.9906C9.17929 20.0161 9.24843 20.0285 9.31801 20.0273C9.38758 20.026 9.45622 20.011 9.51998 19.9831C9.58375 19.9553 9.64139 19.9151 9.6896 19.8649L10.7865 18.7301C10.8394 18.6809 10.8817 18.6213 10.9105 18.5551C10.9394 18.4888 10.9543 18.4173 10.9543 18.345V18.3433C10.9543 18.2705 10.9393 18.1986 10.9102 18.132C10.8811 18.0653 10.8385 18.0054 10.7851 17.956L9.68822 16.8213C9.59095 16.7207 9.45782 16.6629 9.31797 16.6603C9.17812 16.6577 9.04295 16.7106 8.94203 16.8075Z" fill="#757575"/>
<circle cx="17.1844" cy="18.897" r="5.81579" fill="#7721AD"/>
<path d="M17.1876 17.4589C17.9209 17.4482 18.6931 17.3963 19.4392 17.1607C19.6305 17.1008 19.8143 17.0188 19.9866 16.9164C20.3194 16.7163 20.3152 16.4397 19.9883 16.2308C19.6557 16.0193 19.28 15.9202 18.899 15.8524C17.6551 15.6287 16.4108 15.6264 15.1745 15.9035C14.9051 15.9638 14.6485 16.0827 14.3881 16.1805C14.3301 16.2014 14.2784 16.2454 14.2289 16.2849C13.9948 16.4726 13.9923 16.6852 14.2289 16.869C14.5029 17.081 14.8296 17.1734 15.1592 17.2519C15.8116 17.4059 16.4749 17.4538 17.1876 17.4589Z" fill="white"/>
<path d="M20.2727 17.4589C20.0641 17.758 19.7768 17.8622 19.4872 17.9519C18.7117 18.1922 17.9116 18.255 17.1048 18.2485C16.3231 18.2423 15.5478 18.1764 14.8 17.9272C14.5353 17.8392 14.2766 17.7338 14.0934 17.4637C14.0934 17.8559 14.0769 18.2212 14.1038 18.5832C14.1115 18.6863 14.229 18.8039 14.3248 18.8734C14.6033 19.0741 14.9323 19.1655 15.2636 19.2329C16.6028 19.5041 17.9414 19.5075 19.2725 19.1859C19.5212 19.1259 19.7597 19.0126 19.993 18.9026C20.1885 18.8106 20.288 18.6523 20.2759 18.4175C20.2608 18.1106 20.2727 17.8027 20.2727 17.4589Z" fill="white"/>
<path d="M20.2762 19.432C19.9841 19.8017 19.5754 19.9052 19.1731 19.9995C18.1953 20.229 17.2032 20.2559 16.2061 20.1629C15.6975 20.1155 15.1949 20.0362 14.7142 19.8556C14.4847 19.7692 14.2587 19.6699 14.1177 19.4498C13.9333 20.0665 14.1431 20.5973 14.7 20.9029C15.1314 21.1397 15.604 21.2482 16.0868 21.3112C17.083 21.4414 18.0724 21.4187 19.0467 21.1512C19.3647 21.064 19.6686 20.9409 19.9276 20.7287C20.1608 20.5378 20.2904 20.2985 20.2774 19.9891C20.271 19.8107 20.2762 19.6317 20.2762 19.432Z" fill="white"/>
</g>
<defs>
<clipPath id="clip0_210_271">
<rect width="28" height="28" fill="white"/>
</clipPath>
</defs>
</svg>
