<svg width="28" height="28" viewBox="0 0 28 28" fill="none" xmlns="http://www.w3.org/2000/svg">
<g clip-path="url(#clip0_210_149)">
<path d="M27.832 3.93866C27.3373 1.89466 25.4893 0.270662 23.4173 0.0466616C23.38 0.0466616 23.3333 0.00932829 23.296 -0.00933838C17.0987 -5.04497e-06 10.9013 -5.04497e-06 4.704 -5.04497e-06C4.452 0.055995 4.2 0.102662 3.948 0.167995C1.89467 0.662662 0.270667 2.51066 0.056 4.58266C0.056 4.61999 0.0186667 4.66666 0 4.70399C0 10.9013 0 17.0987 0 23.296C0.056 23.548 0.102667 23.8 0.168 24.052C0.662667 26.096 2.51067 27.72 4.58267 27.944C4.62 27.944 4.66667 27.9813 4.704 28C10.9013 28 17.0987 28 23.296 28C23.66 27.9067 24.0427 27.8507 24.388 27.7293C26.3573 27.0387 27.5147 25.6387 27.9347 23.6133C27.9533 23.5107 27.972 23.408 28 23.3053C28 17.108 28 10.9107 28 4.71333C27.944 4.45199 27.8973 4.19066 27.832 3.93866Z" fill="white"/>
<path d="M23.707 9.44534C23.6323 9.76267 23.5763 10.0893 23.483 10.3973C23.2963 11.004 22.9883 11.5547 22.5496 12.0027C21.215 13.356 19.8803 14.7187 18.5083 16.0347C16.8003 17.6773 13.991 17.5747 12.367 15.8573C12.143 15.624 11.9656 15.344 11.751 15.064C12.0496 14.784 12.3016 14.4947 12.6003 14.2613C13.011 13.944 13.5803 14.0093 13.9816 14.3827C14.3456 14.7187 14.7656 14.9333 15.2603 14.9893C15.979 15.0733 16.595 14.868 17.099 14.3547C17.8923 13.5613 18.6856 12.768 19.4883 11.9747C19.955 11.508 20.4216 11.0507 20.879 10.584C21.467 9.97734 21.663 9.24001 21.4203 8.43734C21.187 7.62534 20.6363 7.112 19.8056 6.916C19.0403 6.73867 18.359 6.944 17.799 7.48534C16.9776 8.288 16.1656 9.10934 15.3536 9.93067C15.251 10.0427 15.167 10.052 15.027 9.99601C14.1963 9.70667 13.347 9.63201 12.479 9.75334C12.4603 9.72534 12.4323 9.70667 12.4136 9.67867C12.479 9.65067 12.5536 9.632 12.591 9.58534C13.7856 8.4 14.9803 7.21467 16.1656 6.02001C16.9123 5.27334 17.799 4.81601 18.8536 4.69467C18.8816 4.69467 18.9096 4.67601 18.9376 4.66667C19.2083 4.66667 19.4696 4.66667 19.7403 4.66667C19.7776 4.67601 19.815 4.69467 19.8616 4.70401C21.6256 4.90934 23.119 6.19734 23.567 7.92401C23.6323 8.16667 23.6696 8.40934 23.7163 8.652C23.707 8.90401 23.707 9.17467 23.707 9.44534Z" fill="#7721AD"/>
<path d="M16.3055 18.2373C16.2588 18.2933 16.2308 18.3307 16.1935 18.3587C14.9521 19.6 13.7201 20.8507 12.4695 22.0827C10.3135 24.192 6.75747 23.5573 5.46014 20.8413C4.67614 19.208 4.98414 17.2387 6.25347 15.9413C7.56947 14.5973 8.88547 13.2627 10.2388 11.9653C12.1988 10.08 15.5028 10.5373 16.9028 12.8427C16.9215 12.8707 16.9401 12.908 16.9681 12.9547C16.6975 13.216 16.4455 13.496 16.1561 13.7293C15.7361 14.056 15.1668 13.9907 14.7561 13.608C14.3175 13.188 13.7948 12.9827 13.1881 12.9827C12.6001 12.9827 12.0868 13.1973 11.6668 13.608C10.3975 14.8773 9.11881 16.1467 7.84947 17.4253C7.00014 18.284 7.00947 19.6467 7.84947 20.496C8.69881 21.3453 10.0521 21.3733 10.9201 20.524C11.7508 19.712 12.5628 18.8907 13.3841 18.06C13.4961 17.948 13.5801 17.9293 13.7295 17.976C14.5228 18.256 15.3348 18.3307 16.1748 18.228C16.2121 18.2373 16.2495 18.2373 16.3055 18.2373Z" fill="#7721AD"/>
</g>
<defs>
<clipPath id="clip0_210_149">
<rect width="28" height="28" fill="white"/>
</clipPath>
</defs>
</svg>
