<svg width="28" height="28" viewBox="0 0 28 28" fill="none" xmlns="http://www.w3.org/2000/svg">
<g clip-path="url(#clip0_210_279)">
<path d="M27.832 3.93866C27.3373 1.89466 25.4893 0.270662 23.4173 0.0466616C23.38 0.0466616 23.3333 0.00932829 23.296 -0.00933838C17.0987 -5.04497e-06 10.9013 -5.04497e-06 4.704 -5.04497e-06C4.452 0.055995 4.2 0.102662 3.948 0.167995C1.89467 0.662662 0.270667 2.51066 0.056 4.58266C0.056 4.61999 0.0186667 4.66666 0 4.70399C0 10.9013 0 17.0987 0 23.296C0.056 23.548 0.102667 23.8 0.168 24.052C0.662667 26.096 2.51067 27.72 4.58267 27.944C4.62 27.944 4.66667 27.9813 4.704 28C10.9013 28 17.0987 28 23.296 28C23.66 27.9067 24.0427 27.8507 24.388 27.7293C26.3573 27.0387 27.5147 25.6387 27.9347 23.6133C27.9533 23.5107 27.972 23.408 28 23.3053C28 17.108 28 10.9107 28 4.71333C27.944 4.45199 27.8973 4.19066 27.832 3.93866Z" fill="white"/>
<path d="M11.0784 8.98795H20.6731C21.2797 8.98795 21.7744 8.49328 21.7744 7.88661C21.7744 7.27995 21.2797 6.78528 20.6731 6.78528H11.0784C10.4717 6.78528 9.97705 7.27995 9.97705 7.88661C9.97705 8.18528 10.0891 8.45595 10.3037 8.67061C10.5091 8.87595 10.7797 8.98795 11.0784 8.98795Z" fill="#757575"/>
<path d="M20.6731 12.2733H11.0784C10.4717 12.2733 9.97705 12.768 9.97705 13.3746C9.97705 13.9813 10.4717 14.476 11.0784 14.476H20.6731C21.2797 14.476 21.7744 13.9813 21.7744 13.3746C21.7744 12.768 21.2797 12.2733 20.6731 12.2733Z" fill="#757575"/>
<path d="M20.6731 17.752H11.0784C10.4717 17.752 9.97705 18.2466 9.97705 18.8533C9.97705 19.46 10.4717 19.9546 11.0784 19.9546H20.6731C21.2797 19.9546 21.7744 19.46 21.7744 18.8533C21.7744 18.2466 21.2797 17.752 20.6731 17.752Z" fill="#757575"/>
<path d="M8.03593 6.96264H7.39193L7.19593 6.35597C7.11193 6.10397 6.8786 5.93597 6.61726 5.93597C6.35593 5.93597 6.1226 6.10397 6.0386 6.35597L5.8426 6.96264H5.20793C4.9466 6.96264 4.71326 7.13064 4.62926 7.38264C4.54526 7.63464 4.6386 7.90531 4.85326 8.06397L5.3666 8.43731L5.1706 9.04397C5.0866 9.29597 5.17993 9.56664 5.3946 9.72531C5.49726 9.79997 5.6186 9.84664 5.74926 9.84664C5.87993 9.84664 6.00126 9.80931 6.10393 9.73464L6.61726 9.36131L7.1306 9.73464C7.33593 9.88397 7.6346 9.88397 7.84926 9.73464C8.06393 9.57597 8.15726 9.30531 8.07326 9.05331L7.87726 8.44664L8.3906 8.07331C8.60526 7.91464 8.68926 7.64397 8.6146 7.39197C8.5306 7.13064 8.29726 6.96264 8.03593 6.96264Z" fill="#757575"/>
<path d="M7.44769 11.9373H5.78635C5.45035 11.9373 5.17969 12.208 5.17969 12.544V14.2053C5.17969 14.5413 5.45035 14.812 5.78635 14.812H7.44769C7.78369 14.812 8.05435 14.5413 8.05435 14.2053V12.544C8.05435 12.208 7.78369 11.9373 7.44769 11.9373Z" fill="#757575"/>
<path d="M7.44769 17.416H5.78635C5.45035 17.416 5.17969 17.6866 5.17969 18.0226V19.684C5.17969 20.02 5.45035 20.2906 5.78635 20.2906H7.44769C7.78369 20.2906 8.05435 20.02 8.05435 19.684V18.0226C8.05435 17.6866 7.78369 17.416 7.44769 17.416Z" fill="#757575"/>
<path d="M18.0318 11.3213C15.0638 11.3213 12.6558 13.7293 12.6558 16.6973C12.6558 17.8733 13.0384 18.9653 13.6824 19.8426L13.0104 21.84L15.0731 21.1773C15.9224 21.7373 16.9398 22.064 18.0318 22.064C20.9904 22.064 23.4078 19.656 23.4078 16.688C23.4078 13.72 20.9904 11.3213 18.0318 11.3213Z" fill="#7721AD"/>
<path d="M21.1586 18.9093C21.0279 19.2733 20.5146 19.5813 20.1039 19.6653C19.8239 19.7213 19.4599 19.7773 18.2186 19.2639C16.6413 18.6106 15.6239 17.0053 15.5399 16.9026C15.4653 16.7999 14.9053 16.0533 14.9053 15.2786C14.9053 14.5039 15.2973 14.1306 15.4559 13.9719C15.5866 13.8413 15.8013 13.7759 16.0066 13.7759C16.0719 13.7759 16.1373 13.7759 16.1839 13.7853C16.3426 13.7946 16.4173 13.8039 16.5293 14.0466C16.6599 14.3546 16.9773 15.1293 17.0146 15.2133C17.0519 15.2879 17.0893 15.3999 17.0333 15.5026C16.9866 15.6146 16.9399 15.6613 16.8559 15.7453C16.7719 15.8293 16.6973 15.9039 16.6226 16.0066C16.5479 16.0906 16.4639 16.1839 16.5573 16.3426C16.6506 16.5013 16.9679 17.0146 17.4253 17.4253C18.0226 17.9573 18.5079 18.1253 18.6853 18.1999C18.8159 18.2559 18.9653 18.2373 19.0679 18.1439C19.1893 18.0133 19.3386 17.7986 19.4879 17.5839C19.5999 17.4346 19.7306 17.4159 19.8706 17.4626C20.0199 17.5093 20.7853 17.8919 20.9439 17.9666C21.1026 18.0413 21.2053 18.0879 21.2426 18.1533C21.2893 18.2279 21.2893 18.5359 21.1586 18.9093Z" fill="white"/>
</g>
<defs>
<clipPath id="clip0_210_279">
<rect width="28" height="28" fill="white"/>
</clipPath>
</defs>
</svg>
