<svg id="Layer_1" data-name="Layer 1" xmlns="http://www.w3.org/2000/svg" viewBox="0 0 28 28.01"><defs><style>.cls-1{fill:#fff;}.cls-2{fill:#757575;fill-rule:evenodd;}.cls-3{fill:#7721ad;}</style></defs><title>card_regresar_a_bloque</title><path class="cls-1" d="M27.77,3.91A5.23,5.23,0,0,0,23.35,0s-.08,0-.12-.06H4.64c-.25.05-.5.1-.75.17A5.22,5.22,0,0,0,0,4.55a.26.26,0,0,1,0,.12V23.26c0,.26.1.51.17.76a5.23,5.23,0,0,0,4.41,3.89s.08,0,.12.06H23.23c.37-.09.75-.15,1.1-.27a5.2,5.2,0,0,0,3.54-4.12c0-.1,0-.2.07-.31V4.68C27.88,4.42,27.83,4.16,27.77,3.91Z" transform="translate(0.06 0.04)"/><path class="cls-2" d="M11.52,19.33h.22V12.7H6a.83.83,0,0,0-.88.88V18.4a.84.84,0,0,0,.94.93Z" transform="translate(0.06 0.04)"/><path class="cls-2" d="M19.11,12.69h-5.7v6.63h5.7A.84.84,0,0,0,20,18.4V13.63A.84.84,0,0,0,19.11,12.69Z" transform="translate(0.06 0.04)"/><path class="cls-2" d="M15.9,10.86V5.26A.83.83,0,0,0,15,4.38H10.22a.85.85,0,0,0-1,1V11h6.63C15.89,11,15.89,10.91,15.9,10.86Z" transform="translate(0.06 0.04)"/><rect class="cls-1" x="10.32" y="5.43" width="4.65" height="4.65"/><rect class="cls-1" x="6.16" y="13.72" width="4.65" height="4.62"/><rect class="cls-1" x="14.46" y="13.69" width="4.65" height="4.66"/><path class="cls-3" d="M22.67,25h-.16a.52.52,0,0,1-.38-.35,6.27,6.27,0,0,0-.83-1.55,5.44,5.44,0,0,0-2.4-1.81,8.43,8.43,0,0,0-2.24-.54l-.94-.07V22.6a.46.46,0,0,1-.11.29.44.44,0,0,1-.69,0c-1.22-1.38-2.45-2.75-3.68-4.13A2.8,2.8,0,0,1,11,18.4v-.17l.21-.28.44-.44,3.25-3.32a.81.81,0,0,1,.14-.12.47.47,0,0,1,.43,0,.4.4,0,0,1,.24.36v2l.62.07a7.4,7.4,0,0,1,2.69.87,7.28,7.28,0,0,1,3.16,3.43A9.1,9.1,0,0,1,23,24.48.46.46,0,0,1,22.67,25Z" transform="translate(0.06 0.04)"/></svg>