<svg width="28" height="28" viewBox="0 0 28 28" fill="none" xmlns="http://www.w3.org/2000/svg">
<g clip-path="url(#clip0_210_28)">
<path d="M27.832 3.93872C27.3373 1.89472 25.4893 0.270723 23.4173 0.0467227C23.38 0.0467227 23.3333 0.00938932 23.296 -0.00927734C17.0987 5.59902e-05 10.9013 5.59902e-05 4.704 5.59902e-05C4.452 0.056056 4.2 0.102723 3.948 0.168056C1.89467 0.662723 0.270667 2.51072 0.056 4.58272C0.056 4.62006 0.0186667 4.66672 0 4.70406C0 10.9014 0 17.0987 0 23.2961C0.056 23.5481 0.102667 23.8001 0.168 24.0521C0.662667 26.0961 2.51067 27.7201 4.58267 27.9441C4.62 27.9441 4.66667 27.9814 4.704 28.0001C10.9013 28.0001 17.0987 28.0001 23.296 28.0001C23.66 27.9067 24.0427 27.8507 24.388 27.7294C26.3573 27.0387 27.5147 25.6387 27.9347 23.6134C27.9533 23.5107 27.972 23.4081 28 23.3054C28 17.1081 28 10.9107 28 4.71339C27.944 4.45206 27.8973 4.19072 27.832 3.93872Z" fill="white"/>
<path d="M19.6443 12.3147L19.2893 11.8709L18.8944 12.2813C18.4969 12.6944 18.0429 12.912 17.5093 12.912C16.9688 12.912 16.5179 12.7075 16.118 12.2845L15.7545 11.9L15.3912 12.2847C14.9982 12.7008 14.5466 12.912 14.0093 12.912C13.4726 12.912 13.0192 12.7011 12.6148 12.2812L12.2512 11.9035L11.8912 12.2847C11.4982 12.7008 11.0466 12.912 10.5093 12.912C9.96171 12.912 9.51334 12.7021 9.16565 12.3322L8.88373 12.0323L8.53525 12.2513C8.43753 12.3128 8.32466 12.3889 8.22398 12.4568C8.16145 12.499 8.10363 12.5381 8.05706 12.5684C7.91232 12.6627 7.79067 12.7327 7.67297 12.7797L7.67296 12.7797L7.66784 12.7818C6.54591 13.2451 5.26304 12.44 5.17472 11.2108L5.17475 11.2108L5.17428 11.2051C5.16681 11.1155 5.18827 11.0329 5.25419 10.9353C6.1863 9.63033 7.11921 8.32425 8.04291 7.01801L8.04292 7.01801L8.04512 7.01485C8.08142 6.96268 8.10923 6.94339 8.12688 6.93426C8.14496 6.92491 8.18001 6.91199 8.25067 6.91199H8.27315H8.29562H8.3181H8.34058H8.36305H8.38553H8.408H8.43048H8.45296H8.47543H8.49791H8.52039H8.54286H8.56534H8.58782H8.61029H8.63277H8.65525H8.67772H8.7002H8.72268H8.74515H8.76763H8.79011H8.81258H8.83506H8.85754H8.88001H8.90249H8.92497H8.94744H8.96992H8.9924H9.01487H9.03735H9.05983H9.0823H9.10478H9.12725H9.14973H9.17221H9.19468H9.21716H9.23964H9.26211H9.28459H9.30707H9.32954H9.35202H9.3745H9.39697H9.41945H9.44193H9.4644H9.48688H9.50936H9.53183H9.55431H9.57679H9.59926H9.62174H9.64422H9.66669H9.68917H9.71165H9.73412H9.7566H9.77908H9.80155H9.82403H9.84651H9.86898H9.89146H9.91393H9.93641H9.95889H9.98136H10.0038H10.0263H10.0488H10.0713H10.0937H10.1162H10.1387H10.1612H10.1837H10.2061H10.2286H10.2511H10.2736H10.296H10.3185H10.341H10.3635H10.3859H10.4084H10.4309H10.4534H10.4758H10.4983H10.5208H10.5433H10.5658H10.5882H10.6107H10.6332H10.6557H10.6781H10.7006H10.7231H10.7456H10.768H10.7905H10.813H10.8355H10.858H10.8804H10.9029H10.9254H10.9479H10.9703H10.9928H11.0153H11.0378H11.0602H11.0827H11.1052H11.1277H11.1501H11.1726H11.1951H11.2176H11.2401H11.2625H11.285H11.3075H11.33H11.3524H11.3749H11.3974H11.4199H11.4423H11.4648H11.4873H11.5098H11.5322H11.5547H11.5772H11.5997H11.6222H11.6446H11.6671H11.6896H11.7121H11.7345H11.757H11.7795H11.802H11.8244H11.8469H11.8694H11.8919H11.9143H11.9368H11.9593H11.9818H12.0043H12.0267H12.0492H12.0717H12.0942H12.1166H12.1391H12.1616H12.1841H12.2065H12.229H12.2515H12.274H12.2965H12.3189H12.3414H12.3639H12.3864H12.4088H12.4313H12.4538H12.4763H12.4987H12.5212H12.5437H12.5662H12.5886H12.6111H12.6336H12.6561H12.6786H12.701H12.7235H12.746H12.7685H12.7909H12.8134H12.8359H12.8584H12.8808H12.9033H12.9258H12.9483H12.9707H12.9932H13.0157H13.0382H13.0607H13.0831H13.1056H13.1281H13.1506H13.173H13.1955H13.218H13.2405H13.2629H13.2854H13.3079H13.3304H13.3528H13.3753H13.3978H13.4203H13.4428H13.4652H13.4877H13.5102H13.5327H13.5551H13.5776H13.6001H13.6226H13.645H13.6675H13.69H13.7125H13.735H13.7574H13.7799H13.8024H13.8249H13.8473H13.8698H13.8923H13.9148H13.9372H13.9597H13.9822H14.0047H14.0271H14.0496H14.0721H14.0946H14.1171H14.1395H14.162H14.1845H14.207H14.2294H14.2519H14.2744H14.2969H14.3193H14.3418H14.3643H14.3868H14.4092H14.4317H14.4542H14.4767H14.4992H14.5216H14.5441H14.5666H14.5891H14.6115H14.634H14.6565H14.679H14.7014H14.7239H14.7464H14.7689H14.7913H14.8138H14.8363H14.8588H14.8813H14.9037H14.9262H14.9487H14.9712H14.9936H15.0161H15.0386H15.0611H15.0835H15.106H15.1285H15.151H15.1735H15.1959H15.2184H15.2409H15.2634H15.2858H15.3083H15.3308H15.3533H15.3757H15.3982H15.4207H15.4432H15.4656H15.4881H15.5106H15.5331H15.5556H15.578H15.6005H15.623H15.6455H15.6679H15.6904H15.7129H15.7354H15.7578H15.7803H15.8028H15.8253H15.8477H15.8702H15.8927H15.9152H15.9377H15.9601H15.9826H16.0051H16.0276H16.05H16.0725H16.095H16.1175H16.1399H16.1624H16.1849H16.2074H16.2298H16.2523H16.2748H16.2973H16.3198H16.3422H16.3647H16.3872H16.4097H16.4321H16.4546H16.4771H16.4996H16.522H16.5445H16.567H16.5895H16.6119H16.6344H16.6569H16.6794H16.7019H16.7243H16.7468H16.7693H16.7918H16.8142H16.8367H16.8592H16.8817H16.9041H16.9266H16.9491H16.9716H16.9941H17.0165H17.039H17.0615H17.084H17.1064H17.1289H17.1514H17.1739H17.1963H17.2188H17.2413H17.2638H17.2862H17.3087H17.3312H17.3537H17.3762H17.3986H17.4211H17.4436H17.4661H17.4885H17.511H17.5335H17.556H17.5784H17.6009H17.6234H17.6459H17.6683H17.6908H17.7133H17.7358H17.7583H17.7807H17.8032H17.8257H17.8482H17.8706H17.8931H17.9156H17.9381H17.9605H17.983H18.0055H18.028H18.0505H18.0729H18.0954H18.1179H18.1404H18.1628H18.1853H18.2078H18.2303H18.2527H18.2752H18.2977H18.3202H18.3426H18.3651H18.3876H18.4101H18.4326H18.455H18.4775H18.5H18.5225H18.5449H18.5674H18.5899H18.6124H18.6348H18.6573H18.6798H18.7023H18.7247H18.7472H18.7697H18.7922H18.8147H18.8371H18.8596H18.8821H18.9046H18.927H18.9495H18.972H18.9945H19.0169H19.0394H19.0619H19.0844H19.1068H19.1293H19.1518H19.1743H19.1968H19.2192H19.2417H19.2642H19.2867H19.3091H19.3316H19.3541H19.3766H19.399H19.4215H19.444H19.4665H19.4889H19.5114H19.5339H19.5564H19.5789H19.6013H19.6238H19.6463H19.6688H19.6912H19.7137H19.7362H19.7587C19.858 6.91199 19.9043 6.93664 19.9599 7.01259C20.1291 7.24943 20.2985 7.4865 20.468 7.72371C21.2338 8.79532 22.0017 9.86973 22.7571 10.938L22.7571 10.938L22.761 10.9434C22.765 10.9489 22.7753 10.9655 22.8002 11.0219C22.8036 11.0294 22.8075 11.0385 22.8119 11.0487C22.819 11.065 22.8273 11.0843 22.8367 11.1054C22.8342 11.1754 22.8336 11.242 22.8334 11.3042C22.8122 11.377 22.7953 11.4397 22.78 11.4962C22.7471 11.6184 22.722 11.7114 22.6785 11.8132C22.1573 12.9989 20.6377 13.2878 19.7091 12.3753C19.6938 12.3601 19.6796 12.3472 19.6711 12.3394L19.6507 12.3208C19.647 12.3174 19.6451 12.3155 19.6443 12.3147ZM19.6443 12.3147L19.6451 12.3156C19.644 12.3143 19.6435 12.3138 19.6443 12.3147Z" stroke="#7721AD"/>
<path d="M5.8335 12.4293C5.8335 12.4573 5.8335 14.5226 5.8335 14.5973C5.8335 16.4826 5.8335 18.3773 5.8335 20.2626C5.8335 21.1213 6.30016 21.588 7.15883 21.588C10.1455 21.588 13.1228 21.588 16.1095 21.588C16.1748 21.588 16.2402 21.588 16.3428 21.588C16.3428 19.628 16.3428 17.696 16.3428 15.764C17.5188 15.764 18.6668 15.764 19.8428 15.764C19.8428 17.7053 19.8428 19.6373 19.8428 21.588C20.1975 21.588 20.5242 21.588 20.8602 21.588C21.7002 21.588 22.1762 21.112 22.1762 20.2813C22.1762 18.3866 22.1762 16.492 22.1762 14.5973C22.1762 14.532 22.1762 12.4666 22.1762 12.392C22.1388 12.392 22.1108 14.392 22.0922 14.4013M8.17616 19.236C9.73483 19.236 11.2842 19.236 12.8242 19.236C12.8242 18.0693 12.8242 16.912 12.8242 15.7546C11.2655 15.7546 9.7255 15.7546 8.17616 15.7546C8.17616 16.9213 8.17616 18.0693 8.17616 19.236Z" stroke="#7721AD"/>
</g>
<defs>
<clipPath id="clip0_210_28">
<rect width="28" height="28" fill="white"/>
</clipPath>
</defs>
</svg>
