<svg width="28" height="28" viewBox="0 0 28 28" fill="none" xmlns="http://www.w3.org/2000/svg">
<g clip-path="url(#clip0_210_294)">
<path d="M27.832 3.93866C27.3373 1.89466 25.4893 0.270662 23.4173 0.0466616C23.38 0.0466616 23.3333 0.00932829 23.296 -0.00933838C17.0987 -5.04497e-06 10.9013 -5.04497e-06 4.704 -5.04497e-06C4.452 0.055995 4.2 0.102662 3.948 0.167995C1.89467 0.662662 0.270667 2.51066 0.056 4.58266C0.056 4.61999 0.0186667 4.66666 0 4.70399C0 10.9013 0 17.0987 0 23.296C0.056 23.548 0.102667 23.8 0.168 24.052C0.662667 26.096 2.51067 27.72 4.58267 27.944C4.62 27.944 4.66667 27.9813 4.704 28C10.9013 28 17.0987 28 23.296 28C23.66 27.9067 24.0427 27.8507 24.388 27.7293C26.3573 27.0387 27.5147 25.6387 27.9347 23.6133C27.9533 23.5107 27.972 23.408 28 23.3053C28 17.108 28 10.9107 28 4.71333C27.944 4.45199 27.8973 4.19066 27.832 3.93866Z" fill="white"/>
<path d="M12.4785 7.79338C12.4785 7.69071 12.4132 7.64404 12.3012 7.64404H12.0679V7.94271H12.3012C12.4132 7.94271 12.4785 7.89604 12.4785 7.79338Z" fill="#757575"/>
<path d="M12.3199 8.20404H12.0679V8.52137H12.3292C12.4505 8.52137 12.5159 8.46537 12.5159 8.36271C12.5159 8.26004 12.4412 8.20404 12.3199 8.20404Z" fill="#757575"/>
<path d="M21.9052 6.34668H6.0945C5.3105 6.34668 4.6665 6.99068 4.6665 7.77468V8.28801C4.6665 9.08135 5.3105 9.71601 6.0945 9.71601H21.9052C22.6985 9.71601 23.3332 9.07201 23.3332 8.28801V7.77468C23.3332 6.99068 22.6892 6.34668 21.9052 6.34668ZM12.3852 8.80135H11.7132V7.36401H12.3665C12.6558 7.36401 12.8332 7.51335 12.8332 7.73735C12.8332 7.91468 12.7305 8.02668 12.5905 8.06401C12.7585 8.10135 12.8705 8.25068 12.8705 8.40935C12.8705 8.65201 12.6932 8.80135 12.3852 8.80135ZM14.3732 8.22268C14.3732 8.62401 14.0932 8.82001 13.7572 8.82001C13.4212 8.82001 13.1598 8.62401 13.1598 8.22268V7.36401H13.5145V8.22268C13.5145 8.39068 13.5985 8.49335 13.7665 8.49335C13.9345 8.49335 14.0185 8.39068 14.0185 8.22268V7.36401H14.3732V8.22268ZM15.4652 8.32535V8.80135H15.1105V8.32535L14.6158 7.36401H15.0172L15.2972 7.97068L15.5772 7.36401H15.9692L15.4652 8.32535Z" fill="#757575"/>
<path d="M9.97705 13.3187H10.3317L10.1544 12.7867L9.97705 13.3187Z" fill="#757575"/>
<path d="M16.2399 12.684H16.0532V13.048H16.2399C16.3799 13.048 16.4359 12.9826 16.4359 12.8706C16.4359 12.7586 16.3706 12.684 16.2399 12.684Z" fill="#757575"/>
<path d="M21.9052 11.3773H6.0945C5.30117 11.3773 4.6665 12.0213 4.6665 12.8053V13.3187C4.6665 14.112 5.3105 14.7467 6.0945 14.7467H21.9052C22.6985 14.7467 23.3332 14.1027 23.3332 13.3187V12.8053C23.3332 12.0213 22.6892 11.3773 21.9052 11.3773ZM10.5092 13.8413L10.4252 13.5893H9.89317L9.80917 13.8413H9.44517L9.96784 12.404H10.3785L10.9012 13.8413H10.5092ZM11.8065 13.5333C11.9372 13.5333 12.0492 13.468 12.1052 13.3467H12.4878C12.4038 13.6547 12.1425 13.8507 11.8065 13.8507C11.3772 13.8507 11.0785 13.552 11.0785 13.1133C11.0785 12.6747 11.3772 12.376 11.8065 12.376C12.1518 12.376 12.4038 12.572 12.4878 12.88H12.1052C12.0492 12.7587 11.9372 12.6933 11.8065 12.6933C11.5918 12.6933 11.4425 12.852 11.4425 13.104C11.4425 13.356 11.5918 13.5333 11.8065 13.5333ZM13.4772 13.5333C13.6078 13.5333 13.7198 13.468 13.7758 13.3467H14.1585C14.0745 13.6547 13.8132 13.8507 13.4772 13.8507C13.0478 13.8507 12.7492 13.552 12.7492 13.1133C12.7492 12.6747 13.0478 12.376 13.4772 12.376C13.8225 12.376 14.0745 12.572 14.1585 12.88H13.7758C13.7198 12.7587 13.6078 12.6933 13.4772 12.6933C13.2625 12.6933 13.1132 12.852 13.1132 13.104C13.1132 13.356 13.2625 13.5333 13.4772 13.5333ZM15.3625 12.684H14.8305V12.9733H15.2972V13.244H14.8305V13.5613H15.3625V13.8413H14.4758V12.404H15.3625V12.684ZM16.2585 13.328H16.0438V13.8413H15.6892V12.404H16.2585C16.6132 12.404 16.7905 12.6 16.7905 12.8707C16.7905 13.104 16.6318 13.328 16.2585 13.328ZM18.1158 12.684H17.7332V13.8413H17.3785V12.684H16.9958V12.404H18.1065V12.684H18.1158Z" fill="#757575"/>
<path d="M10.537 17.7427C10.3036 17.7427 10.1543 17.9013 10.1543 18.1627C10.1543 18.4147 10.3036 18.5827 10.537 18.5827C10.7703 18.5827 10.9196 18.4147 10.9196 18.1627C10.9103 17.9013 10.761 17.7427 10.537 17.7427Z" fill="#757575"/>
<path d="M19.0213 17.7427C18.788 17.7427 18.6387 17.9013 18.6387 18.1627C18.6387 18.4147 18.788 18.5827 19.0213 18.5827C19.2547 18.5827 19.404 18.4147 19.404 18.1627C19.404 17.9013 19.2547 17.7427 19.0213 17.7427Z" fill="#757575"/>
<path d="M12.1331 17.7333H11.9185V18.088H12.1331C12.2638 18.088 12.3291 18.0227 12.3291 17.9107C12.3291 17.808 12.2731 17.7333 12.1331 17.7333Z" fill="#757575"/>
<path d="M21.9052 16.408H6.0945C5.30117 16.408 4.6665 17.052 4.6665 17.836V18.3494C4.6665 19.1427 5.3105 19.7774 6.0945 19.7774H21.9052C22.6985 19.7774 23.3332 19.1334 23.3332 18.3494V17.836C23.3332 17.052 22.6892 16.408 21.9052 16.408ZM9.50117 18.8814H9.1465V18.0134L8.81984 18.8814H8.53984L8.21317 18.0134V18.8814H7.8585V17.444H8.26917L8.6705 18.4427L9.07184 17.444H9.4825V18.8814H9.50117ZM10.5372 18.9C10.1265 18.9 9.79984 18.592 9.79984 18.1627C9.79984 17.7334 10.1358 17.4254 10.5372 17.4254C10.9478 17.4254 11.2745 17.7334 11.2745 18.1627C11.2745 18.592 10.9385 18.9 10.5372 18.9ZM12.3012 18.8814L12.0025 18.34H11.9185V18.8814H11.5638V17.444H12.1518C12.5065 17.444 12.6838 17.6494 12.6838 17.9014C12.6838 18.0787 12.5812 18.256 12.3665 18.3214L12.7025 18.8907H12.3012V18.8814ZM13.8972 17.724H13.3652V18.0134H13.8318V18.284H13.3652V18.6014H13.8972V18.8814H13.0105V17.444H13.8972V17.724ZM15.1105 18.8814H14.7558V17.444H15.1105V18.8814ZM16.7625 18.8814H16.4078L15.8198 17.9947V18.8814H15.4652V17.444H15.8198L16.4078 18.34V17.444H16.7625V18.8814ZM18.0505 17.724H17.4625V18.032H17.9012V18.3027H17.4625V18.8814H17.1078V17.444H18.0505V17.724ZM19.0212 18.9C18.6105 18.9 18.2838 18.592 18.2838 18.1627C18.2838 17.7334 18.6198 17.4254 19.0212 17.4254C19.4318 17.4254 19.7585 17.7334 19.7585 18.1627C19.7585 18.592 19.4318 18.9 19.0212 18.9Z" fill="#757575"/>
<path d="M18.0318 11.3214C15.0638 11.3214 12.6558 13.7293 12.6558 16.6973C12.6558 17.8733 13.0384 18.9654 13.6824 19.8427L13.0104 21.84L15.0731 21.1773C15.9224 21.7373 16.9398 22.064 18.0318 22.064C20.9904 22.064 23.4078 19.656 23.4078 16.688C23.4078 13.72 20.9904 11.3214 18.0318 11.3214Z" fill="#7721AD"/>
<path d="M21.1586 18.9093C21.0279 19.2733 20.5146 19.5813 20.1039 19.6653C19.8239 19.7213 19.4599 19.7773 18.2186 19.264C16.6413 18.6107 15.6239 17.0053 15.5399 16.9027C15.4653 16.8 14.9053 16.0533 14.9053 15.2787C14.9053 14.504 15.2973 14.1307 15.4559 13.972C15.5866 13.8413 15.8013 13.776 16.0066 13.776C16.0719 13.776 16.1373 13.776 16.1839 13.7853C16.3426 13.7947 16.4173 13.804 16.5293 14.0467C16.6599 14.3547 16.9773 15.1293 17.0146 15.2133C17.0519 15.288 17.0893 15.4 17.0333 15.5027C16.9866 15.6147 16.9399 15.6613 16.8559 15.7453C16.7719 15.8293 16.6973 15.904 16.6226 16.0067C16.5479 16.0907 16.4639 16.184 16.5573 16.3427C16.6506 16.5013 16.9679 17.0147 17.4253 17.4253C18.0226 17.9573 18.5079 18.1253 18.6853 18.2C18.8159 18.256 18.9653 18.2373 19.0679 18.144C19.1893 18.0133 19.3386 17.7987 19.4879 17.584C19.5999 17.4347 19.7306 17.416 19.8706 17.4627C20.0199 17.5093 20.7853 17.892 20.9439 17.9667C21.1026 18.0413 21.2053 18.088 21.2426 18.1533C21.2893 18.228 21.2893 18.536 21.1586 18.9093Z" fill="white"/>
</g>
<defs>
<clipPath id="clip0_210_294">
<rect width="28" height="28" fill="white"/>
</clipPath>
</defs>
</svg>
