<svg width="28" height="28" viewBox="0 0 28 28" fill="none" xmlns="http://www.w3.org/2000/svg">
<g clip-path="url(#clip0_210_255)">
<path d="M27.83 3.93994C27.5708 2.92352 27.0115 2.00882 26.2249 1.31494C25.4382 0.621062 24.4609 0.1803 23.42 0.0500488C23.3756 0.0404637 23.3344 0.0197681 23.3 -0.0100098H4.69995C4.44995 0.0499902 4.19995 0.0900342 3.94995 0.160034C2.93159 0.415392 2.0147 0.973514 1.32019 1.76086C0.62568 2.54821 0.186317 3.52768 0.0600586 4.56995C0.0504735 4.61436 0.0297778 4.65563 0 4.68994V23.29C0.06 23.54 0.100044 23.79 0.170044 24.04C0.429183 25.0565 0.988512 25.9712 1.77515 26.665C2.56178 27.3589 3.53914 27.7998 4.57996 27.9301C4.62437 27.9396 4.66564 27.9602 4.69995 27.99H23.3C23.66 27.9 24.04 27.84 24.39 27.72C25.3036 27.4283 26.1184 26.8887 26.7434 26.1613C27.3684 25.4338 27.7792 24.5471 27.9301 23.6C27.9301 23.5 27.93 23.4 28 23.3V4.69995C27.94 4.44995 27.9 4.18994 27.83 3.93994Z" fill="white"/>
<path d="M22.2233 8.11723V13.9026C22.1812 13.8605 22.1353 13.8184 22.0902 13.7796C21.7401 13.4666 21.396 13.1478 21.0371 12.8461C20.9284 12.7552 20.8715 12.6776 20.8757 12.5315C20.8871 12.13 20.8795 11.7277 20.8795 11.3233H6.34778V20.0621C6.34778 20.6097 6.60052 20.8663 7.14815 20.8663C8.88579 20.8663 10.6239 20.8743 12.3615 20.8587C12.6458 20.8561 12.8438 20.9151 12.9651 21.178C12.9948 21.2323 13.0327 21.2816 13.0776 21.3242C13.3565 21.6213 13.6363 21.9173 13.9172 22.2121H6.78504L6.57441 22.1607C5.62913 21.9333 5.004 21.1426 5.00232 20.1577C4.99923 18.3304 4.99923 16.5031 5.00232 14.676C5.00232 12.5794 5.00232 10.4829 5.00232 8.38682C5.00232 7.40237 5.62702 6.594 6.57651 6.39306C6.91646 6.32145 7.27789 6.35094 7.62963 6.33367C7.69366 6.33072 7.75601 6.33367 7.83394 6.33367V5H9.17561V6.3244H18.0559V5H19.4039V6.33367C19.695 6.33367 19.9743 6.32524 20.2527 6.33367C20.9023 6.35684 21.4242 6.63233 21.8227 7.14667C22.0447 7.43565 22.1471 7.77012 22.2233 8.11723ZM18.0563 7.69219H9.16802V9.01532H7.82003V7.67913C7.54959 7.67913 7.29769 7.67576 7.04621 7.67913C6.63044 7.68587 6.35199 7.96347 6.34735 8.37966C6.34314 8.78911 6.34735 9.19857 6.34735 9.6076V9.95428H20.8753C20.8753 9.39908 20.8837 8.85567 20.8724 8.31142C20.8703 8.15765 20.8122 8.00993 20.7089 7.89594C20.6057 7.78194 20.4645 7.7095 20.3117 7.69219C20.0139 7.66523 19.7114 7.68671 19.3925 7.68671V9.01448H18.0563V7.69219Z" fill="#757575"/>
<path d="M17.3461 22.2121C16.9071 22.1072 16.4484 22.052 16.033 21.8877C14.6514 21.3401 13.7137 20.3409 13.3265 18.9066C12.8341 17.0822 13.316 15.4945 14.7284 14.24C15.7546 13.3276 16.9868 12.9763 18.3478 13.1894C19.9818 13.4443 21.147 14.355 21.829 15.8525C22.0135 16.2578 22.0746 16.7195 22.1904 17.1559C22.206 17.214 22.2127 17.2747 22.2233 17.3341V18.0081C22.1664 18.3029 22.1331 18.6058 22.0484 18.8927C21.6272 20.3186 20.7283 21.3317 19.3474 21.8835C18.9262 22.052 18.4628 22.1081 18.0188 22.2155L17.3461 22.2121ZM17.681 20.8641C18.5222 20.8561 19.3263 20.5166 19.9188 19.9195C20.5113 19.3223 20.8445 18.5156 20.846 17.6744C20.8475 16.8331 20.5172 16.0252 19.9268 15.426C19.3364 14.8267 18.5335 14.4844 17.6923 14.4734C15.937 14.4654 14.4909 15.9027 14.4879 17.6631C14.485 19.4234 15.9214 20.8645 17.681 20.8658V20.8641Z" fill="#8A1BB1"/>
<path d="M7.56641 14.059V12.7341H8.89124V14.059H7.56641Z" fill="#8A1BB1"/>
<path d="M11.588 12.7379V14.061H10.2573V12.7379H11.588Z" fill="#8A1BB1"/>
<path d="M14.2785 12.7374V14.0614H12.9541V12.7374H14.2785Z" fill="#8A1BB1"/>
<path d="M7.56494 16.7494V15.4263H8.89524V16.7494H7.56494Z" fill="#8A1BB1"/>
<path d="M10.2573 16.7502V15.4254H11.583V16.7502H10.2573Z" fill="#8A1BB1"/>
<path d="M7.5708 18.1151H8.8952V19.4399H7.5708V18.1151Z" fill="#8A1BB1"/>
<path d="M11.5886 18.121V19.4433H10.2583V18.121H11.5886Z" fill="#8A1BB1"/>
<path d="M16.9883 15.4246H18.3181V16.992H19.4555V18.3295H16.9883V15.4246Z" fill="#8A1BB1"/>
</g>
<defs>
<clipPath id="clip0_210_255">
<rect width="28" height="28" fill="white"/>
</clipPath>
</defs>
</svg>
