<svg width="28" height="28" viewBox="0 0 28 28" fill="none" xmlns="http://www.w3.org/2000/svg">
<g clip-path="url(#clip0_210_6)">
<path d="M27.832 3.93867C27.3373 1.89467 25.4893 0.270669 23.4173 0.0466692C23.38 0.0466692 23.3333 0.00933592 23.296 -0.00933075C17.0987 2.58349e-06 10.9013 2.58349e-06 4.704 2.58349e-06C4.452 0.0560026 4.2 0.102669 3.948 0.168003C1.89467 0.662669 0.270667 2.51067 0.056 4.58267C0.056 4.62 0.0186667 4.66667 0 4.704C0 10.9013 0 17.0987 0 23.296C0.056 23.548 0.102667 23.8 0.168 24.052C0.662667 26.096 2.51067 27.72 4.58267 27.944C4.62 27.944 4.66667 27.9813 4.704 28C10.9013 28 17.0987 28 23.296 28C23.66 27.9067 24.0427 27.8507 24.388 27.7293C26.3573 27.0387 27.5147 25.6387 27.9347 23.6133C27.9533 23.5107 27.972 23.408 28 23.3053C28 17.108 28 10.9107 28 4.71334C27.944 4.452 27.8973 4.19067 27.832 3.93867Z" fill="white"/>
<path d="M13.4933 20.8667C12.8493 20.8667 12.2053 20.8667 11.5613 20.8667C11.0387 20.8667 10.5253 20.8667 10.0027 20.8667H9.48933C9.368 20.3907 9.13467 20.008 8.78933 19.6907C8.51867 19.448 8.192 19.2707 7.79067 19.168V9.49867C8.26667 9.37733 8.668 9.13467 8.976 8.78C9.21867 8.50933 9.37733 8.192 9.48 7.8H14.1747C14.212 7.8 14.2493 7.8 14.2867 7.8L14.548 7.79067L14.5387 6.288H13.8947C12.364 6.288 10.8333 6.288 9.30267 6.288C9.29333 6.27867 9.29333 6.26933 9.284 6.26C9.02267 5.756 8.63067 5.40133 8.12667 5.18667C7.996 5.13067 7.86533 5.10267 7.744 5.06533C7.688 5.04667 7.64133 5.03733 7.58533 5.01867L7.576 5H6.94133L6.81067 5.03733C6.736 5.056 6.67067 5.084 6.596 5.10267C5.80267 5.37333 5.28933 5.91467 5.07467 6.71733C5.06533 6.736 5.056 6.764 5.04667 6.792C5.03733 6.81067 5.028 6.82933 5.01867 6.848L5 6.88533V7.65067L5.00933 7.688C5.01867 7.70667 5.028 7.73467 5.03733 7.75333C5.056 7.79067 5.06533 7.828 5.07467 7.86533C5.24267 8.46267 5.59733 8.92933 6.12 9.23733L6.27867 9.33067C6.27867 9.34933 6.27867 9.37733 6.27867 9.396C6.27867 12.6813 6.27867 15.976 6.27867 19.2613C6.27867 19.2893 6.27867 19.308 6.27867 19.336C5.77467 19.5787 5.40133 19.98 5.168 20.512C5.12133 20.624 5.084 20.7267 5.056 20.8387C5.03733 20.8853 5.028 20.932 5.00933 20.9787L5 21.016V21.7813L5.01867 21.828C5.028 21.8467 5.03733 21.856 5.03733 21.8747C5.04667 21.884 5.04667 21.8933 5.04667 21.9027C5.31733 22.8733 5.94267 23.452 6.904 23.6387C6.904 23.6387 6.91333 23.6387 6.91333 23.648L6.96933 23.676H7.604L7.64133 23.6573C7.65067 23.648 7.66933 23.648 7.67867 23.6387C7.688 23.6387 7.69733 23.6293 7.69733 23.6293C8.34133 23.4893 8.84533 23.144 9.19067 22.5933C9.23733 22.528 9.27467 22.4533 9.312 22.388C10.8427 22.388 12.364 22.388 13.8947 22.388H14.5387L14.548 20.876L13.4933 20.8667Z" fill="#757575"/>
<path d="M12.8373 17.1493V18.6613H14.7413V10H14.3027C12.9587 10 11.6147 10 10.2707 10C10.2053 10 10.1587 10.0187 10.14 10.0373L10 10.0933V12.408H11.512V11.54H13.7427V17.1587H12.8373V17.1493Z" fill="#7721AD"/>
<path d="M22.316 19.3547C22.3067 19.3547 22.3067 19.3453 22.2973 19.3453C22.2973 19.308 22.2973 19.2707 22.2973 19.2427C22.2973 16.228 22.2973 13.2133 22.2973 10.1893V9.32133C22.2973 9.32133 22.2973 9.32133 22.3067 9.32133C23.156 8.87333 23.5947 8.14533 23.5667 7.212C23.5387 6.30667 23.0813 5.616 22.232 5.20533C22.092 5.14 21.952 5.10267 21.812 5.056C21.756 5.03733 21.7 5.028 21.6347 5.00933L21.5973 5H21L20.8973 5.028C20.8507 5.03733 20.804 5.056 20.7573 5.06533C20.0853 5.23333 19.572 5.644 19.2453 6.26933H18.3587C17.36 6.26933 16.3707 6.26933 15.372 6.26933C15.1107 6.26933 14.8493 6.26933 14.588 6.26933H14L14.0093 7.78133H15.0733C15.8293 7.78133 16.5853 7.78133 17.3413 7.78133C17.4907 7.78133 17.64 7.78133 17.7987 7.78133C18.088 7.78133 18.3773 7.78133 18.6667 7.78133H19.068C19.1987 8.26667 19.432 8.65867 19.7867 8.96667C20.048 9.2 20.3747 9.368 20.7667 9.47067V19.14C20.2907 19.2613 19.8987 19.4947 19.5907 19.84C19.348 20.1107 19.18 20.4373 19.068 20.8387L14.0093 20.848L14 22.3507L14.2893 22.36C14.3453 22.36 14.392 22.36 14.448 22.36C15.9413 22.36 17.444 22.36 18.9373 22.36H19.2453C19.4973 22.8547 19.8707 23.2093 20.356 23.424C20.4773 23.48 20.5987 23.5173 20.72 23.564C20.776 23.5827 20.8227 23.6013 20.8787 23.62L20.916 23.6293H21.5693L21.6067 23.6107C21.616 23.6013 21.6347 23.6013 21.644 23.592H21.6533C22.68 23.424 23.408 22.6587 23.548 21.5947C23.688 20.7173 23.1747 19.784 22.316 19.3547Z" fill="#757575"/>
<path d="M18.7599 12.4573V10.0587H14.0186V18.7107H15.9132V17.1893H15.0079V11.58H17.2572V12.4573H18.7599Z" fill="#7721AD"/>
</g>
<defs>
<clipPath id="clip0_210_6">
<rect width="28" height="28" fill="white"/>
</clipPath>
</defs>
</svg>
