<?xml version="1.0" encoding="utf-8"?>
<!-- Generator: Adobe Illustrator 26.0.0, SVG Export Plug-In . SVG Version: 6.00 Build 0)  -->
<svg version="1.1" id="Capa_1" xmlns="http://www.w3.org/2000/svg" xmlns:xlink="http://www.w3.org/1999/xlink" x="0px" y="0px"
	 viewBox="0 0 28 29" style="enable-background:new 0 0 28 29;" xml:space="preserve">
<style type="text/css">
	.st0{fill:#FFFFFF;stroke:#929292;stroke-miterlimit:10;}
	.st1{fill:#7721AD;}
</style>
<g>
	<path class="st0" d="M23.1,14.4v7.9c0,0.2-0.1,0.3-0.1,0.4c-0.1,0.3-0.4,0.6-0.6,0.8c-0.3,0.2-0.6,0.3-1,0.2h-12
		c-0.3,0-0.7-0.1-1-0.3c-0.3-0.2-0.5-0.5-0.6-0.8l-0.1-0.3v-7.9l0.2,0.1l6.1,4.1c0.4,0.3,0.9,0.4,1.4,0.4s1-0.2,1.4-0.4l6.2-4.1
		L23.1,14.4z"/>
	<path class="st0" d="M7.8,13.4c0.1-0.3,0.3-0.6,0.6-0.8c0.3-0.2,0.6-0.3,0.9-0.3h12c0.3,0,0.7,0.1,0.9,0.3c0.3,0.2,0.5,0.4,0.6,0.7
		l0.1,0.2l-0.1,0.1l-6.6,4.4c-0.3,0.2-0.5,0.3-0.9,0.3c-0.3,0-0.6-0.1-0.9-0.3l-6.6-4.4C7.9,13.5,7.9,13.4,7.8,13.4z"/>
	<path class="st1" d="M5.2,16.2h0.2c0.1,0,0.2-0.1,0.2-0.1c0.1-0.1,0.1-0.1,0.1-0.2c0.2-0.6,0.4-1.1,0.8-1.6
		c0.5-0.8,1.3-1.4,2.2-1.8C9.3,12.2,10,12,10.8,12l0.9-0.1v1.9c0,0.1,0,0.2,0.1,0.3c0,0,0.1,0.1,0.1,0.1c0.1,0,0.1,0,0.2,0
		c0.1,0,0.1,0,0.2,0c0.1,0,0.1-0.1,0.1-0.1c1.1-1.4,2.3-2.8,3.4-4.2L16,9.6V9.5c-0.1-0.1-0.1-0.2-0.2-0.3c-0.1-0.1-0.3-0.3-0.4-0.5
		c-1-1.1-2-2.2-3-3.3l-0.1-0.1c-0.1,0-0.1-0.1-0.2-0.1s-0.1,0-0.2,0.1c-0.1,0-0.1,0.1-0.2,0.2c0,0.1-0.1,0.1-0.1,0.2v2
		c-0.2,0-0.4,0-0.6,0.1c-0.9,0.1-1.7,0.4-2.5,0.9c-1.3,0.8-2.3,2-2.9,3.5c-0.5,1.2-0.8,2.5-0.8,3.8c0,0.1,0,0.2,0.1,0.3
		C5,16.2,5.1,16.2,5.2,16.2z"/>
</g>
</svg>
