<svg width="28" height="28" viewBox="0 0 28 28" fill="none" xmlns="http://www.w3.org/2000/svg">
<g clip-path="url(#clip0_210_223)">
<path d="M27.832 3.93866C27.3373 1.89466 25.4893 0.270662 23.4173 0.0466616C23.38 0.0466616 23.3333 0.00932829 23.296 -0.00933838C17.0987 -5.04497e-06 10.9013 -5.04497e-06 4.704 -5.04497e-06C4.452 0.055995 4.2 0.102662 3.948 0.167995C1.89467 0.662662 0.270667 2.51066 0.056 4.58266C0.056 4.61999 0.0186667 4.66666 0 4.70399C0 10.9013 0 17.0987 0 23.296C0.056 23.548 0.102667 23.8 0.168 24.052C0.662667 26.096 2.51067 27.72 4.58267 27.944C4.62 27.944 4.66667 27.9813 4.704 28C10.9013 28 17.0987 28 23.296 28C23.66 27.9067 24.0427 27.8507 24.388 27.7293C26.3573 27.0387 27.5147 25.6387 27.9347 23.6133C27.9533 23.5107 27.972 23.408 28 23.3053C28 17.108 28 10.9107 28 4.71333C27.944 4.45199 27.8973 4.19066 27.832 3.93866Z" fill="white"/>
<path d="M8.6985 7.93332H5.1145C4.8625 7.93332 4.6665 8.13865 4.6665 8.39999V19.6C4.6665 19.8613 4.87184 20.0667 5.1145 20.0667H8.6985C8.9505 20.0667 9.1465 19.8613 9.1465 19.6V8.39999C9.1465 8.13865 8.9505 7.93332 8.6985 7.93332ZM8.17584 19.0307H5.63717C5.46917 19.0307 5.32917 18.8907 5.32917 18.7133C5.32917 18.536 5.46917 18.396 5.63717 18.396H8.17584C8.34384 18.396 8.48384 18.536 8.48384 18.7133C8.48384 18.8907 8.35317 19.0307 8.17584 19.0307ZM8.17584 17.4907H5.63717C5.46917 17.4907 5.32917 17.3507 5.32917 17.1733C5.32917 16.996 5.46917 16.856 5.63717 16.856H8.17584C8.34384 16.856 8.48384 16.996 8.48384 17.1733C8.48384 17.3507 8.35317 17.4907 8.17584 17.4907ZM8.17584 15.9507H5.63717C5.46917 15.9507 5.32917 15.8107 5.32917 15.6333C5.32917 15.456 5.46917 15.316 5.63717 15.316H8.17584C8.34384 15.316 8.48384 15.456 8.48384 15.6333C8.48384 15.8107 8.35317 15.9507 8.17584 15.9507Z" fill="#757575"/>
<path d="M17.3414 4.66666H10.6681C10.2107 4.66666 9.8374 4.98399 9.8374 5.38532V22.6147C9.8374 23.0067 10.2107 23.3333 10.6681 23.3333H17.3414C17.7987 23.3333 18.1721 23.016 18.1721 22.6147V5.38532C18.1721 4.98399 17.7987 4.66666 17.3414 4.66666ZM16.3707 21.7373H11.6387C11.3214 21.7373 11.0601 21.5227 11.0601 21.252C11.0601 20.9813 11.3214 20.7667 11.6387 20.7667H16.3707C16.6881 20.7667 16.9494 20.9813 16.9494 21.252C16.9494 21.5227 16.6881 21.7373 16.3707 21.7373ZM16.3707 19.3667H11.6387C11.3214 19.3667 11.0601 19.152 11.0601 18.8813C11.0601 18.6107 11.3214 18.396 11.6387 18.396H16.3707C16.6881 18.396 16.9494 18.6107 16.9494 18.8813C16.9494 19.152 16.6881 19.3667 16.3707 19.3667ZM16.3707 16.996H11.6387C11.3214 16.996 11.0601 16.7813 11.0601 16.5107C11.0601 16.24 11.3214 16.0253 11.6387 16.0253H16.3707C16.6881 16.0253 16.9494 16.24 16.9494 16.5107C16.9494 16.7813 16.6881 16.996 16.3707 16.996Z" fill="#7721AD"/>
<path d="M22.885 7.93332H19.301C19.049 7.93332 18.853 8.13865 18.853 8.39999V19.6C18.853 19.8613 19.0584 20.0667 19.301 20.0667H22.885C23.137 20.0667 23.333 19.8613 23.333 19.6V8.39999C23.333 8.13865 23.1277 7.93332 22.885 7.93332ZM22.3624 19.0307H19.8237C19.6557 19.0307 19.5157 18.8907 19.5157 18.7133C19.5157 18.536 19.6557 18.396 19.8237 18.396H22.3624C22.5304 18.396 22.6704 18.536 22.6704 18.7133C22.6704 18.8907 22.5304 19.0307 22.3624 19.0307ZM22.3624 17.4907H19.8237C19.6557 17.4907 19.5157 17.3507 19.5157 17.1733C19.5157 16.996 19.6557 16.856 19.8237 16.856H22.3624C22.5304 16.856 22.6704 16.996 22.6704 17.1733C22.6704 17.3507 22.5304 17.4907 22.3624 17.4907ZM22.3624 15.9507H19.8237C19.6557 15.9507 19.5157 15.8107 19.5157 15.6333C19.5157 15.456 19.6557 15.316 19.8237 15.316H22.3624C22.5304 15.316 22.6704 15.456 22.6704 15.6333C22.6704 15.8107 22.5304 15.9507 22.3624 15.9507Z" fill="#757575"/>
</g>
<defs>
<clipPath id="clip0_210_223">
<rect width="28" height="28" fill="white"/>
</clipPath>
</defs>
</svg>
