<svg width="28" height="28" viewBox="0 0 28 28" fill="none" xmlns="http://www.w3.org/2000/svg">
<g clip-path="url(#clip0_210_239)">
<path d="M27.83 3.94006C27.5708 2.92364 27.0115 2.00888 26.2249 1.315C25.4382 0.621123 24.4609 0.1803 23.42 0.0500488C23.3756 0.0404637 23.3344 0.0198291 23.3 -0.00994873H4.69995C4.44995 0.0500513 4.19995 0.0900342 3.94995 0.160034C2.93159 0.415392 2.0147 0.973637 1.32019 1.76099C0.62568 2.54834 0.186317 3.5278 0.0600586 4.57007C0.0504735 4.61448 0.0297778 4.65575 0 4.69006V23.29C0.06 23.54 0.100044 23.79 0.170044 24.04C0.429183 25.0565 0.988512 25.9713 1.77515 26.6652C2.56178 27.359 3.53914 27.7998 4.57996 27.9301C4.62437 27.9396 4.66564 27.9603 4.69995 27.9901H23.3C23.66 27.9001 24.04 27.84 24.39 27.72C25.3036 27.4283 26.1184 26.8887 26.7434 26.1613C27.3684 25.4339 27.7792 24.5472 27.9301 23.6C27.9301 23.5 27.93 23.4 28 23.3V4.70007C27.94 4.45007 27.9 4.19006 27.83 3.94006Z" fill="white"/>
<path d="M23.04 10.8045C22.8936 11.4225 22.742 12.0397 22.6007 12.6584C22.2888 13.9998 21.9781 15.3421 21.6686 16.6855C21.5054 17.3877 20.9797 17.8116 20.254 17.8131C17.9491 17.8131 15.6441 17.8131 13.3392 17.8131C12.0878 17.8131 10.8365 17.8087 9.58446 17.8131C9.10488 17.8131 8.82152 18.1382 8.90865 18.5716C8.9318 18.6974 8.99552 18.8122 9.09005 18.8984C9.18459 18.9846 9.30474 19.0375 9.43216 19.049C9.52467 19.0571 9.61758 19.06 9.71042 19.0578H20.5286C20.5843 19.0578 20.6399 19.0578 20.6955 19.0578C20.8206 19.0568 20.9424 19.0968 21.0424 19.1718C21.1425 19.2469 21.2151 19.3527 21.2491 19.4729C21.315 19.7182 21.2139 19.9525 20.9752 20.1048C20.9547 20.118 20.9335 20.1297 20.902 20.1495C21.1319 20.6701 21.1634 21.2002 20.9526 21.7325C20.8088 22.0983 20.5553 22.4106 20.2269 22.6265C19.9002 22.8443 19.5156 22.9587 19.1229 22.9551C18.7303 22.9514 18.3478 22.8298 18.0252 22.606C17.2703 22.073 17.0631 21.3386 17.3487 20.1839H13.8766C14.2244 21.168 14.0406 22.0144 13.1664 22.6221C12.4818 23.0966 11.7269 23.0988 11.0364 22.6375C10.1439 22.0415 9.95716 21.1863 10.3042 20.17C10.037 20.17 9.78509 20.17 9.53395 20.17C8.62895 20.1554 7.93043 19.5564 7.79205 18.6792C7.75936 18.4507 7.77258 18.2179 7.83095 17.9946C7.88932 17.7712 7.99166 17.5617 8.13198 17.3783C8.27229 17.195 8.44779 17.0415 8.64816 16.9268C8.84853 16.8121 9.06976 16.7385 9.29891 16.7104L9.43878 16.6913C9.4234 16.6181 9.41241 16.5537 9.39484 16.49C8.57282 13.4562 7.75178 10.4262 6.93172 7.39976C6.86582 7.15521 6.82261 7.12153 6.5722 7.1208C5.95276 7.1208 5.33261 7.11274 4.71318 7.1208C4.37124 7.12739 4.1274 7.01097 4 6.68148V6.42228C4.11422 6.16601 4.28847 5.99907 4.59087 6.00054C5.28499 6.0042 5.98206 5.99468 6.67252 6.00493C7.33149 6.01518 7.80815 6.39226 7.98461 7.03C8.19011 7.77392 8.39124 8.51905 8.58795 9.2654C8.62164 9.39646 8.67287 9.44186 8.81126 9.44259C11.3451 9.44845 13.8793 9.45772 16.4137 9.47041C18.229 9.47871 20.0444 9.4875 21.8597 9.49677C22.4455 9.50044 22.8445 9.80356 23.0056 10.3637C23.0142 10.3863 23.0247 10.4081 23.0371 10.4289L23.04 10.8045ZM9.62472 13.0853H11.7723C11.776 13.027 11.776 12.9685 11.7723 12.9103C11.6749 12.17 11.5724 11.4305 11.4794 10.6895C11.4625 10.5533 11.3769 10.5738 11.2941 10.5731C10.7186 10.5697 10.1431 10.5672 9.56762 10.5658C9.367 10.5658 9.16636 10.5658 8.94597 10.5658L9.62472 13.0853ZM16.1764 13.0801C16.2025 13.0874 16.2293 13.0923 16.2562 13.0948C16.894 13.0948 17.531 13.0948 18.168 13.0984C18.2917 13.0984 18.3057 13.0333 18.3144 12.9381C18.3877 12.3933 18.4609 11.8493 18.5305 11.3053C18.5605 11.0754 18.5868 10.8455 18.6161 10.6031H16.1735L16.1764 13.0801ZM12.9211 13.0845H15.0386V10.5892H12.5872C12.6992 11.4268 12.8098 12.2564 12.9211 13.0845ZM19.4237 13.0845H21.356C21.5464 12.263 21.7345 11.4473 21.9293 10.6061C21.2213 10.6061 20.5345 10.6061 19.8484 10.6112C19.8096 10.6112 19.7459 10.6844 19.7378 10.7364C19.6822 11.09 19.6375 11.4459 19.5914 11.801C19.5335 12.2235 19.4801 12.6452 19.4237 13.086V13.0845ZM9.93812 14.2092C9.95496 14.2824 9.96375 14.3344 9.9762 14.3813C10.1285 14.9465 10.2822 15.5118 10.4331 16.077C10.5993 16.6972 10.54 16.7067 11.2385 16.6987C11.5768 16.6943 11.915 16.6987 12.2636 16.6987C12.2655 16.6609 12.2655 16.623 12.2636 16.5852C12.164 15.8266 12.0644 15.0681 11.9597 14.3102C11.9523 14.2873 11.9393 14.2665 11.922 14.2498C11.9046 14.233 11.8833 14.2209 11.8601 14.2143C11.2253 14.2092 10.5927 14.2092 9.93812 14.2092ZM16.1764 14.2172V16.6987C16.7058 16.6987 17.2235 16.6987 17.7419 16.6928C17.7734 16.6928 17.8253 16.6152 17.8319 16.5676C17.9095 16.0243 17.9784 15.4795 18.0516 14.9348C18.0823 14.6998 18.1094 14.464 18.1394 14.2194L16.1764 14.2172ZM15.0386 16.6877V14.2202H13.0712C13.1825 15.0505 13.2908 15.8676 13.4014 16.6877H15.0386ZM18.9463 16.6979C19.3856 16.6979 19.8066 16.6979 20.2262 16.6979C20.4524 16.6979 20.5345 16.6247 20.5857 16.405C20.7424 15.7329 20.8984 15.06 21.0536 14.3864C21.0653 14.3351 21.0682 14.2817 21.0778 14.2107C20.492 14.2107 19.9245 14.2107 19.3564 14.2172C19.3205 14.2172 19.2619 14.3146 19.2539 14.3725C19.1872 14.8176 19.1301 15.265 19.0723 15.7117C19.0298 16.0338 18.9902 16.356 18.9463 16.6987V16.6979ZM12.0761 21.835C12.1861 21.8363 12.2953 21.8158 12.3974 21.7748C12.4996 21.7338 12.5926 21.6731 12.6712 21.5961C12.7499 21.5191 12.8125 21.4274 12.8556 21.3262C12.8988 21.2249 12.9215 21.1162 12.9225 21.0062C12.9204 20.784 12.8312 20.5715 12.674 20.4144C12.5168 20.2573 12.3042 20.1682 12.082 20.1663C11.8631 20.1682 11.6537 20.2557 11.4985 20.4101C11.3433 20.5644 11.2547 20.7734 11.2517 20.9923C11.2493 21.1021 11.2689 21.2112 11.3093 21.3134C11.3497 21.4155 11.41 21.5086 11.4868 21.5871C11.5636 21.6657 11.6552 21.7281 11.7564 21.7708C11.8576 21.8135 11.9663 21.8356 12.0761 21.8357V21.835ZM19.1367 21.835C19.2467 21.8356 19.3556 21.8143 19.4573 21.7725C19.559 21.7306 19.6513 21.6689 19.729 21.5911C19.8067 21.5132 19.8681 21.4207 19.9097 21.3189C19.9513 21.2171 19.9723 21.1081 19.9714 20.9981C19.9714 20.7767 19.8835 20.5644 19.7269 20.4079C19.5704 20.2514 19.3581 20.1634 19.1367 20.1634C18.9153 20.1634 18.703 20.2514 18.5465 20.4079C18.3899 20.5644 18.302 20.7767 18.302 20.9981C18.3006 21.1082 18.3212 21.2175 18.3627 21.3196C18.4041 21.4216 18.4655 21.5144 18.5433 21.5924C18.621 21.6704 18.7135 21.7321 18.8154 21.7739C18.9173 21.8157 19.0266 21.8367 19.1367 21.8357V21.835Z" fill="#7721AD"/>
</g>
<defs>
<clipPath id="clip0_210_239">
<rect width="28" height="28" fill="white"/>
</clipPath>
</defs>
</svg>
