<svg width="28" height="28" viewBox="0 0 28 28" fill="none" xmlns="http://www.w3.org/2000/svg">
<g clip-path="url(#clip0_210_156)">
<path d="M27.832 3.93866C27.3373 1.89466 25.4893 0.270662 23.4173 0.0466616C23.38 0.0466616 23.3333 0.00932829 23.296 -0.00933838C17.0987 -5.04497e-06 10.9013 -5.04497e-06 4.704 -5.04497e-06C4.452 0.055995 4.2 0.102662 3.948 0.167995C1.89467 0.662662 0.270667 2.51066 0.056 4.58266C0.056 4.61999 0.0186667 4.66666 0 4.70399C0 10.9013 0 17.0987 0 23.296C0.056 23.548 0.102667 23.8 0.168 24.052C0.662667 26.096 2.51067 27.72 4.58267 27.944C4.62 27.944 4.66667 27.9813 4.704 28C10.9013 28 17.0987 28 23.296 28C23.66 27.9067 24.0427 27.8507 24.388 27.7293C26.3573 27.0387 27.5147 25.6387 27.9347 23.6133C27.9533 23.5107 27.972 23.408 28 23.3053C28 17.108 28 10.9107 28 4.71333C27.944 4.45199 27.8973 4.19066 27.832 3.93866Z" fill="white"/>
<circle cx="13.5" cy="13.5" r="6.5" fill="white"/>
<mask id="path-3-outside-1_210_156" maskUnits="userSpaceOnUse" x="3.6665" y="3.66667" width="21" height="21" fill="black">
<rect fill="white" x="3.6665" y="3.66667" width="21" height="21"/>
<path fill-rule="evenodd" clip-rule="evenodd" d="M11.2092 19.2267C11.4332 19.3387 11.6385 19.2827 11.8345 19.1427C12.5625 18.62 13.2812 18.0973 14.0092 17.5653V17.5995L14.0279 17.584C15.4465 16.5481 16.8744 15.5214 18.3024 14.4948L18.3026 14.4947C18.4706 14.3733 18.5732 14.2147 18.5826 14.0093H18.5639C18.5732 13.7667 18.4239 13.6267 18.2466 13.496L14.0186 10.444L14.0092 10.427V10.444C13.6498 10.1827 13.2881 9.92132 12.9265 9.65998C12.5648 9.39865 12.2032 9.13733 11.8438 8.87601C11.6385 8.72667 11.4332 8.66134 11.1998 8.78267C10.9665 8.90401 10.9012 9.10934 10.9012 9.36134V13.8227C10.9012 13.8507 10.9035 13.881 10.9058 13.9113C10.9082 13.9417 10.9105 13.972 10.9105 14H10.8918C10.9012 14.0653 10.9012 14.1307 10.9012 14.196C10.9012 14.6903 10.9022 15.1857 10.9032 15.6814C10.9053 16.6738 10.9074 17.6677 10.9012 18.6573C10.9012 18.9093 10.9758 19.1147 11.2092 19.2267ZM14.0092 4.72246V4.69467H14.9238C14.8958 4.69001 14.8702 4.68534 14.8445 4.68067C14.8188 4.67601 14.7932 4.67134 14.7652 4.66667H13.9998H13.2718C13.0572 4.70401 12.8332 4.74134 12.6185 4.76934C10.5465 5.08667 8.77317 6.00134 7.30784 7.50401C5.9545 8.88534 5.12384 10.5467 4.79717 12.4507C4.77225 12.6002 4.74999 12.7524 4.72754 12.9059C4.70796 13.0397 4.68825 13.1745 4.6665 13.3093V14.7653C4.71317 15.0453 4.75984 15.3253 4.8065 15.596C5.17984 17.7333 6.18784 19.516 7.79317 20.9627C9.2025 22.232 10.8638 22.9787 12.7398 23.2493C12.8238 23.2633 12.9054 23.2773 12.987 23.2913C13.0687 23.3053 13.1504 23.3193 13.2345 23.3333H13.9998H14.0092V23.3183L14.0279 23.3333H14.7839C14.9799 23.296 15.2039 23.2587 15.4186 23.2307C17.8079 22.848 19.7679 21.7093 21.2892 19.8333C22.3626 18.508 23.0252 16.996 23.2492 15.3067C23.6226 12.4133 22.8386 9.85601 20.8692 7.69068C19.4319 6.11334 17.6399 5.16134 15.5306 4.79734C15.3562 4.76414 15.1745 4.73832 14.9986 4.71332C14.9767 4.71021 14.9549 4.70711 14.9332 4.70401H14.0186L14.0092 4.72246Z"/>
</mask>
<path fill-rule="evenodd" clip-rule="evenodd" d="M11.2092 19.2267C11.4332 19.3387 11.6385 19.2827 11.8345 19.1427C12.5625 18.62 13.2812 18.0973 14.0092 17.5653V17.5995L14.0279 17.584C15.4465 16.5481 16.8744 15.5214 18.3024 14.4948L18.3026 14.4947C18.4706 14.3733 18.5732 14.2147 18.5826 14.0093H18.5639C18.5732 13.7667 18.4239 13.6267 18.2466 13.496L14.0186 10.444L14.0092 10.427V10.444C13.6498 10.1827 13.2881 9.92132 12.9265 9.65998C12.5648 9.39865 12.2032 9.13733 11.8438 8.87601C11.6385 8.72667 11.4332 8.66134 11.1998 8.78267C10.9665 8.90401 10.9012 9.10934 10.9012 9.36134V13.8227C10.9012 13.8507 10.9035 13.881 10.9058 13.9113C10.9082 13.9417 10.9105 13.972 10.9105 14H10.8918C10.9012 14.0653 10.9012 14.1307 10.9012 14.196C10.9012 14.6903 10.9022 15.1857 10.9032 15.6814C10.9053 16.6738 10.9074 17.6677 10.9012 18.6573C10.9012 18.9093 10.9758 19.1147 11.2092 19.2267ZM14.0092 4.72246V4.69467H14.9238C14.8958 4.69001 14.8702 4.68534 14.8445 4.68067C14.8188 4.67601 14.7932 4.67134 14.7652 4.66667H13.9998H13.2718C13.0572 4.70401 12.8332 4.74134 12.6185 4.76934C10.5465 5.08667 8.77317 6.00134 7.30784 7.50401C5.9545 8.88534 5.12384 10.5467 4.79717 12.4507C4.77225 12.6002 4.74999 12.7524 4.72754 12.9059C4.70796 13.0397 4.68825 13.1745 4.6665 13.3093V14.7653C4.71317 15.0453 4.75984 15.3253 4.8065 15.596C5.17984 17.7333 6.18784 19.516 7.79317 20.9627C9.2025 22.232 10.8638 22.9787 12.7398 23.2493C12.8238 23.2633 12.9054 23.2773 12.987 23.2913C13.0687 23.3053 13.1504 23.3193 13.2345 23.3333H13.9998H14.0092V23.3183L14.0279 23.3333H14.7839C14.9799 23.296 15.2039 23.2587 15.4186 23.2307C17.8079 22.848 19.7679 21.7093 21.2892 19.8333C22.3626 18.508 23.0252 16.996 23.2492 15.3067C23.6226 12.4133 22.8386 9.85601 20.8692 7.69068C19.4319 6.11334 17.6399 5.16134 15.5306 4.79734C15.3562 4.76414 15.1745 4.73832 14.9986 4.71332C14.9767 4.71021 14.9549 4.70711 14.9332 4.70401H14.0186L14.0092 4.72246Z" fill="white"/>
<path d="M11.8345 19.1427L12.4157 19.9564L12.4177 19.955L11.8345 19.1427ZM11.2092 19.2267L11.6564 18.3322L11.6492 18.3286L11.6419 18.3251L11.2092 19.2267ZM14.0092 17.5653H15.0092V15.596L13.4192 16.7579L14.0092 17.5653ZM14.0092 17.5995H13.0092V19.7234L14.6463 18.3703L14.0092 17.5995ZM14.0279 17.584L13.4381 16.7764L13.4139 16.7941L13.3908 16.8132L14.0279 17.584ZM18.3024 14.4948L17.7187 13.6828L17.7186 13.6829L18.3024 14.4948ZM18.3026 14.4947L18.8862 15.3067L18.888 15.3054L18.3026 14.4947ZM18.5826 14.0093L19.5815 14.0548L19.629 13.0093H18.5826V14.0093ZM18.5639 14.0093L17.5646 13.9709L17.5247 15.0093H18.5639V14.0093ZM18.2466 13.496L18.8398 12.6909L18.8319 12.6852L18.2466 13.496ZM14.0186 10.444L13.1429 10.927L13.2513 11.1235L13.4333 11.2548L14.0186 10.444ZM14.0092 10.427L14.8848 9.94405L13.0092 10.427H14.0092ZM14.0092 10.444L13.421 11.2527L15.0092 12.4078V10.444H14.0092ZM12.9265 9.65998L12.3408 10.4705L12.3408 10.4705L12.9265 9.65998ZM11.8438 8.87601L11.2557 9.68474L11.2557 9.68474L11.8438 8.87601ZM11.1998 8.78267L10.7385 7.89545L10.7385 7.89546L11.1998 8.78267ZM10.9058 13.9113L9.90878 13.988L9.90878 13.988L10.9058 13.9113ZM10.9105 14V15H11.9105V14H10.9105ZM10.8918 14V13H9.73883L9.90189 14.1414L10.8918 14ZM10.9032 15.6814L9.90324 15.6835L10.9032 15.6814ZM10.9012 18.6573L9.90117 18.651V18.6573H10.9012ZM14.0092 4.72246H13.0092L14.9006 5.17569L14.0092 4.72246ZM14.0092 4.69467V3.69467H13.0092V4.69467H14.0092ZM14.9238 4.69467V5.69467L15.0882 3.70828L14.9238 4.69467ZM14.8445 4.68067L14.6656 5.66454L14.6656 5.66454L14.8445 4.68067ZM14.7652 4.66667L14.9296 3.68028L14.8479 3.66667H14.7652V4.66667ZM13.2718 4.66667V3.66667H13.1855L13.1005 3.68146L13.2718 4.66667ZM12.6185 4.76934L12.4892 3.77774L12.4781 3.77918L12.4671 3.78086L12.6185 4.76934ZM7.30784 7.50401L8.02215 8.20384L8.02378 8.20216L7.30784 7.50401ZM4.79717 12.4507L3.81156 12.2816L3.81078 12.2863L4.79717 12.4507ZM4.72754 12.9059L3.73807 12.7611L3.73807 12.7611L4.72754 12.9059ZM4.6665 13.3093L3.67926 13.1501L3.6665 13.2292V13.3093H4.6665ZM4.6665 14.7653H3.6665V14.8481L3.68011 14.9297L4.6665 14.7653ZM4.8065 15.596L3.82104 15.7659L3.82142 15.7681L4.8065 15.596ZM7.79317 20.9627L7.12373 21.7055L7.12393 21.7057L7.79317 20.9627ZM12.7398 23.2493L12.9043 22.2629L12.8935 22.2611L12.8826 22.2596L12.7398 23.2493ZM12.987 23.2913L13.156 22.3057L13.156 22.3057L12.987 23.2913ZM13.2345 23.3333L13.0701 24.3197L13.1517 24.3333H13.2345V23.3333ZM14.0092 23.3333V24.3333H15.0092V23.3333H14.0092ZM14.0092 23.3183L14.6353 22.5386L13.0092 21.2326V23.3183H14.0092ZM14.0279 23.3333L13.4017 24.113L13.676 24.3333H14.0279V23.3333ZM14.7839 23.3333V24.3333H14.8783L14.971 24.3157L14.7839 23.3333ZM15.4186 23.2307L15.5479 24.2223L15.5623 24.2204L15.5767 24.2181L15.4186 23.2307ZM21.2892 19.8333L22.0659 20.4632L22.0663 20.4627L21.2892 19.8333ZM23.2492 15.3067L24.2406 15.4381L24.241 15.4346L23.2492 15.3067ZM20.8692 7.69068L21.609 7.01784L21.6084 7.01713L20.8692 7.69068ZM15.5306 4.79734L15.3434 5.77968L15.352 5.7813L15.3605 5.78278L15.5306 4.79734ZM14.9986 4.71332L14.8579 5.70337L14.9986 4.71332ZM14.9332 4.70401L15.0746 3.71406L15.0043 3.70401H14.9332V4.70401ZM14.0186 4.70401V3.70401H13.4052L13.1272 4.25078L14.0186 4.70401ZM11.2533 18.3289C11.2326 18.3437 11.273 18.3088 11.3661 18.2931C11.415 18.2848 11.47 18.2835 11.5265 18.2922C11.5826 18.3009 11.6267 18.3174 11.6564 18.3322L10.762 20.1211C11.0573 20.2688 11.3789 20.3191 11.6985 20.2653C11.9993 20.2146 12.2404 20.0817 12.4157 19.9564L11.2533 18.3289ZM13.4192 16.7579C12.6923 17.2891 11.9761 17.81 11.2513 18.3303L12.4177 19.955C13.1489 19.43 13.8701 18.9055 14.5992 18.3727L13.4192 16.7579ZM15.0092 17.5995V17.5653H13.0092V17.5995H15.0092ZM13.3908 16.8132L13.3721 16.8287L14.6463 18.3703L14.665 18.3548L13.3908 16.8132ZM17.7186 13.6829C16.2912 14.7091 14.8602 15.7379 13.4381 16.7764L14.6176 18.3916C16.0328 17.3582 17.4577 16.3337 18.8861 15.3067L17.7186 13.6829ZM17.7189 13.6827L17.7187 13.6828L18.886 15.3068L18.8862 15.3067L17.7189 13.6827ZM17.5836 13.9639C17.5863 13.9051 17.6048 13.8358 17.6424 13.7727C17.6772 13.7141 17.7122 13.6875 17.7171 13.684L18.888 15.3054C19.2524 15.0422 19.5557 14.6227 19.5815 14.0548L17.5836 13.9639ZM18.5639 15.0093H18.5826V13.0093H18.5639V15.0093ZM17.6534 14.3011C17.6851 14.3244 17.6968 14.3346 17.6993 14.3369C17.7011 14.3385 17.6841 14.3235 17.6615 14.2919C17.6373 14.2581 17.6091 14.2084 17.589 14.1444C17.5687 14.0795 17.5628 14.0192 17.5646 13.9709L19.5631 14.0478C19.5935 13.2584 19.0427 12.8405 18.8398 12.691L17.6534 14.3011ZM13.4333 11.2548L17.6613 14.3068L18.8319 12.6852L14.6038 9.63319L13.4333 11.2548ZM13.1335 10.9099L13.1429 10.927L14.8942 9.96106L14.8848 9.94405L13.1335 10.9099ZM15.0092 10.444V10.427H13.0092V10.444H15.0092ZM12.3408 10.4705C12.7027 10.732 13.0631 10.9925 13.421 11.2527L14.5973 9.63527C14.2365 9.37287 13.8736 9.11063 13.5121 8.84944L12.3408 10.4705ZM11.2557 9.68474C11.6164 9.94712 11.9793 10.2093 12.3408 10.4705L13.5121 8.84944C13.1503 8.58796 12.7899 8.32754 12.432 8.06727L11.2557 9.68474ZM11.6612 9.66989C11.6323 9.68489 11.5856 9.70355 11.5238 9.71317C11.4613 9.7229 11.401 9.72061 11.3487 9.71083C11.2525 9.69286 11.2163 9.65608 11.2557 9.68474L12.432 8.06727C12.2661 7.9466 12.0245 7.80248 11.716 7.74484C11.3805 7.68218 11.0445 7.73631 10.7385 7.89545L11.6612 9.66989ZM11.9012 9.36134C11.9012 9.31091 11.9096 9.35883 11.87 9.44412C11.8484 9.49067 11.8164 9.53973 11.7735 9.58413C11.731 9.62805 11.6897 9.65505 11.6612 9.66989L10.7385 7.89546C10.4332 8.05418 10.1979 8.29616 10.056 8.60189C9.9254 8.88318 9.90117 9.15977 9.90117 9.36134H11.9012ZM11.9012 13.8227V9.36134H9.90117V13.8227H11.9012ZM11.9029 13.8346C11.9023 13.8267 11.9019 13.8213 11.9015 13.8164C11.9012 13.8116 11.901 13.8089 11.9009 13.8074C11.9008 13.8059 11.9009 13.8066 11.901 13.8089C11.901 13.8112 11.9012 13.8159 11.9012 13.8227H9.90117C9.90117 13.8962 9.90712 13.9665 9.90878 13.988L11.9029 13.8346ZM11.9105 14C11.9105 13.9264 11.9046 13.8562 11.9029 13.8346L9.90878 13.988C9.9094 13.996 9.90981 14.0014 9.91017 14.0063C9.91051 14.0111 9.91068 14.0138 9.91077 14.0153C9.91086 14.0167 9.9108 14.016 9.91072 14.0138C9.91064 14.0115 9.9105 14.0067 9.9105 14H11.9105ZM10.8918 15H10.9105V13H10.8918V15ZM11.9012 14.196C11.9012 14.1421 11.9028 14.0058 11.8818 13.8586L9.90189 14.1414C9.90005 14.1286 9.90029 14.124 9.90064 14.1337C9.90081 14.1384 9.90097 14.1453 9.90106 14.1559C9.90116 14.1671 9.90117 14.1789 9.90117 14.196H11.9012ZM11.9032 15.6793C11.9022 15.1834 11.9012 14.6891 11.9012 14.196H9.90117C9.90117 14.6915 9.90221 15.188 9.90324 15.6835L11.9032 15.6793ZM11.9012 18.6636C11.9074 17.6691 11.9053 16.671 11.9032 15.6793L9.90324 15.6835C9.90532 16.6766 9.90738 17.6663 9.90119 18.651L11.9012 18.6636ZM11.6419 18.3251C11.6737 18.3404 11.7173 18.3674 11.7618 18.411C11.8068 18.4549 11.8408 18.5041 11.8642 18.5516C11.9081 18.6404 11.9012 18.694 11.9012 18.6573H9.90117C9.90117 18.8727 9.93158 19.155 10.0711 19.4374C10.2213 19.7415 10.4652 19.9788 10.7764 20.1282L11.6419 18.3251ZM15.0092 4.72246V4.69467H13.0092V4.72246H15.0092ZM14.0092 5.69467H14.9238V3.69467H14.0092V5.69467ZM15.0882 3.70828C15.0685 3.70499 15.0498 3.7016 15.0234 3.6968L14.6656 5.66454C14.6905 5.66907 14.7231 5.67502 14.7594 5.68107L15.0882 3.70828ZM15.0234 3.6968C14.9985 3.69227 14.9659 3.68633 14.9296 3.68028L14.6008 5.65307C14.6205 5.65635 14.6392 5.65974 14.6656 5.66454L15.0234 3.6968ZM14.7652 3.66667H13.9998V5.66667H14.7652V3.66667ZM13.9998 3.66667H13.2718V5.66667H13.9998V3.66667ZM13.1005 3.68146C12.8886 3.71832 12.6818 3.75261 12.4892 3.77774L12.7478 5.76094C12.9845 5.73006 13.2258 5.68969 13.4432 5.65188L13.1005 3.68146ZM12.4671 3.78086C10.1794 4.13124 8.20818 5.14839 6.59189 6.80585L8.02378 8.20216C9.33817 6.85429 10.9136 6.04211 12.7699 5.75781L12.4671 3.78086ZM6.59353 6.80418C5.09367 8.33507 4.17157 10.1833 3.81157 12.2816L5.78277 12.6198C6.0761 10.9101 6.81534 9.43561 8.02215 8.20384L6.59353 6.80418ZM3.81078 12.2863C3.78394 12.4473 3.76025 12.6095 3.73807 12.7611L5.71702 13.0506C5.73972 12.8954 5.76056 12.7531 5.78356 12.6151L3.81078 12.2863ZM3.73807 12.7611C3.71832 12.8962 3.69964 13.0237 3.67926 13.1501L5.65374 13.4686C5.67685 13.3253 5.69761 13.1833 5.71702 13.0506L3.73807 12.7611ZM3.6665 13.3093V14.7653H5.6665V13.3093H3.6665ZM3.68011 14.9297C3.72669 15.2092 3.77382 15.492 3.82104 15.7659L5.79196 15.4261C5.74585 15.1587 5.69965 14.8815 5.6529 14.6009L3.68011 14.9297ZM3.82142 15.7681C4.23428 18.1317 5.35698 20.1134 7.12373 21.7055L8.46261 20.2198C7.01869 18.9186 6.1254 17.335 5.79159 15.4239L3.82142 15.7681ZM7.12393 21.7057C8.68851 23.1149 10.536 23.9417 12.597 24.2391L12.8826 22.2596C11.1917 22.0156 9.7165 21.3491 8.46241 20.2196L7.12393 21.7057ZM12.5754 24.2357C12.6567 24.2493 12.7361 24.2629 12.8181 24.2769L13.156 22.3057C13.0747 22.2918 12.9908 22.2774 12.9043 22.2629L12.5754 24.2357ZM12.818 24.2769C12.8994 24.2909 12.9834 24.3053 13.0701 24.3197L13.3989 22.3469C13.3175 22.3334 13.238 22.3198 13.156 22.3057L12.818 24.2769ZM13.2345 24.3333H13.9998V22.3333H13.2345V24.3333ZM13.9998 24.3333H14.0092V22.3333H13.9998V24.3333ZM15.0092 23.3333V23.3183H13.0092V23.3333H15.0092ZM13.383 24.098L13.4017 24.113L14.6541 22.5537L14.6353 22.5386L13.383 24.098ZM14.0279 24.3333H14.7839V22.3333H14.0279V24.3333ZM14.971 24.3157C15.1515 24.2813 15.3559 24.2473 15.5479 24.2223L15.2892 22.2391C15.0518 22.27 14.8083 22.3107 14.5968 22.351L14.971 24.3157ZM15.5767 24.2181C18.2105 23.7963 20.3903 22.5295 22.0659 20.4632L20.5125 19.2035C19.1455 20.8892 17.4053 21.8997 15.2604 22.2433L15.5767 24.2181ZM22.0663 20.4627C23.2525 18.998 23.9917 17.3147 24.2405 15.4381L22.2579 15.1752C22.0587 16.6773 21.4726 18.018 20.5121 19.204L22.0663 20.4627ZM24.241 15.4346C24.6513 12.2552 23.779 9.40383 21.609 7.01785L20.1294 8.36351C21.8981 10.3082 22.5939 12.5715 22.2574 15.1787L24.241 15.4346ZM21.6084 7.01713C20.0149 5.26847 18.0195 4.21208 15.7006 3.81191L15.3605 5.78278C17.2602 6.11061 18.8489 6.95822 20.1301 8.36422L21.6084 7.01713ZM15.7177 3.81501C15.5163 3.77664 15.311 3.74766 15.1393 3.72326L14.8579 5.70337C15.0381 5.72898 15.1962 5.75164 15.3434 5.77968L15.7177 3.81501ZM15.1393 3.72326C15.1173 3.72014 15.0959 3.7171 15.0746 3.71406L14.7918 5.69396C14.8139 5.69712 14.8361 5.70027 14.8579 5.70337L15.1393 3.72326ZM14.9332 3.70401H14.0186V5.70401H14.9332V3.70401ZM13.1272 4.25078L13.1178 4.26924L14.9006 5.17569L14.91 5.15724L13.1272 4.25078Z" fill="#7721AD" mask="url(#path-3-outside-1_210_156)"/>
</g>
<defs>
<clipPath id="clip0_210_156">
<rect width="28" height="28" fill="white"/>
</clipPath>
</defs>
</svg>
