<svg width="28" height="28" viewBox="0 0 28 28" fill="none" xmlns="http://www.w3.org/2000/svg">
<g clip-path="url(#clip0_210_393)">
<path d="M27.832 3.93872C27.3373 1.89472 25.4893 0.270723 23.4173 0.0467227C23.38 0.0467227 23.3333 0.00938932 23.296 -0.00927734C17.0987 5.59902e-05 10.9013 5.59902e-05 4.704 5.59902e-05C4.452 0.056056 4.2 0.102723 3.948 0.168056C1.89467 0.662723 0.270667 2.51072 0.056 4.58272C0.056 4.62006 0.0186667 4.66672 0 4.70406C0 10.9014 0 17.0987 0 23.2961C0.056 23.5481 0.102667 23.8001 0.168 24.0521C0.662667 26.0961 2.51067 27.7201 4.58267 27.9441C4.62 27.9441 4.66667 27.9814 4.704 28.0001C10.9013 28.0001 17.0987 28.0001 23.296 28.0001C23.66 27.9067 24.0427 27.8507 24.388 27.7294C26.3573 27.0387 27.5147 25.6387 27.9347 23.6134C27.9533 23.5107 27.972 23.4081 28 23.3054C28 17.1081 28 10.9107 28 4.71339C27.944 4.45206 27.8973 4.19072 27.832 3.93872Z" fill="white"/>
<mask id="path-2-outside-1_210_393" maskUnits="userSpaceOnUse" x="4.64648" y="8.17468" width="18" height="17" fill="black">
<rect fill="white" x="4.64648" y="8.17468" width="18" height="17"/>
<path d="M19.6558 9.19335H19.0772H19.0678C19.0305 9.19335 18.9932 9.19335 18.9465 9.19335H18.9092V10.36C18.9185 10.4627 18.9185 10.584 18.8905 10.696C18.7878 11.34 18.2558 11.7973 17.6212 11.7973H17.5838H17.5745H17.5558H17.5372C16.8558 11.76 16.3425 11.2093 16.3425 10.528C16.3425 10.2947 16.3425 10.052 16.3425 9.80935V9.80002V9.79068V9.33335C16.3425 9.27735 16.3425 9.23068 16.3425 9.17468H16.0905H8.10115H7.37315C6.42115 9.17468 5.64648 9.94935 5.64648 10.9013V19.3667C5.64648 20.3187 6.42115 21.0933 7.37315 21.0933H13.3652L14.9425 23.1C15.0452 23.24 15.2038 23.3147 15.3718 23.3147H15.3812C15.5492 23.3147 15.6985 23.24 15.8012 23.1187L17.5185 21.0933H19.6558C20.6078 21.0933 21.3825 20.3187 21.3825 19.3667V10.9107C21.3825 9.97735 20.6078 9.19335 19.6558 9.19335ZM11.1998 16.9027C11.1998 17.1547 10.9945 17.36 10.7425 17.36C10.4905 17.36 10.2945 17.1547 10.2852 16.9027V15.8667H9.33315V16.9027C9.33315 17.1547 9.12782 17.36 8.87582 17.36C8.62382 17.36 8.41848 17.164 8.41848 16.9027V13.9253C8.41848 13.6733 8.61448 13.468 8.87582 13.468C9.13715 13.468 9.33315 13.6733 9.33315 13.9253V14.9613H10.2945V13.9253C10.2945 13.6733 10.4905 13.468 10.7518 13.468C11.0038 13.468 11.2092 13.664 11.2092 13.9253V16.9027H11.1998ZM14.4292 17.0427C14.1492 17.248 13.7852 17.36 13.3932 17.36C12.7958 17.3507 12.3012 17.0613 11.9932 16.8187C11.8065 16.6693 11.7692 16.3987 11.9185 16.212C11.9185 16.2027 11.9278 16.2027 11.9278 16.1933C11.9932 16.1093 12.1052 16.0533 12.2172 16.044C12.3385 16.0347 12.4505 16.0627 12.5345 16.1373C12.6745 16.24 13.0292 16.492 13.3838 16.4827C13.5892 16.4827 13.7852 16.4267 13.9158 16.3333C14.0465 16.2307 14.0558 16.1653 14.0652 16.128C14.0652 16.0907 14.0558 16.0813 14.0465 16.0627C14.0278 16.0253 13.9905 15.9973 13.9438 15.96C13.8038 15.876 13.5892 15.8107 13.3372 15.7547H13.3185C13.3185 15.7547 13.3185 15.7547 13.3092 15.7547C13.0292 15.6987 12.8052 15.624 12.6185 15.54C12.3758 15.4187 12.1985 15.2693 12.0772 15.0827C11.9838 14.9333 11.9372 14.756 11.9372 14.5787C11.9372 14.2427 12.1145 13.916 12.4132 13.7013C12.6745 13.5053 13.0198 13.3933 13.3838 13.3933C13.9065 13.3933 14.2892 13.636 14.5412 13.804L14.5785 13.8227C14.6718 13.888 14.7372 13.9907 14.7652 14.1027C14.7838 14.2147 14.7652 14.3267 14.6998 14.42C14.6345 14.5227 14.5412 14.5787 14.4292 14.6067C14.4292 14.6067 14.4292 14.6067 14.4198 14.6067C14.3078 14.6253 14.1865 14.6067 14.0932 14.5413C13.8318 14.3733 13.6265 14.252 13.3745 14.252C13.2065 14.252 13.0292 14.2987 12.9172 14.392C12.8892 14.4107 12.7958 14.4853 12.7958 14.5693C12.7958 14.588 12.7958 14.6067 12.8052 14.6067C12.8052 14.6067 12.8052 14.616 12.8145 14.6253C12.8238 14.644 12.8705 14.672 12.8985 14.7C13.0012 14.7747 13.1972 14.84 13.4398 14.8867H13.4585C13.4585 14.8867 13.4585 14.8867 13.4678 14.8867C13.7758 14.952 14.0092 15.0267 14.2052 15.1107C14.4758 15.2413 14.6625 15.4 14.7838 15.596C14.8772 15.7453 14.9332 15.9227 14.9332 16.1187C14.9425 16.4733 14.7558 16.8187 14.4292 17.0427ZM18.7692 16.912C18.7692 17.1547 18.5638 17.3693 18.3118 17.3693C18.0598 17.3693 17.8545 17.1733 17.8545 16.9213V15.3347L17.4438 15.904C17.3505 16.0253 17.2198 16.0907 17.0798 16.0907H17.0705C16.9212 16.0907 16.7812 16.0253 16.6972 15.904L16.2865 15.344V16.9213C16.2865 17.1733 16.0812 17.3787 15.8292 17.3787C15.5772 17.3787 15.3718 17.1827 15.3718 16.9213V13.944C15.3718 13.7013 15.5492 13.5147 15.7825 13.4867C15.8012 13.4773 15.8105 13.4773 15.8292 13.4773H15.8478C15.9972 13.4773 16.1372 13.5427 16.2118 13.664L17.0705 14.8587L17.9292 13.664C18.0225 13.5427 18.1532 13.4773 18.2932 13.4773H18.3025C18.3025 13.4773 18.3025 13.4773 18.3118 13.4773C18.5638 13.496 18.7598 13.692 18.7598 13.9347L18.7692 16.912Z"/>
</mask>
<path d="M19.6558 9.19335H19.0772H19.0678C19.0305 9.19335 18.9932 9.19335 18.9465 9.19335H18.9092V10.36C18.9185 10.4627 18.9185 10.584 18.8905 10.696C18.7878 11.34 18.2558 11.7973 17.6212 11.7973H17.5838H17.5745H17.5558H17.5372C16.8558 11.76 16.3425 11.2093 16.3425 10.528C16.3425 10.2947 16.3425 10.052 16.3425 9.80935V9.80002V9.79068V9.33335C16.3425 9.27735 16.3425 9.23068 16.3425 9.17468H16.0905H8.10115H7.37315C6.42115 9.17468 5.64648 9.94935 5.64648 10.9013V19.3667C5.64648 20.3187 6.42115 21.0933 7.37315 21.0933H13.3652L14.9425 23.1C15.0452 23.24 15.2038 23.3147 15.3718 23.3147H15.3812C15.5492 23.3147 15.6985 23.24 15.8012 23.1187L17.5185 21.0933H19.6558C20.6078 21.0933 21.3825 20.3187 21.3825 19.3667V10.9107C21.3825 9.97735 20.6078 9.19335 19.6558 9.19335ZM11.1998 16.9027C11.1998 17.1547 10.9945 17.36 10.7425 17.36C10.4905 17.36 10.2945 17.1547 10.2852 16.9027V15.8667H9.33315V16.9027C9.33315 17.1547 9.12782 17.36 8.87582 17.36C8.62382 17.36 8.41848 17.164 8.41848 16.9027V13.9253C8.41848 13.6733 8.61448 13.468 8.87582 13.468C9.13715 13.468 9.33315 13.6733 9.33315 13.9253V14.9613H10.2945V13.9253C10.2945 13.6733 10.4905 13.468 10.7518 13.468C11.0038 13.468 11.2092 13.664 11.2092 13.9253V16.9027H11.1998ZM14.4292 17.0427C14.1492 17.248 13.7852 17.36 13.3932 17.36C12.7958 17.3507 12.3012 17.0613 11.9932 16.8187C11.8065 16.6693 11.7692 16.3987 11.9185 16.212C11.9185 16.2027 11.9278 16.2027 11.9278 16.1933C11.9932 16.1093 12.1052 16.0533 12.2172 16.044C12.3385 16.0347 12.4505 16.0627 12.5345 16.1373C12.6745 16.24 13.0292 16.492 13.3838 16.4827C13.5892 16.4827 13.7852 16.4267 13.9158 16.3333C14.0465 16.2307 14.0558 16.1653 14.0652 16.128C14.0652 16.0907 14.0558 16.0813 14.0465 16.0627C14.0278 16.0253 13.9905 15.9973 13.9438 15.96C13.8038 15.876 13.5892 15.8107 13.3372 15.7547H13.3185C13.3185 15.7547 13.3185 15.7547 13.3092 15.7547C13.0292 15.6987 12.8052 15.624 12.6185 15.54C12.3758 15.4187 12.1985 15.2693 12.0772 15.0827C11.9838 14.9333 11.9372 14.756 11.9372 14.5787C11.9372 14.2427 12.1145 13.916 12.4132 13.7013C12.6745 13.5053 13.0198 13.3933 13.3838 13.3933C13.9065 13.3933 14.2892 13.636 14.5412 13.804L14.5785 13.8227C14.6718 13.888 14.7372 13.9907 14.7652 14.1027C14.7838 14.2147 14.7652 14.3267 14.6998 14.42C14.6345 14.5227 14.5412 14.5787 14.4292 14.6067C14.4292 14.6067 14.4292 14.6067 14.4198 14.6067C14.3078 14.6253 14.1865 14.6067 14.0932 14.5413C13.8318 14.3733 13.6265 14.252 13.3745 14.252C13.2065 14.252 13.0292 14.2987 12.9172 14.392C12.8892 14.4107 12.7958 14.4853 12.7958 14.5693C12.7958 14.588 12.7958 14.6067 12.8052 14.6067C12.8052 14.6067 12.8052 14.616 12.8145 14.6253C12.8238 14.644 12.8705 14.672 12.8985 14.7C13.0012 14.7747 13.1972 14.84 13.4398 14.8867H13.4585C13.4585 14.8867 13.4585 14.8867 13.4678 14.8867C13.7758 14.952 14.0092 15.0267 14.2052 15.1107C14.4758 15.2413 14.6625 15.4 14.7838 15.596C14.8772 15.7453 14.9332 15.9227 14.9332 16.1187C14.9425 16.4733 14.7558 16.8187 14.4292 17.0427ZM18.7692 16.912C18.7692 17.1547 18.5638 17.3693 18.3118 17.3693C18.0598 17.3693 17.8545 17.1733 17.8545 16.9213V15.3347L17.4438 15.904C17.3505 16.0253 17.2198 16.0907 17.0798 16.0907H17.0705C16.9212 16.0907 16.7812 16.0253 16.6972 15.904L16.2865 15.344V16.9213C16.2865 17.1733 16.0812 17.3787 15.8292 17.3787C15.5772 17.3787 15.3718 17.1827 15.3718 16.9213V13.944C15.3718 13.7013 15.5492 13.5147 15.7825 13.4867C15.8012 13.4773 15.8105 13.4773 15.8292 13.4773H15.8478C15.9972 13.4773 16.1372 13.5427 16.2118 13.664L17.0705 14.8587L17.9292 13.664C18.0225 13.5427 18.1532 13.4773 18.2932 13.4773H18.3025C18.3025 13.4773 18.3025 13.4773 18.3118 13.4773C18.5638 13.496 18.7598 13.692 18.7598 13.9347L18.7692 16.912Z" stroke="#757575" stroke-width="2" mask="url(#path-2-outside-1_210_393)"/>
<path d="M22.1289 2.89863L21.1209 1.89063C20.9716 1.74129 20.8036 1.66663 20.6449 1.66663C20.5143 1.66663 20.3836 1.71329 20.2716 1.82529C20.1596 1.92796 20.1036 2.05863 20.1036 2.19863C20.1036 2.35729 20.1783 2.51596 20.3276 2.66529C20.3276 2.66529 20.3276 2.67463 20.3369 2.67463C20.3556 2.69329 20.3649 2.71196 20.3836 2.72129C20.3836 2.72129 20.3929 2.73063 20.4023 2.73996C20.4209 2.75863 20.4396 2.77729 20.4583 2.79596H20.0289C19.9729 2.79596 19.9076 2.79596 19.8609 2.79596C19.6369 2.79596 19.4223 2.79596 19.1983 2.80529C18.0503 2.82396 17.1543 3.61729 17.0983 4.67196V4.68129C17.0889 4.91463 17.0796 5.14796 17.0796 5.41863V5.77329C17.0796 5.90396 17.0796 6.04396 17.0796 6.19329C17.0796 6.23996 17.0796 6.29596 17.0796 6.35196V6.80929C17.0796 7.05196 17.0796 7.29463 17.0796 7.53729C17.0796 7.82663 17.2943 8.05063 17.5929 8.06929C17.5929 8.06929 17.5929 8.06929 17.6023 8.06929H17.6396C17.9196 8.06929 18.1529 7.86396 18.1903 7.58396C18.1996 7.53729 18.2089 7.47196 18.1903 7.40663V6.19329V4.89596C18.1996 4.34529 18.5449 3.95329 19.0583 3.91596C19.3009 3.89729 19.5529 3.89729 19.7956 3.89729C19.9636 3.89729 20.1223 3.89729 20.2716 3.89729C20.3369 3.89729 20.3929 3.89729 20.4676 3.90663C20.4489 3.92529 20.4303 3.94396 20.4116 3.95329C20.3743 3.98129 20.3463 4.00929 20.3183 4.04663C20.0663 4.29863 20.0476 4.62529 20.2716 4.85863C20.3743 4.97063 20.5049 5.02663 20.6449 5.02663C20.8036 5.02663 20.9623 4.96129 21.1023 4.82129C21.4383 4.49463 21.7929 4.13063 22.1383 3.78529L22.1476 3.77596C22.4183 3.50529 22.4183 3.19729 22.1289 2.89863Z" fill="#7721AD"/>
</g>
<defs>
<clipPath id="clip0_210_393">
<rect width="28" height="28" fill="white"/>
</clipPath>
</defs>
</svg>
