<svg width="28" height="28" viewBox="0 0 28 28" fill="none" xmlns="http://www.w3.org/2000/svg">
<g clip-path="url(#clip0_210_373)">
<path d="M27.832 3.93866C27.3373 1.89466 25.4893 0.270662 23.4173 0.0466616C23.38 0.0466616 23.3333 0.00932829 23.296 -0.00933838C17.0987 -5.04497e-06 10.9013 -5.04497e-06 4.704 -5.04497e-06C4.452 0.055995 4.2 0.102662 3.948 0.167995C1.89467 0.662662 0.270667 2.51066 0.056 4.58266C0.056 4.61999 0.0186667 4.66666 0 4.70399C0 10.9013 0 17.0987 0 23.296C0.056 23.548 0.102667 23.8 0.168 24.052C0.662667 26.096 2.51067 27.72 4.58267 27.944C4.62 27.944 4.66667 27.9813 4.704 28C10.9013 28 17.0987 28 23.296 28C23.66 27.9067 24.0427 27.8507 24.388 27.7293C26.3573 27.0387 27.5147 25.6387 27.9347 23.6133C27.9533 23.5107 27.972 23.408 28 23.3053C28 17.108 28 10.9107 28 4.71333C27.944 4.45199 27.8973 4.19066 27.832 3.93866Z" fill="white"/>
<path d="M15.747 5.40181L15.748 5.40206C18.437 6.11336 20.4378 8.48598 20.7074 11.2569C20.8367 12.6382 20.5113 13.9409 19.9449 15.2264L19.9448 15.2268C19.1227 17.0969 17.9436 18.7517 16.5668 20.2937L16.5663 20.2943C15.9634 20.9717 15.3257 21.6053 14.6734 22.2533C14.5215 22.4042 14.3688 22.5559 14.2156 22.7091L14.5692 23.0627L14.2156 22.7091C14.1178 22.8069 14.0436 22.8236 14.002 22.8241C13.9589 22.8246 13.8817 22.8084 13.779 22.714C11.6773 20.7689 9.84204 18.6463 8.49492 16.1527C7.8673 14.9791 7.39705 13.7794 7.29285 12.4943L7.29284 12.4941C7.10968 10.2439 7.86849 8.36976 9.53777 6.85761C10.5996 5.89949 11.8656 5.35353 13.2985 5.20297C13.344 5.20033 13.383 5.19309 13.413 5.18597C13.4396 5.17966 13.463 5.17245 13.4804 5.16669H13.4823H13.4847H13.487H13.4894H13.4917H13.494H13.4964H13.4987H13.5011H13.5034H13.5058H13.5081H13.5104H13.5128H13.5151H13.5175H13.5198H13.5222H13.5245H13.5268H13.5292H13.5315H13.5339H13.5362H13.5385H13.5409H13.5432H13.5456H13.5479H13.5502H13.5526H13.5549H13.5573H13.5596H13.5619H13.5643H13.5666H13.569H13.5713H13.5736H13.576H13.5783H13.5806H13.583H13.5853H13.5877H13.59H13.5923H13.5947H13.597H13.5993H13.6017H13.604H13.6064H13.6087H13.611H13.6134H13.6157H13.618H13.6204H13.6227H13.625H13.6274H13.6297H13.632H13.6344H13.6367H13.639H13.6414H13.6437H13.646H13.6484H13.6507H13.653H13.6554H13.6577H13.66H13.6624H13.6647H13.667H13.6694H13.6717H13.674H13.6764H13.6787H13.681H13.6834H13.6857H13.688H13.6904H13.6927H13.695H13.6974H13.6997H13.702H13.7044H13.7067H13.709H13.7113H13.7137H13.716H13.7183H13.7207H13.723H13.7253H13.7277H13.73H13.7323H13.7347H13.737H13.7393H13.7416H13.744H13.7463H13.7486H13.751H13.7533H13.7556H13.7579H13.7603H13.7626H13.7649H13.7673H13.7696H13.7719H13.7742H13.7766H13.7789H13.7812H13.7836H13.7859H13.7882H13.7905H13.7929H13.7952H13.7975H13.7998H13.8022H13.8045H13.8068H13.8092H13.8115H13.8138H13.8161H13.8185H13.8208H13.8231H13.8254H13.8278H13.8301H13.8324H13.8347H13.8371H13.8394H13.8417H13.8441H13.8464H13.8487H13.851H13.8534H13.8557H13.858H13.8603H13.8627H13.865H13.8673H13.8696H13.872H13.8743H13.8766H13.8789H13.8813H13.8836H13.8859H13.8882H13.8906H13.8929H13.8952H13.8975H13.8999H13.9022H13.9045H13.9068H13.9092H13.9115H13.9138H13.9161H13.9185H13.9208H13.9231H13.9254H13.9278H13.9301H13.9324H13.9347H13.9371H13.9394H13.9417H13.944H13.9464H13.9487H13.951H13.9533H13.9557H13.958H13.9603H13.9626H13.965H13.9673H13.9696H13.9719H13.9743H13.9766H13.9789H13.9812H13.9835H13.9859H13.9882H13.9905H13.9928H13.9952H13.9975H13.9998H14.0021H14.0045H14.0068H14.0091H14.0114H14.0138H14.0161H14.0184H14.0207H14.0231H14.0254H14.0277H14.03H14.0324H14.0347H14.037H14.0393H14.0417H14.044H14.0463H14.0486H14.051H14.0533H14.0556H14.0579H14.0602H14.0626H14.0649H14.0672H14.0695H14.0719H14.0742H14.0765H14.0788H14.0812H14.0835H14.0858H14.0881H14.0905H14.0928H14.0951H14.0974H14.0998H14.1021H14.1044H14.1067H14.1091H14.1114H14.1137H14.116H14.1184H14.1207H14.123H14.1253H14.1277H14.13H14.1323H14.1346H14.137H14.1393H14.1416H14.144H14.1463H14.1486H14.1509H14.1533H14.1556H14.1579H14.1602H14.1626H14.1649H14.1672H14.1695H14.1719H14.1742H14.1765H14.1788H14.1812H14.1835H14.1858H14.1882H14.1905H14.1928H14.1951H14.1975H14.1998H14.2021H14.2044H14.2068H14.2091H14.2114H14.2138H14.2161H14.2184H14.2207H14.2231H14.2254H14.2277H14.2301H14.2324H14.2347H14.237H14.2394H14.2417H14.244H14.2464H14.2487H14.251H14.2533H14.2557H14.258H14.2603H14.2627H14.265H14.2673H14.2696H14.272H14.2743H14.2766H14.279H14.2813H14.2836H14.286H14.2883H14.2906H14.2929H14.2953H14.2976H14.2999H14.3023H14.3046H14.3069H14.3093H14.3116H14.3139H14.3163H14.3186H14.3209H14.3233H14.3256H14.3279H14.3303H14.3326H14.3349H14.3373H14.3396H14.3419H14.3443H14.3466H14.3489H14.3513H14.3536H14.3559H14.3583H14.3606H14.3629H14.3653H14.3676H14.3699H14.3723H14.3746H14.3769H14.3793H14.3816H14.3839H14.3863H14.3886H14.3909H14.3933H14.3956H14.398H14.4003H14.4026H14.405H14.4073H14.4096H14.412H14.4143H14.4166H14.419H14.4213H14.4237H14.426H14.4283H14.4307H14.433H14.4354H14.4377H14.44H14.4424H14.4447H14.4471H14.4494H14.4517H14.4541H14.4564H14.4588H14.4611H14.4634H14.4658H14.4681H14.4705H14.4728H14.4751H14.4775H14.4798H14.4822H14.4845H14.4868H14.4892H14.4915H14.4939H14.4962H14.4986H14.5009H14.5032H14.5056H14.5079H14.5103H14.5126H14.515H14.5173H14.5197H14.522H14.5244H14.5267H14.529H14.5314H14.5337H14.5361H14.5384H14.5408H14.5431H14.5455H14.5478H14.5482C14.7018 5.1967 14.8451 5.22156 14.983 5.24546C15.2472 5.29127 15.491 5.33354 15.747 5.40181ZM13.5274 5.1502C13.5279 5.15002 13.5278 5.15006 13.5272 5.15026L13.5274 5.1502ZM14.03 7.34002H14.0299C11.5633 7.32953 9.53373 9.32314 9.53315 11.7963C9.52322 14.2658 11.5296 16.2827 13.9998 16.2827C16.4515 16.2827 18.4548 14.2763 18.4758 11.8296H18.4758V11.8254C18.4758 9.35852 16.4817 7.35055 14.03 7.34002Z" stroke="#7721AD"/>
<path d="M13.9997 9.4267C12.693 9.4267 11.6104 10.4907 11.6104 11.7974C11.6104 13.104 12.6744 14.1867 13.981 14.1867C15.297 14.1867 16.361 13.1227 16.3704 11.816C16.3797 10.5 15.3157 9.43603 13.9997 9.4267Z" fill="#7721AD"/>
</g>
<defs>
<clipPath id="clip0_210_373">
<rect width="28" height="28" fill="white"/>
</clipPath>
</defs>
</svg>
