<svg width="28" height="28" viewBox="0 0 28 28" fill="none" xmlns="http://www.w3.org/2000/svg">
<g clip-path="url(#clip0_210_355)">
<path d="M27.832 3.93866C27.3373 1.89466 25.4893 0.270662 23.4173 0.0466616C23.38 0.0466616 23.3333 0.00932829 23.296 -0.00933838C17.0987 -5.04497e-06 10.9013 -5.04497e-06 4.704 -5.04497e-06C4.452 0.055995 4.2 0.102662 3.948 0.167995C1.89467 0.662662 0.270667 2.51066 0.056 4.58266C0.056 4.61999 0.0186667 4.66666 0 4.70399C0 10.9013 0 17.0987 0 23.296C0.056 23.548 0.102667 23.8 0.168 24.052C0.662667 26.096 2.51067 27.72 4.58267 27.944C4.62 27.944 4.66667 27.9813 4.704 28C10.9013 28 17.0987 28 23.296 28C23.66 27.9067 24.0427 27.8507 24.388 27.7293C26.3573 27.0387 27.5147 25.6387 27.9347 23.6133C27.9533 23.5107 27.972 23.408 28 23.3053C28 17.108 28 10.9107 28 4.71333C27.944 4.45199 27.8973 4.19066 27.832 3.93866Z" fill="white"/>
<path d="M4.6665 6.16934C4.70384 6.05734 4.73184 5.93601 4.7785 5.82401C5.02117 5.15201 5.65584 4.67601 6.3745 4.67601C7.96117 4.66667 9.54784 4.66667 11.1252 4.67601C12.0585 4.68534 12.8145 5.45067 12.8238 6.37467C12.8332 7.96134 12.8332 9.54801 12.8238 11.1253C12.8145 12.0587 12.0492 12.8147 11.1252 12.824C9.5385 12.8333 7.95184 12.8333 6.3745 12.824C5.57184 12.8147 4.8905 12.2453 4.70384 11.452C4.6945 11.4147 4.67584 11.3773 4.6665 11.34C4.6665 9.61334 4.6665 7.88667 4.6665 6.16934ZM11.6665 7.00001C11.6665 6.81334 11.6665 6.64534 11.6665 6.47734C11.6665 6.07601 11.4238 5.83334 11.0132 5.83334C10.2758 5.83334 9.52917 5.83334 8.79184 5.83334C8.00784 5.83334 7.22384 5.83334 6.43984 5.83334C6.14117 5.83334 5.90784 5.99201 5.86117 6.26267C5.82384 6.50534 5.85184 6.74801 5.85184 7.00001C7.78384 7.00001 9.71584 7.00001 11.6665 7.00001ZM8.15717 8.17601C7.3825 8.17601 6.61717 8.17601 5.8425 8.17601C5.8425 8.56801 5.8425 8.94134 5.8425 9.31467C6.61717 9.31467 7.39184 9.31467 8.15717 9.31467C8.15717 8.93201 8.15717 8.55867 8.15717 8.17601ZM9.3425 9.32401C10.1265 9.32401 10.8918 9.32401 11.6572 9.32401C11.6572 8.93201 11.6572 8.55867 11.6572 8.17601C10.8825 8.17601 10.1172 8.17601 9.3425 8.17601C9.3425 8.55867 9.3425 8.94134 9.3425 9.32401ZM5.83317 10.5093C5.83317 10.7333 5.82384 10.948 5.83317 11.1533C5.85184 11.4427 6.10384 11.6667 6.4025 11.6667C6.9625 11.676 7.53184 11.6667 8.09184 11.6667C8.1105 11.6667 8.1385 11.6573 8.14784 11.648C8.14784 11.2653 8.14784 10.892 8.14784 10.5093C7.3825 10.5093 6.6265 10.5093 5.83317 10.5093ZM11.6665 10.5187C10.8825 10.5187 10.1172 10.5187 9.35184 10.5187C9.35184 10.9107 9.35184 11.284 9.35184 11.676C9.94917 11.676 10.5372 11.6853 11.1252 11.676C11.4145 11.6667 11.6478 11.424 11.6665 11.1347C11.6758 10.9293 11.6665 10.724 11.6665 10.5187Z" fill="#757575"/>
<path d="M11.4144 23.3333C11.1997 23.2493 10.9757 23.1933 10.7797 23.0813C10.2291 22.7547 9.9304 22.2507 9.92106 21.6067C9.91173 20.0387 9.91173 18.4613 9.92106 16.884C9.9304 15.932 10.6957 15.1667 11.6384 15.1667C13.2157 15.1573 14.7837 15.1573 16.3611 15.1667C17.3131 15.176 18.0784 15.932 18.0784 16.884C18.0877 18.4613 18.0877 20.0293 18.0784 21.6067C18.0784 22.4373 17.4904 23.128 16.6691 23.296C16.6411 23.3053 16.6131 23.3147 16.5851 23.3333C14.8584 23.3333 13.1317 23.3333 11.4144 23.3333ZM11.0784 17.4907C13.0384 17.4907 14.9704 17.4907 16.9117 17.4907C16.9117 17.2947 16.9117 17.0987 16.9117 16.912C16.9024 16.5853 16.6597 16.3427 16.3331 16.3333C16.2024 16.3333 16.0811 16.3333 15.9504 16.3333C14.5411 16.3333 13.1317 16.3333 11.7224 16.3333C11.3211 16.3333 11.0877 16.5667 11.0877 16.968C11.0784 17.136 11.0784 17.304 11.0784 17.4907ZM13.4117 18.676C12.6277 18.676 11.8624 18.676 11.0971 18.676C11.0971 19.068 11.0971 19.4413 11.0971 19.824C11.8717 19.824 12.6371 19.824 13.4117 19.824C13.4117 19.4413 13.4117 19.068 13.4117 18.676ZM14.5877 19.824C15.3717 19.824 16.1371 19.824 16.9024 19.824C16.9024 19.432 16.9024 19.0587 16.9024 18.676C16.1277 18.676 15.3624 18.676 14.5877 18.676C14.5877 19.0587 14.5877 19.432 14.5877 19.824ZM13.4117 21.0187C12.6277 21.0187 11.8624 21.0187 11.0877 21.0187C11.0877 21.196 11.0877 21.364 11.0877 21.5227C11.0877 21.9333 11.3211 22.1667 11.7317 22.1667C12.2451 22.1667 12.7491 22.1667 13.2624 22.1667C13.3184 22.1667 13.3651 22.1573 13.4211 22.1573C13.4117 21.7653 13.4117 21.392 13.4117 21.0187ZM16.9117 21.0093C16.1277 21.0093 15.3531 21.0093 14.5971 21.0093C14.5971 21.4013 14.5971 21.7747 14.5971 22.1667C15.1944 22.1667 15.7731 22.176 16.3517 22.1667C16.6504 22.1667 16.8837 21.9333 16.9117 21.644C16.9211 21.4387 16.9117 21.2333 16.9117 21.0093Z" fill="#757575"/>
<path d="M15.1665 8.74536C15.1665 7.98936 15.1665 7.24269 15.1665 6.48669C15.1665 5.43203 15.9225 4.67603 16.9772 4.67603C18.4892 4.67603 20.0012 4.67603 21.5132 4.67603C22.5678 4.67603 23.3238 5.43203 23.3238 6.48669C23.3238 7.99869 23.3238 9.51069 23.3238 11.0227C23.3238 12.0774 22.5678 12.8334 21.5132 12.8334C20.0012 12.8334 18.4892 12.8334 16.9772 12.8334C15.9225 12.8334 15.1665 12.0774 15.1665 11.0227C15.1665 10.2574 15.1665 9.50136 15.1665 8.74536ZM22.1665 7.00003C22.1665 6.80403 22.1665 6.62669 22.1665 6.44936C22.1572 6.07603 21.9145 5.84269 21.5412 5.83336C21.2238 5.83336 20.9065 5.83336 20.5892 5.83336C19.3758 5.83336 18.1718 5.83336 16.9585 5.83336C16.6318 5.83336 16.3798 6.01069 16.3332 6.30003C16.3052 6.52403 16.3238 6.75736 16.3238 6.99069C18.2838 7.00003 20.2158 7.00003 22.1665 7.00003ZM18.6572 8.18536C17.8732 8.18536 17.1078 8.18536 16.3425 8.18536C16.3425 8.57736 16.3425 8.95069 16.3425 9.32403C17.1172 9.32403 17.8825 9.32403 18.6572 9.32403C18.6572 8.94136 18.6572 8.56803 18.6572 8.18536ZM19.8425 9.32403C20.6265 9.32403 21.3918 9.32403 22.1572 9.32403C22.1572 8.93203 22.1572 8.55869 22.1572 8.17603C21.3825 8.17603 20.6172 8.17603 19.8425 8.17603C19.8425 8.55869 19.8425 8.94136 19.8425 9.32403ZM16.3332 10.5094C16.3332 10.696 16.3332 10.8734 16.3332 11.0507C16.3332 11.424 16.5758 11.6667 16.9492 11.6667C17.1265 11.6667 17.3132 11.6667 17.4905 11.6667C17.8732 11.6667 18.2652 11.6667 18.6572 11.6667C18.6572 11.2747 18.6572 10.892 18.6572 10.5094C17.8825 10.5094 17.1172 10.5094 16.3332 10.5094ZM22.1665 10.5187C21.3825 10.5187 20.6078 10.5187 19.8518 10.5187C19.8518 10.9107 19.8518 11.284 19.8518 11.676C20.4492 11.676 21.0372 11.6854 21.6252 11.676C21.9145 11.6667 22.1478 11.424 22.1665 11.1347C22.1758 10.9294 22.1665 10.724 22.1665 10.5187Z" fill="#757575"/>
<path d="M7.5877 16.0067C7.5877 16.912 7.5877 17.78 7.5877 18.6667C7.76503 18.6667 7.94236 18.6667 8.11036 18.6667C8.4837 18.6667 8.74503 18.9093 8.74503 19.2453C8.74503 19.5813 8.4837 19.824 8.11036 19.8333C7.7557 19.8333 7.3917 19.8333 7.03703 19.8333C6.65436 19.8333 6.4117 19.5907 6.4117 19.208C6.4117 18.2187 6.4117 17.2293 6.4117 16.24C6.4117 16.1747 6.4117 16.1093 6.4117 16.0067C6.3277 16.0813 6.2717 16.1373 6.2157 16.184C5.97303 16.3893 5.61836 16.3707 5.41303 16.1467C5.2077 15.9227 5.18903 15.5773 5.41303 15.3533C5.80503 14.952 6.19703 14.56 6.59836 14.168C6.82236 13.9533 7.14903 13.944 7.37303 14.1493C7.79303 14.5507 8.21303 14.9613 8.61436 15.3813C8.82903 15.6053 8.80103 15.96 8.57703 16.1747C8.36236 16.3893 8.01703 16.3987 7.7837 16.1933C7.7277 16.1373 7.6717 16.0813 7.5877 16.0067Z" fill="#7721AD"/>
<path d="M20.4026 18.6667C20.4026 17.7707 20.4026 16.9027 20.4026 16.0067C20.3279 16.0814 20.2719 16.128 20.2159 16.184C19.9826 16.3987 19.6279 16.3894 19.4133 16.1747C19.1893 15.9507 19.1799 15.596 19.3946 15.372C19.7866 14.9707 20.1879 14.5694 20.5893 14.1774C20.8319 13.944 21.1586 13.9534 21.4106 14.1867C21.8026 14.56 22.1759 14.9427 22.5586 15.3347C22.8013 15.5774 22.7919 15.9414 22.5586 16.1654C22.3253 16.3894 21.9799 16.38 21.7373 16.156C21.6906 16.1187 21.6533 16.072 21.5786 16.0067C21.5786 16.1 21.5786 16.1654 21.5786 16.2307C21.5786 17.2107 21.5786 18.1907 21.5786 19.1614C21.5786 19.6094 21.3546 19.8334 20.9066 19.8334C20.5613 19.8334 20.2159 19.8334 19.8706 19.8334C19.5066 19.8334 19.2453 19.5814 19.2453 19.2454C19.2453 18.9094 19.5066 18.676 19.8706 18.6667C20.0479 18.6667 20.2253 18.6667 20.4026 18.6667Z" fill="#7721AD"/>
</g>
<defs>
<clipPath id="clip0_210_355">
<rect width="28" height="28" fill="white"/>
</clipPath>
</defs>
</svg>
