<svg width="28" height="28" viewBox="0 0 28 28" fill="none" xmlns="http://www.w3.org/2000/svg">
<g clip-path="url(#clip0_210_263)">
<path d="M27.83 3.95007C27.5708 2.93365 27.0115 2.01895 26.2249 1.32507C25.4382 0.631194 24.4609 0.190432 23.42 0.0601807C23.3756 0.0505956 23.3344 0.0298999 23.3 0.00012207H4.69995C4.44995 0.0601221 4.19995 0.100166 3.94995 0.170166C2.93159 0.425524 2.0147 0.983646 1.32019 1.771C0.62568 2.55835 0.186317 3.53781 0.0600586 4.58008C0.0504735 4.62449 0.0297778 4.66576 0 4.70007V23.3002C0.06 23.5502 0.100044 23.8002 0.170044 24.0502C0.429183 25.0666 0.988512 25.9813 1.77515 26.6752C2.56178 27.3691 3.53914 27.8099 4.57996 27.9402C4.62437 27.9498 4.66564 27.9703 4.69995 28.0001H23.3C23.66 27.9101 24.04 27.8501 24.39 27.7301C25.3036 27.4384 26.1184 26.8988 26.7434 26.1714C27.3684 25.444 27.7792 24.5572 27.9301 23.6101C27.9301 23.5101 27.93 23.4102 28 23.3102V4.71008C27.94 4.46008 27.9 4.20007 27.83 3.95007Z" fill="white"/>
<path d="M19.0626 6.8078H22.4722C22.9306 6.8078 23.0515 6.92612 23.0515 7.37371C23.0515 12.7703 23.0515 18.1667 23.0515 23.5631C23.0515 24.0197 22.9396 24.1314 22.4802 24.1314H10.5714C10.114 24.1314 10.0073 24.0218 10.007 23.5562C10.007 22.8305 10.007 22.1046 10.007 21.334H9.71405C8.64516 21.334 7.57628 21.334 6.50739 21.334C6.12386 21.334 6.0009 21.2177 6.0009 20.8424C5.9997 15.4012 5.9997 9.95992 6.0009 4.51843C6.0009 4.14621 6.13492 4.01091 6.50122 4.01091C10.5248 4.00971 14.5486 4.00971 18.5726 4.01091C18.9281 4.01091 19.0614 4.14776 19.0632 4.49759C19.0639 5.25771 19.0626 6.01758 19.0626 6.8078ZM10.769 23.3445H22.2755V7.58129H10.769V23.3445ZM10.0055 20.5551V7.37165C10.0055 6.95519 10.0593 6.88008 10.4482 6.74966C12.0633 6.2081 13.6782 5.66663 15.2929 5.12524C15.6111 5.01849 15.9278 4.90711 16.2447 4.79778L16.2354 4.76357H6.81067V20.5551H10.0055ZM18.3141 4.92486L12.8631 6.75249L12.8777 6.78876H18.3141V4.92486Z" fill="#757575"/>
<path d="M15.8286 10.7255C15.8286 11.1646 15.8315 11.6037 15.8286 12.0428C15.8258 12.345 15.6885 12.4929 15.3862 12.495C14.5063 12.501 13.6264 12.501 12.7465 12.495C12.4185 12.4927 12.2734 12.3383 12.2727 12.0119C12.2704 11.1426 12.2704 10.2735 12.2727 9.40435C12.274 9.0841 12.4111 8.94853 12.7336 8.94751C13.6137 8.94442 14.4936 8.94442 15.3733 8.94751C15.6967 8.94879 15.8266 9.08358 15.8286 9.40795C15.8307 9.8473 15.8286 10.2864 15.8286 10.7255ZM13.0603 9.70943V11.6986H15.0557V9.70943H13.0603Z" fill="#757575"/>
<path d="M18.9625 9.49801C19.3926 9.49801 19.823 9.49569 20.2531 9.49801C20.5617 9.50032 20.7325 9.63691 20.7382 9.87871C20.7439 10.1336 20.5749 10.2769 20.2453 10.2782C19.3939 10.2815 18.5426 10.2815 17.6913 10.2782C17.3752 10.2782 17.1822 10.1192 17.1866 9.88077C17.191 9.63614 17.3728 9.49852 17.699 9.49723C18.1201 9.49569 18.5414 9.49801 18.9625 9.49801Z" fill="#757575"/>
<path d="M18.9702 11.9121C18.5304 11.9121 18.0905 11.9146 17.6506 11.9121C17.3677 11.9097 17.1928 11.7631 17.1876 11.5342C17.1825 11.3052 17.3556 11.1452 17.6357 11.144C18.5336 11.1398 19.4315 11.1398 20.3292 11.144C20.5959 11.144 20.7603 11.2968 20.7642 11.5182C20.7683 11.7521 20.5972 11.9085 20.3179 11.911C19.8682 11.9154 19.4204 11.9121 18.9702 11.9121Z" fill="#757575"/>
<path d="M15.8287 15.4789C15.8287 15.9179 15.8312 16.3573 15.8287 16.7967C15.8261 17.1053 15.6944 17.2422 15.3867 17.2437C14.4978 17.2478 13.6086 17.2478 12.7192 17.2437C12.4131 17.2424 12.2745 17.1038 12.2732 16.7987C12.2696 15.9113 12.2696 15.0237 12.2732 14.1361C12.2748 13.8488 12.4167 13.6988 12.703 13.6973C13.6013 13.6909 14.4996 13.6909 15.3978 13.6973C15.6939 13.6996 15.8264 13.8516 15.8287 14.1603C15.831 14.6001 15.8287 15.0395 15.8287 15.4789ZM15.0508 16.4718V14.4633H13.0701V16.4718H15.0508Z" fill="#757575"/>
<path d="M18.9806 16.6938C18.5405 16.6938 18.1006 16.6971 17.6605 16.6938C17.3624 16.6907 17.1808 16.5327 17.1862 16.2953C17.1916 16.0687 17.3662 15.9164 17.651 15.9146C18.531 15.91 19.411 15.91 20.291 15.9146C20.5922 15.9161 20.7691 16.0738 20.7632 16.3128C20.7573 16.5518 20.5816 16.692 20.2745 16.6943C19.8426 16.6963 19.4117 16.6938 18.9806 16.6938Z" fill="#757575"/>
<path d="M18.9833 14.2802C19.4232 14.2802 19.8631 14.2776 20.3029 14.2802C20.5903 14.2825 20.7588 14.4248 20.7639 14.6583C20.7691 14.8919 20.6003 15.047 20.3176 15.0483C19.4199 15.0526 18.5221 15.0526 17.6244 15.0483C17.36 15.0468 17.1915 14.8916 17.1871 14.673C17.1827 14.4446 17.3602 14.2838 17.6362 14.281C18.0846 14.2766 18.5334 14.2802 18.9833 14.2802Z" fill="#757575"/>
<rect x="13" y="14.01" width="12" height="12" rx="6" fill="white"/>
<path d="M19.2922 25.01H18.7452C18.6034 24.9941 18.461 24.9816 18.3196 24.9611C17.6116 24.8661 16.933 24.6171 16.3316 24.2317C16.3072 24.214 16.2788 24.2026 16.2489 24.1987C16.219 24.1948 16.1886 24.1984 16.1604 24.2092C15.8275 24.3194 15.4929 24.4253 15.159 24.5322L14.3317 24.7958C14.3446 24.754 14.3522 24.7268 14.3613 24.7002C14.5428 24.1583 14.7213 23.6154 14.909 23.0755C14.9439 22.9745 14.9315 22.9043 14.8725 22.8185C14.3851 22.1183 14.0914 21.3018 14.0213 20.4517C13.9276 19.383 14.1414 18.3751 14.7047 17.461C15.6396 15.9449 17.0092 15.1213 18.7897 15.0184C19.7755 14.9611 20.7034 15.1986 21.5478 15.7133C22.8459 16.5046 23.6419 17.6515 23.9222 19.1493C23.9572 19.3368 23.9746 19.5276 24 19.7168V20.3037C23.992 20.3738 23.9839 20.4441 23.9755 20.5145C23.8562 21.5868 23.4479 22.5336 22.7265 23.3369C21.9555 24.1955 20.9993 24.7308 19.8607 24.9325C19.6726 24.9657 19.4818 24.9846 19.2922 25.01ZM20.616 22.8275C20.7765 22.7967 20.9152 22.786 21.0424 22.7427C21.7505 22.5013 21.9915 22.1592 22.0123 21.508C22.0157 21.4051 21.9797 21.3347 21.8851 21.2897C21.5125 21.1126 21.1424 20.93 20.7684 20.7559C20.5774 20.6671 20.4653 20.7033 20.3386 20.8735C20.2408 21.0041 20.1466 21.1361 20.0466 21.2647C19.8942 21.4604 19.7865 21.4848 19.5551 21.3904C18.732 21.0542 18.12 20.4776 17.6606 19.7276C17.5686 19.5772 17.5735 19.5139 17.6905 19.3784C17.7839 19.2701 17.8808 19.1647 17.974 19.0561C18.0889 18.9221 18.1374 18.7776 18.0425 18.6096C18.0198 18.5628 17.9996 18.5149 17.982 18.466C17.8399 18.1313 17.7002 17.7953 17.5523 17.4635C17.5278 17.4097 17.4723 17.3456 17.4202 17.3334C17.1538 17.2715 16.8852 17.2673 16.6562 17.4432C16.4498 17.6048 16.2937 17.8218 16.2061 18.0689C16.0232 18.5599 16.0819 19.0383 16.2844 19.51C16.4331 19.8569 16.6513 20.1607 16.8732 20.4612C17.244 20.9691 17.6824 21.4241 18.1763 21.8135C18.7102 22.2292 19.3198 22.4923 19.9619 22.6842C20.1813 22.7486 20.4101 22.783 20.616 22.8275Z" fill="#8A1BB1"/>
</g>
<defs>
<clipPath id="clip0_210_263">
<rect width="28" height="28" fill="white"/>
</clipPath>
</defs>
</svg>
