<svg width="28" height="28" viewBox="0 0 28 28" fill="none" xmlns="http://www.w3.org/2000/svg">
<g clip-path="url(#clip0_210_315)">
<path d="M27.832 3.93866C27.3373 1.89466 25.4893 0.270662 23.4173 0.0466616C23.38 0.0466616 23.3333 0.00932829 23.296 -0.00933838C17.0987 -5.04497e-06 10.9013 -5.04497e-06 4.704 -5.04497e-06C4.452 0.055995 4.2 0.102662 3.948 0.167995C1.89467 0.662662 0.270667 2.51066 0.056 4.58266C0.056 4.61999 0.0186667 4.66666 0 4.70399C0 10.9013 0 17.0987 0 23.296C0.056 23.548 0.102667 23.8 0.168 24.052C0.662667 26.096 2.51067 27.72 4.58267 27.944C4.62 27.944 4.66667 27.9813 4.704 28C10.9013 28 17.0987 28 23.296 28C23.66 27.9067 24.0427 27.8507 24.388 27.7293C26.3573 27.0387 27.5147 25.6387 27.9347 23.6133C27.9533 23.5107 27.972 23.408 28 23.3053C28 17.108 28 10.9107 28 4.71333C27.944 4.45199 27.8973 4.19066 27.832 3.93866Z" fill="white"/>
<path d="M7.51318 12.0587V14.8587H12.9545V13.8134H13.7105C14.5412 13.8134 15.3999 13.8134 16.2492 13.8134C16.3145 13.8134 16.3985 13.8414 16.4545 13.888C17.2385 14.4854 18.0692 15.12 19.0679 15.8947C19.1052 15.9227 19.1332 15.9787 19.1425 15.988C19.1519 16.436 19.1519 16.884 19.1425 17.3227V17.612H17.5652V19.88H19.1332C19.1332 19.908 19.1332 19.936 19.1332 19.9547V20.1974C19.1332 20.6454 19.1332 21.112 19.1332 21.5694C19.1332 21.6067 19.1052 21.6534 19.0959 21.6627C18.7412 21.868 18.5825 22.1667 18.6199 22.5494C18.6572 22.9134 18.8812 23.1747 19.2545 23.296L19.2639 23.3054C19.2732 23.3054 19.2732 23.3147 19.2825 23.3147L19.3012 23.324H19.6465L19.6652 23.3147C19.6745 23.3147 19.6838 23.3054 19.6838 23.3054C19.6932 23.296 19.7119 23.296 19.7212 23.2867C20.1132 23.1654 20.3279 22.8854 20.3559 22.4934C20.3745 22.1387 20.2158 21.8494 19.8705 21.6627C19.8518 21.6534 19.8332 21.6067 19.8332 21.588C19.8239 21.1307 19.8332 20.664 19.8332 20.2067V19.9547C19.8332 19.9267 19.8332 19.908 19.8332 19.8707H21.4105V17.5934H19.8332C19.8332 17.472 19.8332 17.36 19.8332 17.248C19.8332 16.828 19.8332 16.436 19.8332 16.0347C19.8332 15.96 19.8519 15.9227 19.9079 15.876C20.4025 15.5027 20.8972 15.12 21.3825 14.7467C21.7279 14.4854 22.0732 14.2147 22.4092 13.9534C22.5305 13.86 22.6705 13.7574 22.7919 13.6734C22.8478 13.6267 22.9132 13.5894 22.9692 13.5427L23.0065 13.5147V13.4027L22.4745 12.992C22.0919 12.6934 21.6999 12.404 21.3172 12.1054C21.1398 11.9654 20.9625 11.8347 20.7852 11.6947C20.4958 11.48 20.2065 11.2467 19.9172 11.032C19.8612 10.9854 19.8425 10.948 19.8425 10.8734C19.8519 10.4627 19.8519 10.0334 19.8425 9.5667C19.8425 9.50137 19.8519 9.4827 19.9079 9.4547C20.2532 9.27737 20.4305 8.9227 20.3559 8.5307C20.2999 8.17604 20.0105 7.8867 19.6372 7.82137C19.2639 7.75604 18.9092 7.9427 18.7412 8.26937C18.7132 8.3347 18.6852 8.3347 18.6012 8.3347C16.1839 8.3347 13.7572 8.3347 11.3399 8.3347H9.90252V12.0307H7.51318V12.0587ZM12.2545 13.832V14.1774H8.73585V13.832H12.2545ZM8.21318 13.1134V12.768H12.2638V13.1134H8.21318ZM19.1332 10.8827C19.1332 10.9667 19.1145 11.0134 19.0399 11.06C18.6385 11.3587 18.2372 11.676 17.8545 11.9747C17.3879 12.3294 16.9118 12.6934 16.4452 13.0574C16.3985 13.0947 16.3145 13.1227 16.2492 13.1227C15.3439 13.1227 14.4292 13.1227 13.5425 13.1227H13.0479C13.0199 13.1227 12.9919 13.1227 12.9545 13.1227V12.0587H10.5839V9.05337H12.5999C14.5599 9.05337 16.5852 9.05337 18.5732 9.05337C18.6572 9.05337 18.6852 9.07204 18.7225 9.13737C18.7972 9.2587 18.9185 9.3707 19.0492 9.46404C19.1145 9.5107 19.1238 9.52937 19.1238 9.5947C19.1332 9.94937 19.1238 10.416 19.1332 10.8827Z" fill="#757575"/>
<path d="M15.8573 17.6307H8.30664V21.4667H15.8573V17.6307ZM14.1026 20.44V20.776H8.98797V20.44H14.1026ZM14.1026 19.376V19.712H8.99731V19.376H14.1026ZM14.1026 18.3213V18.6667H8.99731V18.3213H14.1026ZM15.1666 20.44V20.7853H14.8213V20.44H15.1666ZM14.812 18.6667V18.3213H15.1573V18.6667H14.812ZM15.1573 19.376V19.712H14.812V19.376H15.1573Z" fill="#757575"/>
<path d="M5.15197 15.764C5.19864 15.764 5.25464 15.764 5.3013 15.764C5.48797 15.7173 5.59064 15.596 5.64664 15.4187C5.8333 14.8587 6.0853 14.336 6.4213 13.8507C6.9813 13.0293 7.72797 12.4227 8.6333 12.0213C9.29597 11.732 9.99597 11.564 10.7053 11.48C10.9946 11.452 11.2746 11.4333 11.5826 11.4053C11.5826 11.4613 11.5826 11.4987 11.5826 11.536C11.5826 12.1427 11.5826 12.74 11.5826 13.3467C11.5826 13.44 11.62 13.5613 11.676 13.636C11.8346 13.8507 12.124 13.8227 12.3106 13.5987C13.4493 12.2173 14.5786 10.8267 15.708 9.43601C15.792 9.33334 15.8573 9.22134 15.932 9.10934C15.932 9.05334 15.932 8.99734 15.932 8.93201C15.8666 8.83867 15.8106 8.73601 15.736 8.65201C15.6053 8.49334 15.4653 8.35334 15.3346 8.20401C14.3453 7.09334 13.3466 5.98267 12.3386 4.86267C12.3013 4.81601 12.2546 4.76934 12.208 4.73201C12.0773 4.64801 11.9466 4.63867 11.8066 4.70401C11.6666 4.77867 11.592 4.90001 11.592 5.06801C11.592 5.68401 11.592 6.30001 11.592 6.92534C11.592 6.96267 11.592 7.00001 11.592 7.04667C11.396 7.06534 11.2 7.08401 11.0133 7.11201C10.1173 7.23334 9.28664 7.52267 8.5213 7.98934C7.15864 8.82001 6.2253 10.0053 5.6093 11.452C5.09597 12.656 4.87197 13.9253 4.8533 15.2413C4.84397 15.4933 4.91864 15.6707 5.15197 15.764Z" fill="#7721AD"/>
</g>
<defs>
<clipPath id="clip0_210_315">
<rect width="28" height="28" fill="white"/>
</clipPath>
</defs>
</svg>
