<svg width="28" height="28" viewBox="0 0 28 28" fill="none" xmlns="http://www.w3.org/2000/svg">
<g clip-path="url(#clip0_210_35)">
<path d="M27.832 3.93872C27.3373 1.89472 25.4893 0.270723 23.4173 0.0467227C23.38 0.0467227 23.3333 0.00938932 23.296 -0.00927734C17.0987 5.59902e-05 10.9013 5.59902e-05 4.704 5.59902e-05C4.452 0.056056 4.2 0.102723 3.948 0.168056C1.89467 0.662723 0.270667 2.51072 0.056 4.58272C0.056 4.62006 0.0186667 4.66672 0 4.70406C0 10.9014 0 17.0987 0 23.2961C0.056 23.5481 0.102667 23.8001 0.168 24.0521C0.662667 26.0961 2.51067 27.7201 4.58267 27.9441C4.62 27.9441 4.66667 27.9814 4.704 28.0001C10.9013 28.0001 17.0987 28.0001 23.296 28.0001C23.66 27.9067 24.0427 27.8507 24.388 27.7294C26.3573 27.0387 27.5147 25.6387 27.9347 23.6134C27.9533 23.5107 27.972 23.4081 28 23.3054C28 17.1081 28 10.9107 28 4.71339C27.944 4.45206 27.8973 4.19072 27.832 3.93872Z" fill="white"/>
<path d="M21.2471 22.58L21.2471 22.58L21.2414 22.5838C21.1699 22.6325 21.0814 22.6748 20.9643 22.7204C20.9063 22.7429 20.8467 22.7644 20.7794 22.7885L20.7775 22.7892C20.7391 22.803 20.6981 22.8177 20.656 22.8333H7.32724C7.27699 22.8186 7.22627 22.8051 7.18479 22.7941C7.16207 22.788 7.14213 22.7827 7.12655 22.7783C7.04827 22.7564 7.00349 22.7398 6.97251 22.7234L6.96609 22.72L6.95957 22.7168C6.71444 22.596 6.55703 22.4449 6.45714 22.2744C6.35579 22.1014 6.2959 21.8779 6.2959 21.588V12.8573H21.7039V21.672C21.7039 22.078 21.5551 22.3767 21.2471 22.58Z" stroke="#757575"/>
<path d="M15.6517 15.6427C16.1931 15.6427 16.7157 15.6427 17.2384 15.6427C17.5931 15.6427 17.8357 15.4093 17.8264 15.092C17.8171 14.784 17.5837 14.5507 17.2384 14.5507C16.5384 14.5507 15.8384 14.5507 15.1384 14.5507C14.7744 14.5507 14.5504 14.7747 14.5411 15.1387C14.5411 15.8387 14.5411 16.5387 14.5411 17.2387C14.5411 17.612 14.7651 17.8267 15.1291 17.836C15.4557 17.836 15.7824 17.836 16.1091 17.836C16.4731 17.836 16.7251 18.06 16.7251 18.3867C16.7251 18.704 16.4731 18.928 16.1184 18.928C15.7917 18.928 15.4651 18.928 15.1384 18.928C14.7837 18.928 14.5411 19.1613 14.5411 19.4787C14.5411 19.7867 14.7837 20.02 15.1291 20.02C15.4651 20.02 15.8104 20.02 16.1464 20.02C16.5757 20.0107 16.9584 19.8893 17.2757 19.5907C17.7517 19.1427 17.9291 18.5827 17.7517 17.948C17.5651 17.2853 17.1171 16.884 16.4357 16.772C16.1744 16.7253 15.9037 16.7347 15.6424 16.7253C15.6517 16.3613 15.6517 16.0067 15.6517 15.6427ZM11.6757 18.9187C11.7504 18.816 11.7971 18.7507 11.8531 18.6853C12.2637 18.1253 12.7024 17.5933 13.0851 17.0147C13.6357 16.1653 13.1784 14.952 12.2171 14.644C11.1344 14.2987 10.0797 15.036 10.0424 16.1653C10.0331 16.4547 10.2571 16.7067 10.5464 16.7347C10.8264 16.7533 11.0877 16.548 11.1251 16.268C11.1344 16.1933 11.1437 16.1187 11.1531 16.0533C11.2277 15.7827 11.4984 15.6053 11.7597 15.652C12.0397 15.6987 12.2451 15.9413 12.2077 16.2213C12.1891 16.3613 12.1144 16.5013 12.0397 16.6133C11.4331 17.4347 10.8077 18.256 10.1917 19.0773C10.0424 19.2733 9.97708 19.4787 10.0984 19.7027C10.2104 19.936 10.4157 20.02 10.6677 20.02C11.3864 20.02 12.1144 20.02 12.8331 20.02C13.2064 20.02 13.4491 19.796 13.4491 19.4693C13.4491 19.1427 13.1971 18.928 12.8237 18.928C12.4597 18.9187 12.0957 18.9187 11.6757 18.9187Z" fill="#7721AD"/>
<path d="M22.2041 8.69872C22.2041 8.54938 22.1948 8.39072 22.1761 8.24139C22.0735 7.48539 21.3361 6.86005 20.5615 6.89739C20.5615 7.28939 20.5708 7.68138 20.5615 8.07338C20.5148 9.42672 19.1895 10.4254 17.8735 10.0987C16.8841 9.85605 16.2028 9.00672 16.1935 7.98005C16.1841 7.61605 16.1935 7.25205 16.1935 6.88805C14.7281 6.88805 13.2815 6.88805 11.8161 6.88805C11.8161 7.28939 11.8255 7.69072 11.8161 8.08272C11.7788 9.19338 10.8455 10.1174 9.73481 10.1547C8.48414 10.2014 7.46681 9.24005 7.44814 7.98938C7.43881 7.62538 7.44814 7.26138 7.44814 6.86938C7.28947 6.89738 7.15881 6.90672 7.02814 6.94405C6.25347 7.16805 5.80547 7.77472 5.79614 8.58672C5.78681 9.42672 5.79614 10.2761 5.79614 11.1161C5.79614 11.1627 5.80547 11.2094 5.80547 11.2467C11.2748 11.2467 16.7348 11.2467 22.2041 11.2467C22.2041 10.3881 22.2041 9.54805 22.2041 8.69872Z" fill="#7721AD"/>
<path d="M8.65226 8.45602C8.86693 8.91335 9.36159 9.14668 9.84693 9.04402C10.3509 8.94135 10.6963 8.53068 10.7149 7.99868C10.7243 7.61602 10.7149 7.23335 10.7149 6.85068C10.7149 6.50535 10.7243 6.16002 10.7056 5.81468C10.6963 5.63735 10.6683 5.45068 10.5936 5.29202C10.3789 4.82535 9.88426 4.59202 9.38959 4.69468C8.87626 4.80668 8.53093 5.22668 8.53093 5.76802C8.52159 6.50535 8.52159 7.23335 8.53093 7.97068C8.54026 8.13868 8.57759 8.30668 8.65226 8.45602Z" fill="#7721AD"/>
<path d="M17.4067 8.46529C17.6213 8.92263 18.116 9.15596 18.6013 9.05329C19.1053 8.95063 19.4507 8.53063 19.4693 8.00796C19.4787 7.63463 19.4693 7.25196 19.4693 6.87863C19.4693 6.52396 19.4787 6.16929 19.46 5.82396C19.4507 5.64663 19.4227 5.45996 19.348 5.30129C19.1333 4.83463 18.6387 4.60129 18.144 4.70396C17.6307 4.81596 17.2853 5.23596 17.2853 5.77729C17.276 6.51463 17.276 7.24263 17.2853 7.97996C17.2947 8.13863 17.332 8.31596 17.4067 8.46529Z" fill="#7721AD"/>
</g>
<defs>
<clipPath id="clip0_210_35">
<rect width="28" height="28" fill="white"/>
</clipPath>
</defs>
</svg>
