<svg width="28" height="28" viewBox="0 0 28 28" fill="none" xmlns="http://www.w3.org/2000/svg">
<g clip-path="url(#clip0_210_17)">
<path d="M27.832 3.93867C27.3373 1.89467 25.4893 0.270669 23.4173 0.0466692C23.38 0.0466692 23.3333 0.00933592 23.296 -0.00933075C17.0987 2.58349e-06 10.9013 2.58349e-06 4.704 2.58349e-06C4.452 0.0560026 4.2 0.102669 3.948 0.168003C1.89467 0.662669 0.270667 2.51067 0.056 4.58267C0.056 4.62 0.0186667 4.66667 0 4.704C0 10.9013 0 17.0987 0 23.296C0.056 23.548 0.102667 23.8 0.168 24.052C0.662667 26.096 2.51067 27.72 4.58267 27.944C4.62 27.944 4.66667 27.9813 4.704 28C10.9013 28 17.0987 28 23.296 28C23.66 27.9067 24.0427 27.8507 24.388 27.7293C26.3573 27.0387 27.5147 25.6387 27.9347 23.6133C27.9533 23.5107 27.972 23.408 28 23.3053C28 17.108 28 10.9107 28 4.71334C27.944 4.452 27.8973 4.19067 27.832 3.93867Z" fill="white"/>
<path d="M17.9163 21.1355V22.3776H19.4804V15.2624H19.1201C18.016 15.2624 16.9119 15.2624 15.8078 15.2624C15.7541 15.2624 15.7158 15.2777 15.7005 15.293L15.5854 15.339V17.2405H16.8276V16.5275H18.66V21.1432H17.9163V21.1355Z" fill="#7721AD"/>
<path d="M23 17.2405V15.2701H19.105V22.3776H20.6614V21.1279H19.9177V16.5198H21.7655V17.2405H23Z" fill="#7721AD"/>
<path d="M7 11H20V13.2H7V11ZM7 8.2H20V6H7V8.2ZM7 18.2H14.5197V16H7V18.2Z" fill="#757575"/>
<circle cx="5" cy="7" r="1" fill="#757575"/>
<circle cx="5" cy="7" r="1" fill="#757575"/>
<circle cx="5" cy="7" r="1" fill="#757575"/>
<circle cx="5" cy="7" r="1" fill="#757575"/>
<circle cx="5" cy="7" r="1" fill="#757575"/>
<circle cx="5" cy="12" r="1" fill="#757575"/>
<circle cx="5" cy="12" r="1" fill="#757575"/>
<circle cx="5" cy="12" r="1" fill="#757575"/>
<circle cx="5" cy="12" r="1" fill="#757575"/>
<circle cx="5" cy="12" r="1" fill="#757575"/>
<circle cx="5" cy="17" r="1" fill="#757575"/>
<circle cx="5" cy="17" r="1" fill="#757575"/>
<circle cx="5" cy="17" r="1" fill="#757575"/>
<circle cx="5" cy="17" r="1" fill="#757575"/>
<circle cx="5" cy="17" r="1" fill="#757575"/>
</g>
<defs>
<clipPath id="clip0_210_17">
<rect width="28" height="28" fill="white"/>
</clipPath>
</defs>
</svg>
