<svg width="28" height="28" viewBox="0 0 28 28" fill="none" xmlns="http://www.w3.org/2000/svg">
<g clip-path="url(#clip0_210_324)">
<path d="M27.832 3.93866C27.3373 1.89466 25.4893 0.270662 23.4173 0.0466616C23.38 0.0466616 23.3333 0.00932829 23.296 -0.00933838C17.0987 -5.04497e-06 10.9013 -5.04497e-06 4.704 -5.04497e-06C4.452 0.055995 4.2 0.102662 3.948 0.167995C1.89467 0.662662 0.270667 2.51066 0.056 4.58266C0.056 4.61999 0.0186667 4.66666 0 4.70399C0 10.9013 0 17.0987 0 23.296C0.056 23.548 0.102667 23.8 0.168 24.052C0.662667 26.096 2.51067 27.72 4.58267 27.944C4.62 27.944 4.66667 27.9813 4.704 28C10.9013 28 17.0987 28 23.296 28C23.66 27.9067 24.0427 27.8507 24.388 27.7293C26.3573 27.0387 27.5147 25.6387 27.9347 23.6133C27.9533 23.5107 27.972 23.408 28 23.3053C28 17.108 28 10.9107 28 4.71333C27.944 4.45199 27.8973 4.19066 27.832 3.93866Z" fill="white"/>
<path d="M15.9574 7.78552C11.7014 7.78552 8.23877 10.9869 8.23877 14.9255C8.23877 17.1749 9.35877 19.1815 11.1134 20.4882V23.2135L13.7361 21.7762C14.4361 21.9722 15.1828 22.0749 15.9481 22.0749C20.2041 22.0749 23.6668 18.8735 23.6668 14.9349C23.6668 10.9962 20.2228 7.78552 15.9574 7.78552ZM16.7321 17.4082L14.7721 15.3082L10.9361 17.4082L15.1548 12.9282L17.1708 15.0282L20.9601 12.9282L16.7321 17.4082Z" fill="#7721AD"/>
<path d="M5.31733 15.2989C5.37333 15.2989 5.42 15.2989 5.476 15.2989C5.66267 15.2522 5.76533 15.1215 5.83067 14.9442C6.02667 14.3749 6.27867 13.8429 6.61467 13.3482C7.184 12.5082 7.94 11.8922 8.87333 11.4815C9.54533 11.1829 10.2547 11.0149 10.992 10.9309C11.2813 10.8935 11.58 10.8842 11.8787 10.8562C11.8787 10.9122 11.8787 10.9495 11.8787 10.9869C11.8787 11.6029 11.8787 12.2189 11.8787 12.8349C11.8787 12.9375 11.916 13.0495 11.972 13.1335C12.1307 13.3482 12.4293 13.3295 12.6253 13.0962C13.7827 11.6869 14.94 10.2682 16.0973 8.85887C16.1813 8.75621 16.2467 8.63487 16.3213 8.52287C16.3213 8.46688 16.3213 8.40154 16.3213 8.34554C16.256 8.25221 16.1907 8.14954 16.116 8.06554C15.9853 7.90687 15.8453 7.75754 15.7053 7.60821C14.6787 6.46954 13.6613 5.34021 12.6347 4.20154C12.5973 4.15487 12.5507 4.10821 12.4947 4.07088C12.364 3.98688 12.224 3.97754 12.084 4.04287C11.9347 4.11754 11.8693 4.24821 11.8693 4.40688C11.8693 5.03221 11.8693 5.66687 11.8693 6.29221C11.8693 6.32954 11.8693 6.37621 11.8693 6.41354C11.664 6.43221 11.4773 6.45087 11.2813 6.47887C10.376 6.60021 9.52667 6.89888 8.74267 7.37488C7.36133 8.21488 6.4 9.42821 5.77467 10.9029C5.252 12.1349 5.028 13.4322 5 14.7669C5.00933 15.0189 5.07467 15.2055 5.31733 15.2989Z" fill="white" stroke="#757575"/>
</g>
<defs>
<clipPath id="clip0_210_324">
<rect width="28" height="28" fill="white"/>
</clipPath>
</defs>
</svg>
