<svg width="28" height="28" viewBox="0 0 28 28" fill="none" xmlns="http://www.w3.org/2000/svg">
<g clip-path="url(#clip0_210_79)">
<path d="M27.832 3.93866C27.3373 1.89466 25.4893 0.270662 23.4173 0.0466616C23.38 0.0466616 23.3333 0.00932829 23.296 -0.00933838C17.0987 -5.04497e-06 10.9013 -5.04497e-06 4.704 -5.04497e-06C4.452 0.055995 4.2 0.102662 3.948 0.167995C1.89467 0.662662 0.270667 2.51066 0.056 4.58266C0.056 4.61999 0.0186667 4.66666 0 4.70399C0 10.9013 0 17.0987 0 23.296C0.056 23.548 0.102667 23.8 0.168 24.052C0.662667 26.096 2.51067 27.72 4.58267 27.944C4.62 27.944 4.66667 27.9813 4.704 28C10.9013 28 17.0987 28 23.296 28C23.66 27.9067 24.0427 27.8507 24.388 27.7293C26.3573 27.0387 27.5147 25.6387 27.9347 23.6133C27.9533 23.5107 27.972 23.408 28 23.3053C28 17.108 28 10.9107 28 4.71333C27.944 4.45199 27.8973 4.19066 27.832 3.93866Z" fill="white"/>
<path d="M14.2051 4.53601L14.1771 4.52667H13.8225L13.7945 4.53601C13.3558 4.73201 13.2998 5.10534 13.2998 5.41334C13.3091 6.56134 13.3091 7.72801 13.3091 8.85734C13.3091 9.32401 13.3091 9.79067 13.3091 10.2667C13.3091 11.1253 13.3091 11.9747 13.3091 12.8333V14H14.6718C14.6718 13.944 14.6718 13.8133 14.6718 13.7667V11.7227C14.6718 9.66001 14.6718 7.52267 14.6811 5.42267C14.6905 5.11467 14.6345 4.73201 14.2051 4.53601Z" fill="#7721AD"/>
<path d="M5.46909 12.3107C5.20776 12.1987 4.94642 12.2547 4.73176 12.46C4.67576 12.516 4.63842 12.572 4.59176 12.6373C4.57309 12.6653 4.56376 12.684 4.54509 12.7027L4.51709 12.74V14H5.88909C5.88909 13.8973 5.88909 13.7947 5.88909 13.6827C5.88909 13.4307 5.88909 13.1787 5.88909 12.9267C5.89842 12.6467 5.73976 12.432 5.46909 12.3107Z" fill="#7721AD"/>
<path d="M23.4264 12.684C23.417 12.6653 23.4077 12.656 23.3984 12.6373C23.2304 12.3387 22.9317 12.1987 22.6424 12.2827C22.3064 12.376 22.1104 12.628 22.1104 12.9827C22.1104 13.216 22.1104 13.4587 22.1104 13.692V13.9907H23.4824V12.74L23.4264 12.684Z" fill="#7721AD"/>
<path d="M11.7691 7.336C11.3957 7.35467 11.1157 7.644 11.1157 8.02667C11.1157 9.53867 11.1157 11.06 11.1157 12.572V14H12.4877V8.02667C12.4877 8.008 12.4877 7.99867 12.4877 7.98C12.4597 7.60667 12.1331 7.31733 11.7691 7.336Z" fill="#7721AD"/>
<path d="M16.2024 7.336C16.0158 7.336 15.8384 7.41067 15.7078 7.54133C15.5771 7.672 15.5024 7.84933 15.5024 8.036C15.5024 9.53867 15.5024 11.0413 15.5024 12.544V14.0093H16.8744V12.5533C16.8744 11.0413 16.8744 9.53867 16.8744 8.02667C16.8744 7.63467 16.5851 7.336 16.2024 7.336Z" fill="#7721AD"/>
<path d="M9.97709 9.93068C9.74375 9.79068 9.50109 9.78134 9.26775 9.92134C9.03442 10.0613 8.91309 10.2853 8.91309 10.5933C8.91309 12.8613 8.93175 13.9813 8.94109 14H10.3131V13.1133C10.3131 12.2547 10.3131 11.4053 10.3131 10.5467C10.3038 10.276 10.1918 10.0707 9.97709 9.93068Z" fill="#7721AD"/>
<path d="M19.0958 10.612V10.5933C19.0958 10.5747 19.0958 10.556 19.0958 10.5373C19.0771 10.136 18.7691 9.81866 18.3958 9.81866C18.0131 9.81866 17.7051 10.1453 17.6958 10.5467C17.6958 11.3773 17.6958 12.2173 17.6958 13.048V14H18.7971H19.0771C19.0771 13.9813 19.0865 14.0187 19.0865 14C19.0958 13.944 19.1051 14.056 19.1051 14C19.1051 11.9933 19.0958 13.3373 19.0958 11.3213V10.612Z" fill="#7721AD"/>
<path d="M7.41039 11.1627C7.41039 11.1627 7.40106 11.1627 7.41039 11.1627C7.04639 11.1627 6.72906 11.48 6.71973 11.8533C6.71973 12.3667 6.71973 12.88 6.71973 13.384C6.71973 13.5893 6.71973 13.7947 6.71973 14H8.08239V13.384C8.08239 12.88 8.08239 12.3667 8.08239 11.8627C8.09173 11.4707 7.79306 11.1627 7.41039 11.1627Z" fill="#7721AD"/>
<path d="M20.589 11.1627C20.197 11.1627 19.9077 11.4707 19.9077 11.8627C19.9077 12.3667 19.9077 12.8707 19.9077 13.3747V14H21.2797C21.2797 13.7947 21.2797 13.5893 21.2797 13.384C21.2797 12.88 21.2797 12.3573 21.2797 11.8533C21.2797 11.48 20.9624 11.1627 20.589 11.1627Z" fill="#7721AD"/>
<path d="M23.4357 13.8973C23.4077 13.8693 23.3704 13.86 23.3331 13.86H22.2411C22.1664 13.86 22.1011 13.9253 22.1011 14C22.1011 14.1027 22.1011 14.2147 22.1011 14.3173C22.1011 14.56 22.1011 14.8213 22.1011 15.0733C22.1011 15.3813 22.3064 15.624 22.6237 15.7173C22.6797 15.736 22.7357 15.736 22.7917 15.736C23.0157 15.736 23.2304 15.624 23.3611 15.428C23.3891 15.3907 23.4077 15.3533 23.4264 15.316L23.4544 15.2693C23.4637 15.2507 23.4731 15.2227 23.4731 15.1947V14C23.4731 13.9627 23.4544 13.9253 23.4357 13.8973Z" fill="#7721AD"/>
<path d="M5.89837 14C5.89837 13.9253 5.83303 13.86 5.75837 13.86H4.66637C4.62903 13.86 4.5917 13.8787 4.5637 13.8973C4.5357 13.9253 4.52637 13.9627 4.52637 14V15.204C4.52637 15.232 4.5357 15.26 4.54503 15.2787L4.5637 15.3067C4.57303 15.316 4.58237 15.3347 4.5917 15.344C4.72237 15.596 4.96503 15.7453 5.21703 15.7453C5.2637 15.7453 5.3197 15.736 5.36637 15.7267C5.70237 15.6427 5.9077 15.3813 5.9077 15.0267C5.9077 14.7933 5.9077 14.5507 5.9077 14.3173L5.89837 14Z" fill="#7721AD"/>
<path d="M14.681 14.0373V13.9907C14.681 13.916 14.6157 13.86 14.541 13.86H13.4584C13.3837 13.86 13.3184 13.916 13.3184 14V14.0653C13.3184 14.112 13.3184 14.1587 13.3184 14.2053V21.3267V21.728C13.3184 22.0827 13.3184 22.4467 13.3184 22.8013C13.3184 23.1187 13.5424 23.38 13.8597 23.4547C13.9064 23.464 13.9624 23.4733 14.009 23.4733C14.2704 23.4733 14.5224 23.324 14.625 23.0813C14.6717 22.9787 14.6997 22.848 14.6997 22.6894C14.6997 20.104 14.6997 17.5187 14.6997 14.9333V14.1493C14.6904 14.112 14.6904 14.0747 14.681 14.0373Z" fill="#7721AD"/>
<path d="M16.8838 14.0187C16.8838 14.0093 16.8838 14 16.8744 13.9907L16.8651 13.9533C16.8464 13.8973 16.7904 13.86 16.7344 13.86H15.6424C15.5678 13.86 15.5024 13.9253 15.5024 14V15.4747C15.5024 16.968 15.5024 18.4613 15.5024 19.9547C15.5024 20.328 15.7731 20.6267 16.1371 20.664C16.1558 20.664 16.1744 20.664 16.2024 20.664C16.5291 20.664 16.7904 20.44 16.8744 20.076V20.0667C16.8744 20.048 16.8838 20.0293 16.8838 20.0107C16.8931 19.964 16.9024 19.908 16.9024 19.852C16.9024 17.976 16.9024 16.0907 16.9024 14.2147C16.9024 14.168 16.8931 14.112 16.8931 14.0747C16.8931 14.056 16.8931 14.0373 16.8838 14.0187Z" fill="#7721AD"/>
<path d="M12.4972 14C12.4972 13.9253 12.4319 13.86 12.3572 13.86H11.2652C11.2092 13.86 11.1532 13.8973 11.1346 13.9533L11.1252 13.9907C11.1252 14 11.1159 14.0093 11.1159 14.0187C11.1159 14.028 11.1159 14.0467 11.1066 14.056C11.0972 14.0933 11.0879 14.1307 11.0879 14.1773C11.0879 16.0813 11.0879 17.9853 11.0879 19.8893C11.0879 19.936 11.0972 19.9827 11.1066 20.0293C11.1066 20.048 11.1159 20.0573 11.1159 20.076C11.1999 20.44 11.4612 20.664 11.7879 20.664C11.8066 20.664 11.8252 20.664 11.8532 20.664C12.2172 20.636 12.4879 20.328 12.4879 19.9547C12.4879 18.4427 12.4879 16.9213 12.4879 15.4093L12.4972 14Z" fill="#7721AD"/>
<path d="M10.3036 14.0094C10.3036 13.9347 10.2383 13.8694 10.1636 13.8694H9.07164C8.99697 13.8694 8.93164 13.9347 8.93164 14.0094V17.6027C8.93164 17.6214 8.93164 17.6307 8.94097 17.6494C9.05297 17.976 9.31431 18.172 9.60364 18.172C9.63164 18.172 9.65964 18.172 9.69697 18.1627C10.0703 18.1067 10.313 17.8174 10.313 17.4254C10.313 16.604 10.313 15.7827 10.313 14.9707L10.3036 14.0094Z" fill="#7721AD"/>
<path d="M18.9371 13.8694H17.8358C17.7611 13.8694 17.6958 13.9347 17.6958 14.0094V14.9707C17.6958 15.792 17.6958 16.6134 17.6958 17.4254C17.6958 17.8174 17.9385 18.1067 18.3118 18.1627C18.3491 18.172 18.3771 18.172 18.4051 18.172C18.7131 18.172 18.9745 17.9574 19.0678 17.6027C19.0678 17.5934 19.0771 17.5747 19.0771 17.5654V14C19.0771 13.9254 19.0118 13.8694 18.9371 13.8694Z" fill="#7721AD"/>
<path d="M8.09167 14C8.09167 13.9627 8.073 13.9253 8.05434 13.8973C8.02634 13.8693 7.989 13.86 7.95167 13.86L6.869 13.8693C6.79434 13.8693 6.729 13.9347 6.729 14.0093C6.729 14.2147 6.729 14.42 6.729 14.6253C6.729 15.12 6.729 15.6333 6.729 16.1373C6.729 16.5107 7.02767 16.8187 7.401 16.8373C7.41034 16.8373 7.41967 16.8373 7.41967 16.8373C7.597 16.8373 7.765 16.772 7.89567 16.6507C8.02634 16.5293 8.09167 16.3707 8.101 16.1933C8.11034 15.6707 8.101 15.148 8.101 14.6347C8.09167 14.4107 8.09167 14.2053 8.09167 14Z" fill="#7721AD"/>
<path d="M21.2795 14C21.2795 13.9253 21.2141 13.86 21.1395 13.86L20.0475 13.8507C20.0101 13.8507 19.9728 13.8693 19.9448 13.888C19.9168 13.916 19.9075 13.9533 19.9075 13.9907C19.9075 14.196 19.9075 14.4107 19.9075 14.616C19.9075 15.1293 19.8981 15.652 19.9075 16.1747C19.9075 16.3427 19.9821 16.5107 20.1128 16.632C20.2435 16.7533 20.4115 16.828 20.5888 16.828C20.5981 16.828 20.6075 16.828 20.6075 16.828C20.9808 16.8187 21.2795 16.5107 21.2795 16.128C21.2795 15.624 21.2795 15.1107 21.2795 14.616C21.2795 14.42 21.2795 14.2147 21.2795 14Z" fill="#7721AD"/>
</g>
<defs>
<clipPath id="clip0_210_79">
<rect width="28" height="28" fill="white"/>
</clipPath>
</defs>
</svg>
