<svg width="28" height="28" viewBox="0 0 28 28" fill="none" xmlns="http://www.w3.org/2000/svg">
<g clip-path="url(#clip0_210_332)">
<path d="M27.832 3.93866C27.3373 1.89466 25.4893 0.270662 23.4173 0.0466616C23.38 0.0466616 23.3333 0.00932829 23.296 -0.00933838C17.0987 -5.04497e-06 10.9013 -5.04497e-06 4.704 -5.04497e-06C4.452 0.055995 4.2 0.102662 3.948 0.167995C1.89467 0.662662 0.270667 2.51066 0.056 4.58266C0.056 4.61999 0.0186667 4.66666 0 4.70399C0 10.9013 0 17.0987 0 23.296C0.056 23.548 0.102667 23.8 0.168 24.052C0.662667 26.096 2.51067 27.72 4.58267 27.944C4.62 27.944 4.66667 27.9813 4.704 28C10.9013 28 17.0987 28 23.296 28C23.66 27.9067 24.0427 27.8507 24.388 27.7293C26.3573 27.0387 27.5147 25.6387 27.9347 23.6133C27.9533 23.5107 27.972 23.408 28 23.3053C28 17.108 28 10.9107 28 4.71333C27.944 4.45199 27.8973 4.19066 27.832 3.93866Z" fill="white"/>
<path d="M16.1811 12.3574L16.181 12.3574C13.9487 12.6823 12.4314 14.7153 12.8034 16.9222L12.8036 16.9235C13.0801 18.5909 14.0518 19.6741 15.6627 20.1165L15.664 20.1169C16.4727 20.3413 17.202 20.33 17.8621 20.1228C18.233 20.0063 18.5917 19.8249 18.9369 19.5773H18.9337H18.9299H18.926H18.9222H18.9183H18.9145H18.9106H18.9067H18.9029H18.899H18.8952H18.8913H18.8875H18.8836H18.8798H18.8759H18.872H18.8682H18.8643H18.8605H18.8566H18.8528H18.8489H18.8451H18.8412H18.8374H18.8335H18.8296H18.8258H18.8219H18.8181H18.8142H18.8104H18.8065H18.8027H18.7988H18.795H18.7911H18.7872H18.7834H18.7795H18.7757H18.7718H18.768H18.7641H18.7603H18.7564H18.7526H18.7487H18.7449H18.741H18.7371H18.7333H18.7294H18.7256H18.7217H18.7179H18.714H18.7102H18.7063H18.7025H18.6986H18.6948H18.6909H18.6871H18.6832H18.6794H18.6755H18.6717H18.6678H18.6639H18.6601H18.6562H18.6524H18.6485H18.6447H18.6408H18.637H18.6331H18.6293H18.6254H18.6216H18.6177H18.6139H18.61H18.6062H18.6023H18.5985H18.5946H18.5908H18.5869H18.5831H18.5792H18.5754H18.5715H18.5677H18.5638H18.56H18.5561H18.5523H18.5484H18.5446H18.5407H18.5369H18.533H18.5292H18.5253H18.5215H18.5176H18.5138H18.5099H18.5061H18.5022H18.4984H18.4945H18.4907H18.4868H18.483H18.4791H18.4753H18.4714H18.4676H18.4638H18.4599H18.4561H18.4522H18.4484H18.4445H18.4407H18.4368H18.433H18.4291H18.4253H18.4214H18.4176H18.4138H18.4099H18.4061H18.4022H18.3984H18.3945H18.3907H18.3868H18.383H18.3791H18.3753H18.3715H18.3676H18.3638H18.3599H18.3561H18.3522H18.3484H18.3446H18.3407H18.3369H18.333H18.3292H18.3253H18.3215H18.3177H18.3138H18.31H18.3061H18.3023H18.2984H18.2946H18.2908H18.2869H18.2831H18.2792H18.2754H18.2716H18.2677H18.2639H18.26H18.2562H18.2524H18.2485H18.2447H18.2408H18.237H18.2332H18.2293H18.2255H18.2217H18.2178H18.214H18.2101H18.2063H18.2025H18.1986H18.1948H18.191H18.1871H18.1833H18.1794H18.1756H18.1718H18.1679H18.1641H18.1603H18.1564H18.1526H18.1488H18.1449H18.1411H18.1373H18.1334H18.1296H18.1258H18.1219H18.1181H18.1143H18.1104H18.1066H18.1028H18.0989H18.0951H18.0913H18.0874H18.0836H18.0798H18.0759H18.0721H18.0683H18.0644H18.0606H18.0568H18.0529H18.0491H18.0453H18.0415H18.0376H18.0338H18.03H18.0261H18.0223C17.5056 19.5773 17.0214 19.1924 17.037 18.602C17.0417 18.0449 17.5009 17.6704 18.0057 17.6536L18.014 17.6533H18.0223H18.0226H18.0229H18.0231H18.0234H18.0237H18.024H18.0242H18.0245H18.0248H18.0251H18.0253H18.0256H18.0259H18.0261H18.0264H18.0267H18.027H18.0272H18.0275H18.0278H18.0281H18.0283H18.0286H18.0289H18.0292H18.0294H18.0297H18.03H18.0302H18.0305H18.0308H18.0311H18.0313H18.0316H18.0319H18.0322H18.0324H18.0327H18.033H18.0333H18.0335H18.0338H18.0341H18.0343H18.0346H18.0349H18.0352H18.0354H18.0357H18.036H18.0363H18.0365H18.0368H18.0371H18.0374H18.0376H18.0379H18.0382H18.0385H18.0387H18.039H18.0393H18.0395H18.0398H18.0401H18.0404H18.0406H18.0409H18.0412H18.0415H18.0417H18.042H18.0423H18.0426H18.0428H18.0431H18.0434H18.0436H18.0439H18.0442H18.0445H18.0447H18.045H18.0453H18.0456H18.0458H18.0461H18.0464H18.0467H18.0469H18.0472H18.0475H18.0477H18.048H18.0483H18.0486H18.0488H18.0491H18.0494H18.0497H18.0499H18.0502H18.0505H18.0508H18.051H18.0513H18.0516H18.0518H18.0521H18.0524H18.0527H18.0529H18.0532H18.0535H18.0538H18.054H18.0543H18.0546H18.0549H18.0551H18.0554H18.0557H18.056H18.0562H18.0565H18.0568H18.057H18.0573H18.0576H18.0579H18.0581H18.0584H18.0587H18.059H18.0592H18.0595H18.0598H18.0601H18.0603H18.0606H18.0609H18.0611H18.0614H18.0617H18.062H18.0622H18.0625H18.0628H18.0631H18.0633H18.0636H18.0639H18.0642H18.0644H18.0647H18.065H18.0652H18.0655H18.0658H18.0661H18.0663H18.0666H18.0669H18.0672H18.0674H18.0677H18.068H18.0683H18.0685H18.0688H18.0691H18.0693H18.0696H18.0699H18.0702H18.0704H18.0707H18.071H18.0713H18.0715H18.0718H18.0721H18.0724H18.0726H18.0729H18.0732H18.0735H18.0737H18.074H18.0743H18.0745H18.0748H18.0751H18.0754H18.0756H18.0759H18.0762H18.0765H18.0767H18.077H18.0773H18.0776H18.0778H18.0781H18.0784H18.0786H18.0789H18.0792H18.0795H18.0797H18.08H18.0803H18.0806H18.0808H18.0811H18.0814H18.0817H18.0819H18.0822H18.0825H18.0827H18.083H18.0833H18.0836H18.0838H18.0841H18.0844H18.0847H18.0849H18.0852H18.0855H18.0858H18.086H18.0863H18.0866H18.0868H18.0871H18.0874H18.0877H18.0879H18.0882H18.0885H18.0888H18.089H18.0893H18.0896H18.0899H18.0901H18.0904H18.0907H18.091H18.0912H18.0915H18.0918H18.092H18.0923H18.0926H18.0929H18.0931H18.0934H18.0937H18.094H18.0942H18.0945H18.0948H18.0951H18.0953H18.0956H18.0959H18.0961H18.0964H18.0967H18.097H18.0972H18.0975H18.0978H18.0981H18.0983H18.0986H18.0989H18.0992H18.0994H18.0997H18.1H18.1002H18.1005H18.1008H18.1011H18.1013H18.1016H18.1019H18.1022H18.1024H18.1027H18.103H18.1033H18.1035H18.1038H18.1041H18.1043H18.1046H18.1049H18.1052H18.1054H18.1057H18.106H18.1063H18.1065H18.1068H18.1071H18.1074H18.1076H18.1079H18.1082H18.1085H18.1087H18.109H18.1093H18.1095H18.1098H18.1101H18.1104H18.1106H18.1109H18.1112H18.1115H18.1117H18.112H18.1123H18.1126H18.1128H18.1131H18.1134H18.1136H18.1139H18.1142H18.1145H18.1147H18.115H18.1153H18.1156H18.1158H18.1161H18.1164H18.1167H18.1169H18.1172H18.1175H18.1177H18.118H18.1183H18.1186H18.1188H18.1191H18.1194H18.1197H18.1199H18.1202H18.1205H18.1208H18.121H18.1213H18.1216H18.1218H18.1221H18.1224H18.1227H18.1229H18.1232H18.1235H18.1238H18.124H18.1243H18.1246H18.1249H18.1251H18.1254H18.1257H18.126H18.1262H18.1265H18.1268H18.127H18.1273H18.1276H18.1279H18.1281H18.1284H18.1287H18.129H18.1292H18.1295H18.1298H18.1301H18.1303H18.1306H18.1309H18.1311H18.1314H18.1317H18.132H18.1322H18.1325H18.1328H18.1331H18.1333H18.1336H18.1339H18.1342H18.1344H18.1347H18.135H18.1352H18.1355H18.1358H18.1361H18.1363H18.1366H18.1369H18.1372H18.1374H18.1377H18.138H18.1383H18.1385H18.1388H18.1391H18.1393H18.1396H18.1399H18.1402H18.1404H18.1407H18.141H18.1413H18.1415H18.1418H18.1421H18.1424H18.1426H18.1429H18.1432H18.1435H18.1437H18.144H18.1443H18.1445H18.1448H18.1451H18.1454H18.1456H18.1459H18.1462H18.1465H18.1467H18.147H18.1473H18.1476H18.1478H18.1481H18.1484H18.1486H18.1489H18.1492H18.1495H18.1497H18.15H18.1503H18.1506H18.1508H18.1511H18.1514H18.1517H18.1519H18.1522H18.1525H18.1527H18.153H18.1533H18.1536H18.1538H18.1541H18.1544H18.1547H18.1549H18.1552H18.1555H18.1558H18.156H18.1563H18.1566H18.1568H18.1571H18.1574H18.1577H18.1579H18.1582H18.1585H18.1588H18.159H18.1593H18.1596H18.1599H18.1601H18.1604H18.1607H18.161H18.1612H18.1615H18.1618H18.162H18.1623L16.1811 12.3574ZM16.1811 12.3574C18.2759 12.0523 20.3038 13.5686 20.6268 15.6719M16.1811 12.3574L20.6268 15.6719M20.6268 15.6719L21.121 15.596L20.6268 15.6719ZM20.4345 17.6533H20.4386H20.4345ZM20.4345 17.6533H20.4294M20.4345 17.6533H20.4294M20.4294 17.6533H20.4243M20.4294 17.6533H20.4243M20.4243 17.6533H20.4192M20.4243 17.6533H20.4192M20.4192 17.6533H20.4141M20.4192 17.6533H20.4141M20.4141 17.6533H20.409M20.4141 17.6533H20.409M20.409 17.6533H20.4039M20.409 17.6533H20.4039M20.4039 17.6533H20.3988M20.4039 17.6533H20.3988M20.3988 17.6533H20.3937M20.3988 17.6533H20.3937M20.3937 17.6533H20.3886M20.3937 17.6533H20.3886M20.3886 17.6533H20.3835M20.3886 17.6533H20.3835M20.3835 17.6533H20.3784M20.3835 17.6533H20.3784M20.3784 17.6533H20.3733M20.3784 17.6533H20.3733M20.3733 17.6533H20.3682M20.3733 17.6533H20.3682M20.3682 17.6533H20.3631M20.3682 17.6533H20.3631M20.3631 17.6533H20.358M20.3631 17.6533H20.358M20.358 17.6533H20.3529M20.358 17.6533H20.3529M20.3529 17.6533H20.3478M20.3529 17.6533H20.3478M20.3478 17.6533H20.3427M20.3478 17.6533H20.3427M20.3427 17.6533H20.3376M20.3427 17.6533H20.3376M20.3376 17.6533H20.3325M20.3376 17.6533H20.3325M20.3325 17.6533H20.3274M20.3325 17.6533H20.3274M20.3274 17.6533H20.3223M20.3274 17.6533H20.3223M20.3223 17.6533H20.3172M20.3223 17.6533H20.3172M20.3172 17.6533H20.3121M20.3172 17.6533H20.3121M20.3121 17.6533H20.307M20.3121 17.6533H20.307M20.307 17.6533H20.3018M20.307 17.6533H20.3018M20.3018 17.6533H20.2967M20.3018 17.6533H20.2967M20.2967 17.6533H20.2916M20.2967 17.6533H20.2916M20.2916 17.6533H20.2865M20.2916 17.6533H20.2865M20.2865 17.6533H20.2814M20.2865 17.6533H20.2814M20.2814 17.6533H20.2763M20.2814 17.6533H20.2763M20.2763 17.6533H20.2712M20.2763 17.6533H20.2712M20.2712 17.6533H20.2661M20.2712 17.6533H20.2661M20.2661 17.6533H20.261M20.2661 17.6533H20.261M20.261 17.6533H20.2559M20.261 17.6533H20.2559M20.2559 17.6533H20.2508M20.2559 17.6533H20.2508M20.2508 17.6533H20.2457M20.2508 17.6533H20.2457M20.2457 17.6533H20.2406M20.2457 17.6533H20.2406M20.2406 17.6533H20.2355M20.2406 17.6533H20.2355M20.2355 17.6533H20.2304M20.2355 17.6533H20.2304M20.2304 17.6533H20.2253M20.2304 17.6533H20.2253M20.2253 17.6533H20.2202M20.2253 17.6533H20.2202M20.2202 17.6533H20.2151M20.2202 17.6533H20.2151M20.2151 17.6533H20.21M20.2151 17.6533H20.21M20.21 17.6533H20.2049M20.21 17.6533H20.2049M20.2049 17.6533H20.1998M20.2049 17.6533H20.1998M20.1998 17.6533H20.1947M20.1998 17.6533H20.1947M20.1947 17.6533H20.1896M20.1947 17.6533H20.1896M20.1896 17.6533H20.1845M20.1896 17.6533H20.1845M20.1845 17.6533H20.1794M20.1845 17.6533H20.1794M20.1794 17.6533H20.1743M20.1794 17.6533H20.1743M20.1743 17.6533H20.1691M20.1743 17.6533H20.1691M20.1691 17.6533H20.164M20.1691 17.6533H20.164M20.164 17.6533H20.1589M20.164 17.6533H20.1589M20.1589 17.6533H20.1538M20.1589 17.6533H20.1538M20.1538 17.6533H20.1487M20.1538 17.6533H20.1487M20.1487 17.6533H20.1436M20.1487 17.6533H20.1436M20.1436 17.6533H20.1385M20.1436 17.6533H20.1385M20.1385 17.6533H20.1334M20.1385 17.6533H20.1334M20.1334 17.6533H20.1283M20.1334 17.6533H20.1283M20.1283 17.6533H20.1232M20.1283 17.6533H20.1232M20.1232 17.6533H20.1181M20.1232 17.6533H20.1181M20.1181 17.6533H20.113M20.1181 17.6533H20.113M20.113 17.6533H20.1079M20.113 17.6533H20.1079M20.1079 17.6533H20.1028M20.1079 17.6533H20.1028M20.1028 17.6533H20.0977M20.1028 17.6533H20.0977M20.0977 17.6533H20.0926M20.0977 17.6533H20.0926M20.0926 17.6533H20.0874M20.0926 17.6533H20.0874M20.0874 17.6533H20.0823M20.0874 17.6533H20.0823M20.0823 17.6533H20.0772M20.0823 17.6533H20.0772M20.0772 17.6533H20.0721M20.0772 17.6533H20.0721M20.0721 17.6533H20.067M20.0721 17.6533H20.067M20.067 17.6533H20.0619M20.067 17.6533H20.0619M20.0619 17.6533H20.0568M20.0619 17.6533H20.0568M20.0568 17.6533H20.0517M20.0568 17.6533H20.0517M20.0517 17.6533H20.0466M20.0517 17.6533H20.0466M20.0466 17.6533H20.0415M20.0466 17.6533H20.0415M20.0415 17.6533H20.0364M20.0415 17.6533H20.0364M20.0364 17.6533H20.0313M20.0364 17.6533H20.0313M20.0313 17.6533H20.0262M20.0313 17.6533H20.0262M20.0262 17.6533H20.021M20.0262 17.6533H20.021M20.021 17.6533H20.0159M20.021 17.6533H20.0159M20.0159 17.6533H20.0108M20.0159 17.6533H20.0108M20.0108 17.6533H20.0057M20.0108 17.6533H20.0057M20.0057 17.6533H20.0006M20.0057 17.6533H20.0006M20.0006 17.6533H19.9955M20.0006 17.6533H19.9955M19.9955 17.6533H19.9904M19.9955 17.6533H19.9904M19.9904 17.6533H19.9853M19.9904 17.6533H19.9853M19.9853 17.6533H19.9802M19.9853 17.6533H19.9802M19.9802 17.6533H19.9751M19.9802 17.6533H19.9751M19.9751 17.6533H19.97M19.9751 17.6533H19.97M19.97 17.6533H19.9648M19.97 17.6533H19.9648M19.9648 17.6533H19.9597M19.9648 17.6533H19.9597M19.9597 17.6533H19.9546M19.9597 17.6533H19.9546M19.9546 17.6533H19.9495M19.9546 17.6533H19.9495M19.9495 17.6533H19.9444M19.9495 17.6533H19.9444M19.9444 17.6533H19.9393M19.9444 17.6533H19.9393M19.9393 17.6533H19.9342M19.9393 17.6533H19.9342M19.9342 17.6533H19.9291M19.9342 17.6533H19.9291M19.9291 17.6533H19.924M19.9291 17.6533H19.924M19.924 17.6533H19.9189M19.924 17.6533H19.9189M19.9189 17.6533H19.9137M19.9189 17.6533H19.9137M19.9137 17.6533H19.9086M19.9137 17.6533H19.9086M19.9086 17.6533H19.9035M19.9086 17.6533H19.9035M19.9035 17.6533H19.8984M19.9035 17.6533H19.8984M19.8984 17.6533H19.8933M19.8984 17.6533H19.8933M19.8933 17.6533H19.8882M19.8933 17.6533H19.8882M19.8882 17.6533H19.8831M19.8882 17.6533H19.8831M19.8831 17.6533H19.878M19.8831 17.6533H19.878M19.878 17.6533H19.8729M19.878 17.6533H19.8729M19.8729 17.6533H19.8678M19.8729 17.6533H19.8678M19.8678 17.6533H19.8626M19.8678 17.6533H19.8626M19.8626 17.6533H19.8575M19.8626 17.6533H19.8575M19.8575 17.6533H19.8524M19.8575 17.6533H19.8524M19.8524 17.6533H19.8473M19.8524 17.6533H19.8473M19.8473 17.6533H19.8422M19.8473 17.6533H19.8422M19.8422 17.6533H19.8371M19.8422 17.6533H19.8371M19.8371 17.6533H19.832M19.8371 17.6533H19.832M19.832 17.6533H19.8269M19.832 17.6533H19.8269M19.8269 17.6533H19.8218M19.8269 17.6533H19.8218M19.8218 17.6533H19.8166M19.8218 17.6533H19.8166M19.8166 17.6533H19.8115M19.8166 17.6533H19.8115M19.8115 17.6533H19.8064M19.8115 17.6533H19.8064M19.8064 17.6533H19.8013M19.8064 17.6533H19.8013M19.8013 17.6533H19.7962M19.8013 17.6533H19.7962M19.7962 17.6533H19.7911M19.7962 17.6533H19.7911M19.7911 17.6533H19.786M19.7911 17.6533H19.786M19.786 17.6533H19.7809M19.786 17.6533H19.7809M19.7809 17.6533H19.7758M19.7809 17.6533H19.7758M19.7758 17.6533H19.7706M19.7758 17.6533H19.7706M19.7706 17.6533H19.7655M19.7706 17.6533H19.7655M19.7655 17.6533H19.7604M19.7655 17.6533H19.7604M19.7604 17.6533H19.7553M19.7604 17.6533H19.7553M19.7553 17.6533H19.7502M19.7553 17.6533H19.7502M19.7502 17.6533H19.7451M19.7502 17.6533H19.7451M19.7451 17.6533H19.74M19.7451 17.6533H19.74M19.74 17.6533H19.7349M19.74 17.6533H19.7349M19.7349 17.6533H19.7297M19.7349 17.6533H19.7297M19.7297 17.6533H19.7246M19.7297 17.6533H19.7246M19.7246 17.6533H19.7195M19.7246 17.6533H19.7195M19.7195 17.6533H19.7144M19.7195 17.6533H19.7144M19.7144 17.6533H19.7093M19.7144 17.6533H19.7093M19.7093 17.6533H19.7042M19.7093 17.6533H19.7042M19.7042 17.6533H19.6991M19.7042 17.6533H19.6991M19.6991 17.6533H19.694M19.6991 17.6533H19.694M19.694 17.6533H19.6888M19.694 17.6533H19.6888M19.6888 17.6533H19.6837M19.6888 17.6533H19.6837M19.6837 17.6533H19.6786M19.6837 17.6533H19.6786M19.6786 17.6533H19.6735M19.6786 17.6533H19.6735M19.6735 17.6533H19.6684M19.6735 17.6533H19.6684M19.6684 17.6533H19.6633M19.6684 17.6533H19.6633M19.6633 17.6533H19.6582M19.6633 17.6533H19.6582M19.6582 17.6533H19.6531M19.6582 17.6533H19.6531M19.6531 17.6533H19.6479M19.6531 17.6533H19.6479M19.6479 17.6533H19.6428M19.6479 17.6533H19.6428M19.6428 17.6533H19.6377M19.6428 17.6533H19.6377M19.6377 17.6533H19.6326M19.6377 17.6533H19.6326M19.6326 17.6533H19.6275M19.6326 17.6533H19.6275M19.6275 17.6533H19.6224M19.6275 17.6533H19.6224M19.6224 17.6533H19.6173M19.6224 17.6533H19.6173M19.6173 17.6533H19.6122M19.6173 17.6533H19.6122M19.6122 17.6533H19.607M19.6122 17.6533H19.607M19.607 17.6533H19.6019M19.607 17.6533H19.6019M19.6019 17.6533H19.5968M19.6019 17.6533H19.5968M19.5968 17.6533H19.5917M19.5968 17.6533H19.5917M19.5917 17.6533H19.5866M19.5917 17.6533H19.5866M19.5866 17.6533H19.5815M19.5866 17.6533H19.5815M19.5815 17.6533H19.5764M19.5815 17.6533H19.5764M19.5764 17.6533H19.5712M19.5764 17.6533H19.5712M19.5712 17.6533H19.5661M19.5712 17.6533H19.5661M19.5661 17.6533H19.561M19.5661 17.6533H19.561M19.561 17.6533H19.5559M19.561 17.6533H19.5559M19.5559 17.6533H19.5508M19.5559 17.6533H19.5508M19.5508 17.6533H19.5457M19.5508 17.6533H19.5457M19.5457 17.6533H19.5406M19.5457 17.6533H19.5406M19.5406 17.6533H19.5355M19.5406 17.6533H19.5355M19.5355 17.6533H19.5303M19.5355 17.6533H19.5303M19.5303 17.6533H19.5252M19.5303 17.6533H19.5252M19.5252 17.6533H19.5201M19.5252 17.6533H19.5201M19.5201 17.6533H19.515M19.5201 17.6533H19.515M19.515 17.6533H19.5099M19.515 17.6533H19.5099M19.5099 17.6533H19.5048M19.5099 17.6533H19.5048M19.5048 17.6533H19.4997M19.5048 17.6533H19.4997M19.4997 17.6533H19.4946M19.4997 17.6533H19.4946M19.4946 17.6533H19.4894M19.4946 17.6533H19.4894M19.4894 17.6533H19.4843M19.4894 17.6533H19.4843M19.4843 17.6533H19.4792M19.4843 17.6533H19.4792M19.4792 17.6533H19.4741M19.4792 17.6533H19.4741M19.4741 17.6533H19.469M19.4741 17.6533H19.469M19.469 17.6533H19.4639M19.469 17.6533H19.4639M19.4639 17.6533H19.4588M19.4639 17.6533H19.4588M19.4588 17.6533H19.4536M19.4588 17.6533H19.4536M19.4536 17.6533H19.4485M19.4536 17.6533H19.4485M19.4485 17.6533H19.4434M19.4485 17.6533H19.4434M19.4434 17.6533H19.4383M19.4434 17.6533H19.4383M19.4383 17.6533H19.4332M19.4383 17.6533H19.4332M19.4332 17.6533H19.4281M19.4332 17.6533H19.4281M19.4281 17.6533H19.423M19.4281 17.6533H19.423M19.423 17.6533H19.4179M19.423 17.6533H19.4179M19.4179 17.6533H19.4127M19.4179 17.6533H19.4127M19.4127 17.6533H19.4076M19.4127 17.6533H19.4076M19.4076 17.6533H19.4025M19.4076 17.6533H19.4025M19.4025 17.6533H19.3974M19.4025 17.6533H19.3974M19.3974 17.6533H19.3923M19.3974 17.6533H19.3923M19.3923 17.6533H19.3872M19.3923 17.6533H19.3872M19.3872 17.6533H19.3821M19.3872 17.6533H19.3821M19.3821 17.6533H19.3769M19.3821 17.6533H19.3769M19.3769 17.6533H19.3718M19.3769 17.6533H19.3718M19.3718 17.6533H19.3667M19.3718 17.6533H19.3667M19.3667 17.6533H19.3616M19.3667 17.6533H19.3616M19.3616 17.6533H19.3565M19.3616 17.6533H19.3565M19.3565 17.6533H19.3514M19.3565 17.6533H19.3514M19.3514 17.6533H19.3463M19.3514 17.6533H19.3463M19.3463 17.6533H19.3412M19.3463 17.6533H19.3412M19.3412 17.6533H19.336M19.3412 17.6533H19.336M19.336 17.6533H19.3309M19.336 17.6533H19.3309M19.3309 17.6533H19.3258M19.3309 17.6533H19.3258M19.3258 17.6533H19.3207M19.3258 17.6533H19.3207M19.3207 17.6533H19.3156M19.3207 17.6533H19.3156M19.3156 17.6533H19.3105M19.3156 17.6533H19.3105M19.3105 17.6533H19.3054M19.3105 17.6533H19.3054M19.3054 17.6533H19.3003M19.3054 17.6533H19.3003M19.3003 17.6533H19.2951M19.3003 17.6533H19.2951M19.2951 17.6533H19.29M19.2951 17.6533H19.29M19.29 17.6533H19.2849M19.29 17.6533H19.2849M19.2849 17.6533H19.2798M19.2849 17.6533H19.2798M19.2798 17.6533H19.2747M19.2798 17.6533H19.2747M19.2747 17.6533H19.2696M19.2747 17.6533H19.2696M19.2696 17.6533H19.2645M19.2696 17.6533H19.2645M19.2645 17.6533H19.2594M19.2645 17.6533H19.2594M19.2594 17.6533H19.2542M19.2594 17.6533H19.2542M19.2542 17.6533H19.2491M19.2542 17.6533H19.2491M19.2491 17.6533H19.244M19.2491 17.6533H19.244M19.244 17.6533H19.2389M19.244 17.6533H19.2389M19.2389 17.6533H19.2338M19.2389 17.6533H19.2338M19.2338 17.6533H19.2287M19.2338 17.6533H19.2287M19.2287 17.6533H19.2236M19.2287 17.6533H19.2236M19.2236 17.6533H19.2185M19.2236 17.6533H19.2185M19.2185 17.6533H19.2133M19.2185 17.6533H19.2133M19.2133 17.6533H19.2082M19.2133 17.6533H19.2082M19.2082 17.6533H19.2031M19.2082 17.6533H19.2031M19.2031 17.6533H19.198M19.2031 17.6533H19.198M19.198 17.6533H19.1929M19.198 17.6533H19.1929M19.1929 17.6533H19.1878M19.1929 17.6533H19.1878M19.1878 17.6533H19.1827M19.1878 17.6533H19.1827M19.1827 17.6533H19.1776M19.1827 17.6533H19.1776M19.1776 17.6533H19.1724M19.1776 17.6533H19.1724M19.1724 17.6533H19.1673M19.1724 17.6533H19.1673M19.1673 17.6533H19.1622M19.1673 17.6533H19.1622M19.1622 17.6533H19.1571M19.1622 17.6533H19.1571M19.1571 17.6533H19.152M19.1571 17.6533H19.152M19.152 17.6533H19.1469M19.152 17.6533H19.1469M19.1469 17.6533H19.1418M19.1469 17.6533H19.1418M19.1418 17.6533H19.1367M19.1418 17.6533H19.1367M19.1367 17.6533H19.1315M19.1367 17.6533H19.1315M19.1315 17.6533H19.1264M19.1315 17.6533H19.1264M19.1264 17.6533H19.1213M19.1264 17.6533H19.1213M19.1213 17.6533H19.1162M19.1213 17.6533H19.1162M19.1162 17.6533H19.1111M19.1162 17.6533H19.1111M19.1111 17.6533H19.106M19.1111 17.6533H19.106M19.106 17.6533H19.1009M19.106 17.6533H19.1009M19.1009 17.6533H19.0958M19.1009 17.6533H19.0958M19.0958 17.6533H19.0907M19.0958 17.6533H19.0907M19.0907 17.6533H19.0855M19.0907 17.6533H19.0855M19.0855 17.6533H19.0804M19.0855 17.6533H19.0804M19.0804 17.6533H19.0753M19.0804 17.6533H19.0753M19.0753 17.6533H19.0702M19.0753 17.6533H19.0702M19.0702 17.6533H19.0651M19.0702 17.6533H19.0651M19.0651 17.6533H19.06M19.0651 17.6533H19.06M19.06 17.6533H19.0549M19.06 17.6533H19.0549M19.0549 17.6533H19.0498M19.0549 17.6533H19.0498M19.0498 17.6533H19.0447M19.0498 17.6533H19.0447M19.0447 17.6533H19.0396M19.0447 17.6533H19.0396M19.0396 17.6533H19.0344M19.0396 17.6533H19.0344M19.0344 17.6533H19.0293M19.0344 17.6533H19.0293M19.0293 17.6533H19.0242M19.0293 17.6533H19.0242M19.0242 17.6533H19.0191M19.0242 17.6533H19.0191M19.0191 17.6533H19.014M19.0191 17.6533H19.014M19.014 17.6533H19.0089M19.014 17.6533H19.0089M19.0089 17.6533H19.0038M19.0089 17.6533H19.0038M19.0038 17.6533H18.9987M19.0038 17.6533H18.9987M18.9987 17.6533H18.9936M18.9987 17.6533H18.9936M18.9936 17.6533H18.9885M18.9936 17.6533H18.9885M18.9885 17.6533H18.9833M18.9885 17.6533H18.9833M18.9833 17.6533H18.9782M18.9833 17.6533H18.9782M18.9782 17.6533H18.9731M18.9782 17.6533H18.9731M18.9731 17.6533H18.968M18.9731 17.6533H18.968M18.968 17.6533H18.9629M18.968 17.6533H18.9629M18.9629 17.6533H18.9578M18.9629 17.6533H18.9578M18.9578 17.6533H18.9527M18.9578 17.6533H18.9527M18.9527 17.6533H18.9476M18.9527 17.6533H18.9476M18.9476 17.6533H18.9425M18.9476 17.6533H18.9425M18.9425 17.6533H18.9374M18.9425 17.6533H18.9374M18.9374 17.6533H18.9323M18.9374 17.6533H18.9323M18.9323 17.6533H18.9271M18.9323 17.6533H18.9271M18.9271 17.6533H18.922M18.9271 17.6533H18.922M18.922 17.6533H18.9169M18.922 17.6533H18.9169M18.9169 17.6533H18.9118M18.9169 17.6533H18.9118M18.9118 17.6533H18.9067M18.9118 17.6533H18.9067M18.9067 17.6533H18.9016M18.9067 17.6533H18.9016M18.9016 17.6533H18.8965M18.9016 17.6533H18.8965M18.8965 17.6533H18.8914M18.8965 17.6533H18.8914M18.8914 17.6533H18.8863M18.8914 17.6533H18.8863M18.8863 17.6533H18.8812M18.8863 17.6533H18.8812M18.8812 17.6533H18.8761M18.8812 17.6533H18.8761M18.8761 17.6533H18.871M18.8761 17.6533H18.871M18.871 17.6533H18.8658M18.871 17.6533H18.8658M18.8658 17.6533H18.8607M18.8658 17.6533H18.8607M18.8607 17.6533H18.8556M18.8607 17.6533H18.8556M18.8556 17.6533H18.8505M18.8556 17.6533H18.8505M18.8505 17.6533H18.8454M18.8505 17.6533H18.8454M18.8454 17.6533H18.8403M18.8454 17.6533H18.8403M18.8403 17.6533H18.8352M18.8403 17.6533H18.8352M18.8352 17.6533H18.8301M18.8352 17.6533H18.8301M18.8301 17.6533H18.825M18.8301 17.6533H18.825M18.825 17.6533H18.8199M18.825 17.6533H18.8199M18.8199 17.6533H18.8148M18.8199 17.6533H18.8148M18.8148 17.6533H18.8097M18.8148 17.6533H18.8097M18.8097 17.6533H18.8046M18.8097 17.6533H18.8046M18.8046 17.6533H18.7995M18.8046 17.6533H18.7995M18.7995 17.6533H18.7944M18.7995 17.6533H18.7944M18.7944 17.6533H18.7892M18.7944 17.6533H18.7892M18.7892 17.6533H18.7841M18.7892 17.6533H18.7841M18.7841 17.6533H18.779M18.7841 17.6533H18.779M18.779 17.6533H18.7739M18.779 17.6533H18.7739M18.7739 17.6533H18.7688M18.7739 17.6533H18.7688M18.7688 17.6533H18.7637M18.7688 17.6533H18.7637M18.7637 17.6533H18.7586M18.7637 17.6533H18.7586M18.7586 17.6533H18.7535M18.7586 17.6533H18.7535M18.7535 17.6533H18.7484M18.7535 17.6533H18.7484M18.7484 17.6533H18.7433M18.7484 17.6533H18.7433M18.7433 17.6533H18.7382M18.7433 17.6533H18.7382M18.7382 17.6533H18.7331M18.7382 17.6533H18.7331M18.7331 17.6533H18.728M18.7331 17.6533H18.728M18.728 17.6533H18.7229M18.728 17.6533H18.7229M18.7229 17.6533H18.7178M18.7229 17.6533H18.7178M18.7178 17.6533H18.7127M18.7178 17.6533H18.7127M18.7127 17.6533H18.7076M18.7127 17.6533H18.7076M18.7076 17.6533H18.7025M18.7076 17.6533H18.7025M18.7025 17.6533H18.6974M18.7025 17.6533H18.6974M18.6974 17.6533H18.6923M18.6974 17.6533H18.6923M18.6923 17.6533H18.6872M18.6923 17.6533H18.6872M18.6872 17.6533H18.682M18.6872 17.6533H18.682M18.682 17.6533H18.6769M18.682 17.6533H18.6769M18.6769 17.6533H18.6718M18.6769 17.6533H18.6718M18.6718 17.6533H18.6667M18.6718 17.6533H18.6667M18.6667 17.6533H18.6616M18.6667 17.6533H18.6616M18.6616 17.6533H18.6565M18.6616 17.6533H18.6565M18.6565 17.6533H18.6514M18.6565 17.6533H18.6514M18.6514 17.6533H18.6463M18.6514 17.6533H18.6463M18.6463 17.6533H18.6412M18.6463 17.6533H18.6412M18.6412 17.6533H18.6361M18.6412 17.6533H18.6361M18.6361 17.6533H18.631M18.6361 17.6533H18.631M18.631 17.6533H18.6259M18.631 17.6533H18.6259M18.6259 17.6533H18.6208M18.6259 17.6533H18.6208M18.6208 17.6533H18.6157M18.6208 17.6533H18.6157M18.6157 17.6533H18.6106M18.6157 17.6533H18.6106M18.6106 17.6533H18.6055M18.6106 17.6533H18.6055M18.6055 17.6533H18.6004M18.6055 17.6533H18.6004M18.6004 17.6533H18.5953M18.6004 17.6533H18.5953M18.5953 17.6533H18.5902M18.5953 17.6533H18.5902M18.5902 17.6533H18.5851M18.5902 17.6533H18.5851M18.5851 17.6533H18.58M18.5851 17.6533H18.58M18.58 17.6533H18.5749M18.58 17.6533H18.5749M18.5749 17.6533H18.5698M18.5749 17.6533H18.5698M18.5698 17.6533H18.5647M18.5698 17.6533H18.5647M18.5647 17.6533H18.5596M18.5647 17.6533H18.5596M18.5596 17.6533H18.5545M18.5596 17.6533H18.5545M18.5545 17.6533H18.5494M18.5545 17.6533H18.5494M18.5494 17.6533H18.5443H18.5494Z" stroke="#757575"/>
<path d="M23.333 14.924C23.333 14.8586 23.3143 14.784 23.2863 14.7186C23.1836 14.4946 22.9876 14.4386 22.7543 14.448C22.325 13.1133 21.569 12.0213 20.449 11.2C19.3196 10.3693 18.0503 9.93065 16.6503 9.98665C13.6543 10.0986 11.7223 11.6853 10.649 14.4573C10.6303 14.4573 10.5836 14.4573 10.537 14.4573C10.2943 14.476 10.1076 14.6533 10.0983 14.896C10.089 15.5306 10.089 16.1653 10.0983 16.8C10.0983 17.024 10.2756 17.22 10.4996 17.2386C10.7703 17.2573 11.041 17.2386 11.321 17.2386C11.321 17.0146 11.321 16.8 11.321 16.5853C11.3023 15.8573 11.405 15.148 11.6476 14.4666C12.5436 11.928 15.269 10.444 17.9196 11.0506C20.0943 11.5546 21.765 13.3466 22.0263 15.5493C22.129 16.3986 22.073 17.276 22.0916 18.1346C22.0916 18.144 22.0823 18.1533 22.073 18.172C21.6436 18.172 21.2143 18.172 20.7756 18.172C20.589 18.4706 20.4023 18.7786 20.2063 19.096C21.0183 19.096 21.793 19.096 22.5676 19.096C22.8383 19.096 23.025 18.8906 23.025 18.6106C23.025 18.1813 23.025 17.752 23.0343 17.332C23.0343 17.276 23.0716 17.2106 23.1183 17.1826C23.2583 17.08 23.333 16.9493 23.333 16.7813C23.333 16.1466 23.333 15.54 23.333 14.924Z" fill="#757575"/>
<path d="M20.2624 20.3746C19.2171 21.2613 18.0411 21.7093 16.7064 21.7093C15.3717 21.7093 14.2051 21.252 13.1877 20.3933C13.1597 20.412 13.1504 20.412 13.1411 20.4213C13.1131 20.44 13.0851 20.4586 13.0571 20.4866C12.0677 21.28 11.3957 22.2226 11.0317 23.3333H22.3997C22.1291 22.5213 21.6811 21.7746 21.0557 21.112C20.8131 20.8506 20.5237 20.6173 20.2624 20.3746Z" fill="#757575"/>
<path d="M4.9745 13.764C5.02117 13.764 5.07717 13.764 5.12384 13.764C5.3105 13.7173 5.41317 13.596 5.46917 13.4187C5.65584 12.8587 5.90784 12.336 6.24384 11.8507C6.80384 11.0293 7.54117 10.4227 8.4465 10.0213C9.10917 9.73201 9.79984 9.56401 10.5185 9.48001C10.8078 9.45201 11.0878 9.43334 11.3865 9.40534C11.3865 9.46134 11.3865 9.49867 11.3865 9.53601C11.3865 10.1427 11.3865 10.74 11.3865 11.3467C11.3865 11.44 11.4238 11.5613 11.4798 11.636C11.6385 11.8507 11.9278 11.8227 12.1145 11.5987C13.2438 10.2173 14.3732 8.82667 15.5025 7.44534C15.5865 7.34267 15.6518 7.23067 15.7265 7.11867C15.7265 7.06267 15.7265 7.00667 15.7265 6.94134C15.6612 6.84801 15.6052 6.74534 15.5305 6.66134C15.3998 6.50267 15.2598 6.36267 15.1292 6.21334C14.1305 5.09334 13.1318 3.98267 12.1332 2.86267C12.0958 2.81601 12.0492 2.76934 12.0025 2.73201C11.8718 2.64801 11.7412 2.63867 11.6012 2.70401C11.4612 2.77867 11.3865 2.90001 11.3865 3.06801C11.3865 3.68401 11.3865 4.30001 11.3865 4.91601C11.3865 4.95334 11.3865 4.99067 11.3865 5.03734C11.1905 5.05601 11.0038 5.07467 10.8078 5.10267C9.92117 5.22401 9.0905 5.51334 8.32517 5.98001C6.97184 6.81067 6.0385 7.99601 5.4225 9.44267C4.90917 10.6467 4.6945 11.916 4.6665 13.2227C4.6665 13.484 4.73184 13.6707 4.9745 13.764Z" fill="#7721AD"/>
</g>
<defs>
<clipPath id="clip0_210_332">
<rect width="28" height="28" fill="white"/>
</clipPath>
</defs>
</svg>
