<?xml version="1.0" encoding="utf-8"?>
<!-- Generator: Adobe Illustrator 26.0.0, SVG Export Plug-In . SVG Version: 6.00 Build 0)  -->
<svg version="1.1" id="Capa_1" xmlns="http://www.w3.org/2000/svg" xmlns:xlink="http://www.w3.org/1999/xlink" x="0px" y="0px"
	 viewBox="0 0 28 29" style="enable-background:new 0 0 28 29;" xml:space="preserve">
<style type="text/css">
	.st0{fill:#FFFFFF;stroke:#929292;stroke-miterlimit:10;}
	.st1{fill:#7721AD;}
</style>
<g>
	<path class="st0" d="M14.8,17.2v6.6H9c-0.1,0-0.3,0-0.4,0c-0.1,0-0.2-0.1-0.3-0.2c-0.1-0.1-0.2-0.2-0.2-0.3c0-0.1-0.1-0.2,0-0.4V18
		c0-0.1,0-0.2,0.1-0.3c0-0.1,0.1-0.2,0.2-0.3c0.1-0.1,0.2-0.1,0.3-0.2c0.1,0,0.2-0.1,0.3-0.1L14.8,17.2L14.8,17.2z"/>
	<path class="st0" d="M16.5,23.8v-6.6h5.7c0.1,0,0.3,0,0.4,0c0.1,0,0.2,0.1,0.3,0.2c0.1,0.1,0.2,0.2,0.2,0.3c0,0.1,0.1,0.2,0,0.4
		v4.8c0,0.1,0,0.3,0,0.4c0,0.1-0.1,0.2-0.2,0.3c-0.1,0.1-0.2,0.2-0.3,0.2c-0.1,0-0.2,0.1-0.4,0L16.5,23.8L16.5,23.8z"/>
	<path class="st0" d="M18.9,15.5h-6.6V9.8c0-0.1,0-0.3,0-0.4c0-0.1,0.1-0.3,0.2-0.4s0.2-0.2,0.4-0.2c0.1,0,0.3,0,0.4,0H18
		c0.1,0,0.2,0,0.4,0c0.1,0,0.2,0.1,0.3,0.2s0.2,0.2,0.2,0.3C19,9.4,19,9.5,19,9.6v5.6C19,15.2,18.9,15.5,18.9,15.5z"/>
	<path class="st1" d="M5.3,16.1h0.2c0.1,0,0.2-0.1,0.2-0.1c0.1-0.1,0.1-0.1,0.1-0.2c0.2-0.5,0.4-1.1,0.8-1.5
		c0.5-0.8,1.3-1.4,2.2-1.8c0.6-0.3,1.3-0.5,2-0.5l0.9-0.1v1.9c0,0.1,0,0.2,0.1,0.3c0,0.1,0.1,0.1,0.1,0.1c0.1,0,0.1,0,0.2,0
		c0.1,0,0.1,0,0.2,0c0.1,0,0.1-0.1,0.1-0.1l3.4-4.1c0.1-0.1,0.2-0.2,0.2-0.3V9.4c-0.1-0.1-0.1-0.2-0.2-0.3l-0.4-0.4l-3-3.3l-0.1-0.1
		c-0.1,0-0.1-0.1-0.2-0.1c-0.1,0-0.1,0-0.2,0.1c-0.1,0-0.1,0.1-0.2,0.1c0,0.1-0.1,0.1-0.1,0.2v1.8L11,7.5c-0.9,0.1-1.7,0.4-2.5,0.9
		c-1.3,0.8-2.3,2-2.9,3.4c-0.5,1.2-0.7,2.5-0.7,3.7c0,0.1,0,0.1,0,0.2c0,0.1,0,0.1,0.1,0.2C5,16,5.1,16,5.1,16
		C5.2,16.1,5.2,16.1,5.3,16.1z"/>
</g>
</svg>
