<?xml version="1.0" encoding="utf-8"?>
<!-- Generator: Adobe Illustrator 23.0.5, SVG Export Plug-In . SVG Version: 6.00 Build 0)  -->
<svg version="1.1" xmlns="http://www.w3.org/2000/svg" xmlns:xlink="http://www.w3.org/1999/xlink" x="0px" y="0px"
	 viewBox="0 0 300 300" style="enable-background:new 0 0 300 300;" xml:space="preserve">
<style type="text/css">
	.st0{fill:#E5CCF5;}
	.st1{fill:#7721AD;}
	.st2{fill:#381052;}
	.st3{fill:#FFFFFF;}
</style>
<g id="Capa_1">
	<path class="st0" d="M298.2,42.2c-5.3-21.9-25.1-39.3-47.3-41.7c-0.4,0-0.9-0.4-1.3-0.6C183.2,0,116.8,0,50.4,0
		c-2.7,0.6-5.4,1.1-8.1,1.8C20.3,7.1,2.9,26.9,0.6,49.1c0,0.4-0.4,0.9-0.6,1.3c0,66.4,0,132.8,0,199.2c0.6,2.7,1.1,5.4,1.8,8.1
		c5.3,21.9,25.1,39.3,47.3,41.7c0.4,0,0.9,0.4,1.3,0.6c66.4,0,132.8,0,199.2,0c3.9-1,8-1.6,11.7-2.9c21.1-7.4,33.5-22.4,38-44.1
		c0.2-1.1,0.4-2.2,0.7-3.3c0-66.4,0-132.8,0-199.2C299.4,47.7,298.9,44.9,298.2,42.2z"/>
</g>
<g id="Capa_2">
	<g>
		<g>
			<path class="st2" d="M120.5,58.8c2.7,1.1,5.6,2,8.1,3.5c2.9,1.7,4.7,4.6,5.9,7.9c3.9,0,7.7,0,11.6,0c4.2,0,6.5,2.2,6.5,6.5
				c0,7.1,0,14.1,0,21.2c0,4.3-2.2,6.5-6.4,6.5c-18.5,0-37,0-55.5,0c-4.2,0-6.4-2.3-6.4-6.5c0-7.1,0-14.1,0-21.2
				c0-4.2,2.2-6.5,6.5-6.5c3.9,0,7.7,0,11.6,0c2-4.9,5.3-8.5,10.3-10.3c1.2-0.5,2.5-0.7,3.7-1.1C117.7,58.8,119.1,58.8,120.5,58.8z"
				/>
			<path class="st2" d="M164,81.7c4.4,0,8.7-0.3,13,0.1c5.2,0.4,9,4.5,9.7,9.6c0.1,0.9,0.1,1.8,0.1,2.7c0,44.9,0,89.8,0,134.6
				c0,5-1.8,9-6.4,11.2c-1.7,0.8-3.6,1.2-5.5,1.2c-37.7,0.1-75.4,0.1-113.1,0c-7.1,0-11.9-4.8-11.9-11.9c0-45.2,0-90.5,0-135.7
				c0-7.1,4.9-11.9,12-12c3.5,0,7.1,0,10.8,0c0,5.4-0.1,10.7,0,16c0,1.8,0.2,3.7,0.6,5.4c2.2,7.8,8.3,12.7,16.4,12.7
				c19,0.1,38,0.2,57,0c9.9-0.1,17-7.6,17.1-17.5C164.1,92.8,164,87.3,164,81.7z M89.9,147.8c-2.5-2.5-4.8-4.9-7.1-7.2
				c-1.5-1.5-3.3-2.3-5.5-1.7c-4.5,1.1-5.9,6.3-2.6,9.6c3.5,3.6,7.1,7.2,10.7,10.7c3.1,3.1,6.2,3.1,9.3-0.1
				c5.3-5.3,10.6-10.6,15.9-15.9c2.1-2.1,4.3-4.2,6.4-6.4c3-3.3,1.5-8.3-2.8-9.4c-2.3-0.6-4.2,0.3-5.8,2
				C102.2,135.4,96.2,141.4,89.9,147.8z M90.1,193.1c-0.3-0.1-0.4-0.1-0.4-0.1c-2.3-2.3-4.6-4.6-7-6.9c-1.5-1.5-3.3-2.2-5.5-1.7
				c-4.4,1.1-5.9,6.3-2.6,9.7c3.5,3.6,7,7.1,10.6,10.6c3.2,3.2,6.2,3.2,9.4,0c5.5-5.5,11.1-11.1,16.6-16.6c1.9-1.9,3.8-3.7,5.6-5.7
				c3-3.3,1.4-8.4-2.9-9.4c-2.3-0.6-4.1,0.4-5.8,2C102.2,181,96.1,187.1,90.1,193.1z"/>
		</g>
		<path class="st1" d="M230,207.4h-81.6c-11,0-20-9-20-20v-31.5c0-11,9-20,20-20H230c11,0,20,9,20,20v31.5
			C250,198.4,241,207.4,230,207.4z"/>
	</g>
	<g>
		<path class="st3" d="M151.2,155.5h17.8v5.3h-11.2v5.8h8.3v5.2h-8.3v11.1h-6.7V155.5z"/>
		<path class="st3" d="M187.1,155.2c6.5,0,11.4,3.7,13,9.6h-7.3c-1.1-2.3-3.2-3.5-5.7-3.5c-4.1,0-6.9,3-6.9,7.9s2.8,7.9,6.9,7.9
			c2.5,0,4.6-1.2,5.7-3.5h7.3c-1.6,5.9-6.5,9.6-13,9.6c-8.1,0-13.8-5.7-13.8-13.9S179.1,155.2,187.1,155.2z"/>
		<path class="st3" d="M217.4,155.5c6.7,0,10.1,3.9,10.1,8.6c0,3.4-1.9,6.7-6.1,7.9l6.3,10.8h-7.5l-5.7-10.3h-1.6v10.3h-6.7v-27.4
			H217.4z M217,161.1h-4.1v6.8h4.1c2.5,0,3.7-1.3,3.7-3.4C220.6,162.4,219.5,161.1,217,161.1z"/>
	</g>
</g>
</svg>
