<svg width="28" height="28" viewBox="0 0 28 28" fill="none" xmlns="http://www.w3.org/2000/svg">
<g clip-path="url(#clip0_210_54)">
<path d="M27.832 3.93866C27.3373 1.89466 25.4893 0.270662 23.4173 0.0466616C23.38 0.0466616 23.3333 0.00932829 23.296 -0.00933838C17.0987 -5.04497e-06 10.9013 -5.04497e-06 4.704 -5.04497e-06C4.452 0.055995 4.2 0.102662 3.948 0.167995C1.89467 0.662662 0.270667 2.51066 0.056 4.58266C0.056 4.61999 0.0186667 4.66666 0 4.70399C0 10.9013 0 17.0987 0 23.296C0.056 23.548 0.102667 23.8 0.168 24.052C0.662667 26.096 2.51067 27.72 4.58267 27.944C4.62 27.944 4.66667 27.9813 4.704 28C10.9013 28 17.0987 28 23.296 28C23.66 27.9067 24.0427 27.8507 24.388 27.7293C26.3573 27.0387 27.5147 25.6387 27.9347 23.6133C27.9533 23.5107 27.972 23.408 28 23.3053C28 17.108 28 10.9107 28 4.71333C27.944 4.45199 27.8973 4.19066 27.832 3.93866Z" fill="white"/>
<path d="M21.7465 18.844C20.5051 18.844 19.2731 18.844 18.0318 18.844C17.2105 18.844 16.6318 19.4227 16.6318 20.244C16.6318 20.3653 16.6318 20.4867 16.6318 20.6173H15.5958C14.1118 20.6173 12.6278 20.6173 11.1438 20.6173C11.0131 20.6173 10.8731 20.5987 10.7331 20.5707C9.64114 20.3373 8.88514 19.32 8.99714 18.2467C9.11847 17.0987 10.0425 16.268 11.1811 16.268C12.1238 16.268 12.8891 16.268 13.5798 16.268C13.5985 16.268 13.6358 16.2867 13.6545 16.3053C14.2238 16.8653 14.7838 17.4253 15.2971 17.948C15.2971 17.9573 15.3065 17.976 15.3158 17.9853C15.3251 18.004 15.3345 18.032 15.3438 18.0507C15.3718 18.1067 15.4278 18.144 15.4931 18.1627C15.5585 18.1813 15.6238 18.1627 15.6705 18.1253C15.7731 18.0507 15.8198 17.9947 15.8571 17.9573C15.8665 17.948 15.8758 17.9387 15.8758 17.9293L16.0345 17.7707C16.5198 17.2853 17.0238 16.7813 17.5185 16.2867C17.5371 16.268 17.5745 16.2587 17.5931 16.2587C18.0691 16.2587 18.5545 16.2587 19.0211 16.2587C19.3198 16.2587 19.6185 16.2587 19.9171 16.2587C20.0851 16.2587 20.2531 16.2493 20.4118 16.2307C21.2425 16.1373 22.0171 15.68 22.5305 14.9707C23.0438 14.2707 23.2491 13.3933 23.0811 12.572C22.7825 11.0413 21.5225 10.0053 19.9638 10.0053C18.7038 10.0053 17.4438 10.0053 16.1745 10.0053H14.5411C14.5411 9.87467 14.5411 9.744 14.5411 9.61333C14.5318 8.82 13.9531 8.24133 13.1598 8.24133C11.9091 8.24133 10.6678 8.24133 9.41714 8.24133C8.60514 8.24133 8.0358 8.81067 8.02647 9.62267C8.02647 10.1453 8.02647 10.668 8.02647 11.1813V11.312C8.02647 12.1613 8.5958 12.7307 9.44514 12.7307C10.3691 12.7307 11.2931 12.7307 12.2265 12.7307H13.0851C13.9811 12.7307 14.5411 12.1707 14.5411 11.2747V10.9573H15.3905C16.9398 10.9573 18.4891 10.9573 20.0385 10.9573C20.1598 10.9573 20.2905 10.9667 20.4211 10.9947C21.5225 11.2187 22.2878 12.236 22.1758 13.3187C22.0545 14.4667 21.1398 15.3067 19.9918 15.3067C19.1611 15.3067 18.3491 15.3067 17.5745 15.3067C17.5558 15.3067 17.5278 15.288 17.5091 15.2787C16.9585 14.7373 16.4078 14.1867 15.9038 13.6733C15.8758 13.6453 15.8571 13.6173 15.8291 13.58C15.8105 13.552 15.7918 13.5333 15.7731 13.5053C15.7358 13.4587 15.6798 13.4213 15.6145 13.4213C15.5491 13.412 15.4931 13.44 15.4465 13.4867L15.3718 13.552C15.3345 13.5893 15.3065 13.6173 15.2785 13.636L14.9425 13.972C14.5038 14.4107 14.0745 14.84 13.6358 15.2787C13.6078 15.3067 13.5891 15.316 13.5518 15.316H13.2625C12.5531 15.316 11.8158 15.3067 11.0878 15.316C10.1451 15.3253 9.2678 15.764 8.6798 16.5293C8.0918 17.2947 7.88647 18.256 8.11047 19.18C8.46514 20.608 9.6878 21.5693 11.1531 21.5787C12.4318 21.5787 13.7385 21.5787 14.9985 21.5787C15.5398 21.5787 16.0811 21.5787 16.6131 21.5787C16.6131 21.7093 16.6131 21.84 16.6131 21.9613C16.6131 22.7733 17.1825 23.3427 18.0038 23.3427C18.6105 23.3427 19.2078 23.3427 19.8145 23.3427C20.4491 23.3427 21.0931 23.3427 21.7278 23.3427C22.5491 23.3427 23.1185 22.7733 23.1185 21.952C23.1185 21.3827 23.1185 20.8133 23.1185 20.244C23.1465 19.4133 22.5678 18.844 21.7465 18.844Z" fill="#757575"/>
<path d="M5.15197 15.764C5.19864 15.764 5.25464 15.764 5.3013 15.764C5.48797 15.7173 5.59064 15.596 5.64664 15.4187C5.8333 14.8587 6.0853 14.336 6.4213 13.8507C6.9813 13.0293 7.72797 12.4227 8.6333 12.0213C9.29597 11.732 9.99597 11.564 10.7053 11.48C10.9946 11.452 11.2746 11.4333 11.5826 11.4053C11.5826 11.4613 11.5826 11.4987 11.5826 11.536C11.5826 12.1427 11.5826 12.74 11.5826 13.3467C11.5826 13.44 11.62 13.5613 11.676 13.636C11.8346 13.8507 12.124 13.8227 12.3106 13.5987C13.4493 12.2173 14.5786 10.8267 15.708 9.43601C15.792 9.33334 15.8573 9.22134 15.932 9.10934C15.932 9.05334 15.932 8.99734 15.932 8.93201C15.8666 8.83867 15.8106 8.73601 15.736 8.65201C15.6053 8.49334 15.4653 8.35334 15.3346 8.20401C14.3453 7.09334 13.3466 5.98267 12.3386 4.86267C12.3013 4.81601 12.2546 4.76934 12.208 4.73201C12.0773 4.64801 11.9466 4.63867 11.8066 4.70401C11.6666 4.77867 11.592 4.90001 11.592 5.06801C11.592 5.68401 11.592 6.30001 11.592 6.92534C11.592 6.96267 11.592 7.00001 11.592 7.04667C11.396 7.06534 11.2 7.08401 11.0133 7.11201C10.1173 7.23334 9.28664 7.52267 8.5213 7.98934C7.15864 8.82001 6.2253 10.0053 5.6093 11.452C5.09597 12.656 4.87197 13.9253 4.8533 15.2413C4.84397 15.4933 4.91864 15.6707 5.15197 15.764Z" fill="#7721AD"/>
</g>
<defs>
<clipPath id="clip0_210_54">
<rect width="28" height="28" fill="white"/>
</clipPath>
</defs>
</svg>
