<svg width="28" height="28" viewBox="0 0 28 28" fill="none" xmlns="http://www.w3.org/2000/svg">
<g clip-path="url(#clip0_359_1101)">
<path d="M27.83 3.93997C27.5708 2.92355 27.0115 2.00879 26.2249 1.31491C25.4382 0.621031 24.4609 0.180209 23.42 0.0499573C23.3756 0.0403722 23.3344 0.0197375 23.3 -0.0100403H4.69995C4.44995 0.0499597 4.19995 0.0899731 3.94995 0.159973C2.93159 0.415331 2.0147 0.973545 1.32019 1.76089C0.62568 2.54824 0.186317 3.52771 0.0600586 4.56998C0.0504735 4.61439 0.0297778 4.65566 0 4.68997V23.2899C0.06 23.5399 0.100044 23.7899 0.170044 24.0399C0.429183 25.0564 0.988512 25.9712 1.77515 26.6651C2.56178 27.3589 3.53914 27.7997 4.57996 27.93C4.62437 27.9395 4.66564 27.9602 4.69995 27.99H23.3C23.66 27.9 24.04 27.8399 24.39 27.7199C25.3036 27.4282 26.1184 26.8887 26.7434 26.1612C27.3684 25.4338 27.7792 24.5471 27.9301 23.5999C27.9301 23.4999 27.93 23.4 28 23.3V4.69998C27.94 4.44998 27.9 4.18997 27.83 3.93997Z" fill="white"/>
<path d="M2.76582 23.329C2.56386 23.2657 2.35279 23.2228 2.16198 23.1357C1.41598 22.7945 0.999545 22.2298 1 21.3844C1.00182 16.7873 1.00235 12.1899 1.00159 7.59239C1.00159 6.44315 1.89474 5.53386 3.04739 5.51293C3.65373 5.50202 4.26031 5.51111 4.901 5.51111C4.901 5.27708 4.901 5.05396 4.901 4.83062C4.901 4.45512 5.0345 4.30752 5.41455 4.29887C5.84145 4.28841 6.26858 4.29273 6.69547 4.29592C6.79873 4.29592 6.85991 4.27499 6.90995 4.16878C7.3298 3.27836 8.03826 2.82281 9.02216 2.83054C10.0001 2.83827 10.7423 3.24288 11.1564 4.16742C11.1826 4.22587 11.279 4.28659 11.3443 4.28864C11.7443 4.29978 12.1449 4.29182 12.5452 4.29569C12.6583 4.29361 12.7713 4.30553 12.8815 4.33117C13.109 4.39167 13.1999 4.51539 13.2034 4.75034C13.2068 4.99597 13.2034 5.24137 13.2034 5.5102C13.4394 5.5102 13.6582 5.50702 13.8757 5.5102C14.376 5.51953 14.8802 5.4911 15.3736 5.55251C16.3481 5.67373 17.1005 6.54913 17.1021 7.53121C17.1063 12.1752 17.1063 16.8192 17.1021 21.4633C17.1021 22.361 16.4289 23.1061 15.4896 23.2851C15.4386 23.2949 15.3893 23.3128 15.3392 23.3269L2.76582 23.329ZM4.901 6.51456C4.87751 6.5047 4.85314 6.49708 4.82822 6.49182C4.28123 6.48977 3.73425 6.48682 3.18726 6.4875C2.41238 6.4875 1.97161 6.931 1.97161 7.70406V21.2952C1.97161 21.3487 1.97161 21.4021 1.97161 21.4544C1.98003 21.7501 2.11035 21.9775 2.35371 22.1424C2.5891 22.3016 2.85407 22.3533 3.13245 22.3533C7.07545 22.3533 11.0186 22.3528 14.9619 22.3519C15.0753 22.3522 15.1885 22.3432 15.3003 22.3248C15.8323 22.2357 16.133 21.8802 16.133 21.3441C16.133 16.7802 16.133 12.2163 16.133 7.65243C16.133 6.95716 15.6822 6.4966 14.9869 6.48704C14.58 6.48136 14.1731 6.48591 13.766 6.48568H13.2422C13.2236 6.51866 13.2115 6.5298 13.2115 6.54117C13.2084 6.87475 13.206 7.20832 13.2045 7.5419C13.2029 7.99859 13.0148 8.19328 12.5661 8.1935C10.2174 8.1935 7.86882 8.1935 5.52031 8.1935C5.08659 8.1935 4.90214 8.00678 4.90123 7.57124C4.90032 7.21985 4.901 6.86709 4.901 6.51456ZM12.2156 5.26866H10.9995C10.5856 5.26866 10.4418 5.15927 10.3297 4.76012C10.1493 4.1192 9.563 3.69389 8.92481 3.7412C8.34553 3.78418 7.86154 4.20267 7.69188 4.80788C7.5984 5.14107 7.43214 5.26753 7.08576 5.26866C6.95885 5.26866 6.83216 5.26866 6.70525 5.26866H5.89854V7.20916H12.2156V5.26866Z" fill="#757575"/>
<path d="M5.20474 12.6063C5.82191 12.0187 6.43758 11.433 7.05175 10.849C7.30499 10.6099 7.55824 10.5677 7.8143 10.7083C8.1801 10.9123 8.26451 11.3555 7.96652 11.6462C7.17377 12.4153 6.3723 13.175 5.5621 13.9254C5.31589 14.1544 5.00356 14.1331 4.76354 13.8939C4.35497 13.4866 3.95165 13.0739 3.55359 12.6558C3.28402 12.3722 3.28093 11.9858 3.52995 11.7495C3.768 11.5244 4.13858 11.5545 4.41124 11.8283C4.66139 12.0792 4.90676 12.3347 5.15466 12.588C5.15944 12.5947 5.16929 12.5947 5.20474 12.6063Z" fill="#757575"/>
<path d="M5.20474 16.3206C5.82191 15.733 6.43758 15.1473 7.05175 14.5633C7.30499 14.3241 7.55824 14.2819 7.8143 14.4226C8.1801 14.6266 8.26451 15.0698 7.96652 15.3605C7.17377 16.1296 6.3723 16.8893 5.5621 17.6397C5.31589 17.8687 5.00356 17.8473 4.76354 17.6082C4.35497 17.2009 3.95165 16.7882 3.55359 16.3701C3.28402 16.0864 3.28093 15.7001 3.52995 15.4637C3.768 15.2386 4.13858 15.2687 4.41124 15.5425C4.66139 15.7935 4.90676 16.049 5.15466 16.3023C5.15944 16.309 5.16929 16.309 5.20474 16.3206Z" fill="#757575"/>
<path d="M23.3684 20H12.6316C11.1842 20 10 18.8671 10 17.4825V13.5175C10 12.1329 11.1842 11 12.6316 11H23.3684C24.8158 11 26 12.1329 26 13.5175V17.4825C26 18.8671 24.8158 20 23.3684 20Z" fill="white" stroke="#7721AD"/>
<path d="M13.0164 13H15.9398V13.8704H14.1004V14.823H15.4635V15.677H14.1004V17.5H13V13H13.0164Z" fill="#7721AD"/>
<path d="M16.8428 13H17.9431V17.5H16.8428V13Z" fill="#7721AD"/>
<path d="M20.8826 16.1204L20.0779 17.5H18.8297L20.275 15.2172L18.7969 13H20.0779L20.9812 14.3631L21.7695 13H23.0177L21.5888 15.2664L23.0669 17.5H21.7859L20.8826 16.1204Z" fill="#7721AD"/>
</g>
<defs>
<clipPath id="clip0_359_1101">
<rect width="28" height="28" fill="white"/>
</clipPath>
</defs>
</svg>
