<svg width="28" height="28" viewBox="0 0 28 28" fill="none" xmlns="http://www.w3.org/2000/svg">
<g clip-path="url(#clip0_210_400)">
<path d="M27.832 3.93872C27.3373 1.89472 25.4893 0.270723 23.4173 0.0467227C23.38 0.0467227 23.3333 0.00938932 23.296 -0.00927734C17.0987 5.59902e-05 10.9013 5.59902e-05 4.704 5.59902e-05C4.452 0.056056 4.2 0.102723 3.948 0.168056C1.89467 0.662723 0.270667 2.51072 0.056 4.58272C0.056 4.62006 0.0186667 4.66672 0 4.70406C0 10.9014 0 17.0987 0 23.2961C0.056 23.5481 0.102667 23.8001 0.168 24.0521C0.662667 26.0961 2.51067 27.7201 4.58267 27.9441C4.62 27.9441 4.66667 27.9814 4.704 28.0001C10.9013 28.0001 17.0987 28.0001 23.296 28.0001C23.66 27.9067 24.0427 27.8507 24.388 27.7294C26.3573 27.0387 27.5147 25.6387 27.9347 23.6134C27.9533 23.5107 27.972 23.4081 28 23.3054C28 17.1081 28 10.9107 28 4.71339C27.944 4.45206 27.8973 4.19072 27.832 3.93872Z" fill="white"/>
<path d="M21.3544 7.11196C21.2051 6.60796 21.0931 6.11329 20.9251 5.64663C20.7571 5.19863 20.4024 4.90929 19.9544 4.75063C19.8611 4.71329 19.7584 4.69463 19.6558 4.66663C19.4971 4.66663 19.3384 4.66663 19.1798 4.66663C19.1611 4.67596 19.1518 4.69463 19.1331 4.69463C18.3678 4.89996 17.5931 5.09596 16.8278 5.30129C13.5798 6.16929 10.3224 7.04663 7.07445 7.91463C6.05712 8.18529 5.55311 9.20263 5.95445 10.2106C6.01045 10.2106 6.08512 10.2106 6.15045 10.2106C7.30778 10.2106 8.45578 10.2106 9.61312 10.2106C9.74378 10.2106 9.88378 10.192 10.0051 10.1546C13.4398 9.23996 16.8744 8.31596 20.2998 7.39196C20.6451 7.29863 20.9904 7.20529 21.3544 7.11196Z" fill="#757575"/>
<path d="M23.2584 14.252C22.9224 12.9827 22.5771 11.7133 22.2411 10.444C22.2317 10.3973 22.2037 10.3507 22.1851 10.2947C21.5877 10.4533 20.9997 10.612 20.3931 10.78C20.4304 10.8173 20.4491 10.8453 20.4677 10.864C21.1397 11.452 21.4571 12.1893 21.4477 13.0853C21.4384 14.168 21.4477 15.2507 21.4477 16.324C21.4477 16.3893 21.4477 16.4547 21.4477 16.5387C21.6717 16.4827 21.8677 16.436 22.0637 16.3707C23.0437 16.0813 23.5291 15.2413 23.2584 14.252Z" fill="#757575"/>
<path d="M21.9147 9.22129C21.8214 8.86663 21.728 8.53063 21.6347 8.16663C19.124 8.83863 16.6414 9.50129 14.1587 10.1733C15.4467 10.2106 16.7347 10.2106 18.0134 10.2013C18.172 10.2013 18.34 10.1733 18.4987 10.136C19.2547 9.93996 20.0107 9.73463 20.7667 9.52929C21.1494 9.43596 21.5227 9.33329 21.9147 9.22129Z" fill="#757575"/>
<path d="M18.5825 11.3026C14.5318 11.3026 10.4718 11.3026 6.42117 11.3026C5.5065 11.3026 4.9185 11.7693 4.6945 12.6559C4.68517 12.6746 4.67584 12.7026 4.6665 12.7213C4.6665 15.7826 4.6665 18.8533 4.6665 21.9146C4.6945 22.0173 4.71317 22.1106 4.7505 22.2133C4.9745 22.8946 5.59984 23.3333 6.3465 23.3333C8.34384 23.3333 10.3318 23.3333 12.3292 23.3333C14.4105 23.3333 16.5012 23.3333 18.5825 23.3333C19.6652 23.3333 20.3465 22.6519 20.3465 21.5693C20.3465 18.7319 20.3465 15.8946 20.3465 13.0573C20.3465 11.9839 19.6652 11.3026 18.5825 11.3026ZM6.30917 13.5519C6.30917 13.1599 6.53317 12.9453 6.92517 12.9453C8.10117 12.9453 9.26784 12.9453 10.4438 12.9453C10.8358 12.9453 11.0598 13.1693 11.0598 13.5519C11.0598 14.2426 11.0598 14.9333 11.0598 15.6333C11.0598 16.0066 10.8358 16.2306 10.4532 16.2306C9.85584 16.2306 9.2585 16.2306 8.6705 16.2306C8.09184 16.2306 7.51317 16.2306 6.94384 16.2306C6.5425 16.2306 6.3185 16.0159 6.3185 15.6146C6.30917 14.9239 6.30917 14.2333 6.30917 13.5519ZM6.85984 18.4146C7.22384 18.4053 7.58784 18.4053 7.95184 18.4146C8.25984 18.4239 8.49317 18.6573 8.49317 18.9559C8.49317 19.2546 8.25984 19.4973 7.95184 19.5066C7.76517 19.5159 7.5785 19.5066 7.39184 19.5066C7.2145 19.5066 7.03717 19.5066 6.86917 19.5066C6.55184 19.4973 6.30917 19.2546 6.3185 18.9559C6.30917 18.6573 6.55184 18.4146 6.85984 18.4146ZM10.4438 21.6906C9.8465 21.6906 9.2585 21.6906 8.66117 21.6906C8.0825 21.6906 7.50384 21.6906 6.9345 21.6906C6.56117 21.6906 6.3185 21.4759 6.30917 21.1493C6.30917 20.8226 6.55184 20.5986 6.92517 20.5986C8.10117 20.5986 9.26784 20.5986 10.4438 20.5986C10.8078 20.5986 11.0598 20.8226 11.0598 21.1493C11.0412 21.4759 10.7985 21.6906 10.4438 21.6906ZM11.2372 19.5066C10.8638 19.5159 10.4998 19.5159 10.1265 19.5066C9.8185 19.4973 9.58517 19.2546 9.58517 18.9559C9.58517 18.6573 9.82784 18.4239 10.1358 18.4146C10.3132 18.4053 10.4998 18.4146 10.6772 18.4146C10.8545 18.4146 11.0412 18.4146 11.2185 18.4146C11.5265 18.4239 11.7598 18.6573 11.7692 18.9559C11.7785 19.2546 11.5452 19.4973 11.2372 19.5066ZM14.5132 19.5066C14.3358 19.5159 14.1492 19.5066 13.9718 19.5066C13.7945 19.5066 13.6172 19.5066 13.4492 19.5066C13.1225 19.4973 12.8892 19.2639 12.8798 18.9653C12.8798 18.6573 13.1132 18.4239 13.4398 18.4146C13.7945 18.4053 14.1585 18.4053 14.5132 18.4146C14.8305 18.4146 15.0732 18.6573 15.0732 18.9653C15.0545 19.2639 14.8212 19.4973 14.5132 19.5066ZM18.1345 16.2213C17.5465 16.2213 16.9585 16.2213 16.3705 16.2213C16.0345 16.2213 15.7918 15.9786 15.7918 15.6706C15.7918 15.3626 16.0438 15.1293 16.3798 15.1293C16.6785 15.1293 16.9772 15.1293 17.2758 15.1293C17.5652 15.1293 17.8452 15.1293 18.1345 15.1293C18.4705 15.1293 18.7132 15.3626 18.7225 15.6706C18.7132 15.9879 18.4705 16.2213 18.1345 16.2213ZM18.1532 14.0373C17.8545 14.0466 17.5465 14.0373 17.2478 14.0373C16.9585 14.0373 16.6692 14.0373 16.3705 14.0373C16.0345 14.0373 15.7918 13.7946 15.7918 13.4866C15.7918 13.1786 16.0345 12.9453 16.3612 12.9453C16.9585 12.9453 17.5465 12.9453 18.1438 12.9453C18.4705 12.9453 18.7038 13.1786 18.7132 13.4866C18.7132 13.7946 18.4705 14.0279 18.1532 14.0373Z" fill="#7721AD"/>
<path d="M9.94925 14.0466C9.09059 14.0466 8.25059 14.0466 7.41992 14.0466C7.41992 14.4106 7.41992 14.7653 7.41992 15.12C8.26926 15.12 9.10926 15.12 9.94925 15.12C9.94925 14.7653 9.94925 14.4106 9.94925 14.0466Z" fill="#7721AD"/>
</g>
<defs>
<clipPath id="clip0_210_400">
<rect width="28" height="28" fill="white"/>
</clipPath>
</defs>
</svg>
