<svg width="28" height="28" viewBox="0 0 28 28" fill="none" xmlns="http://www.w3.org/2000/svg">
<g clip-path="url(#clip0_210_247)">
<g clip-path="url(#clip1_210_247)">
<path d="M27.83 3.94C27.5708 2.92358 27.0115 2.00882 26.2249 1.31494C25.4382 0.621062 24.4609 0.180239 23.42 0.0499878C23.3756 0.0404027 23.3344 0.0197681 23.3 -0.0100098H4.69995C4.44995 0.0499902 4.19995 0.0900037 3.94995 0.160004C2.93159 0.415362 2.0147 0.973575 1.32019 1.76093C0.62568 2.54827 0.186317 3.52774 0.0600586 4.57001C0.0504735 4.61442 0.0297778 4.65569 0 4.69V23.29C0.06 23.54 0.100044 23.79 0.170044 24.04C0.429183 25.0564 0.988512 25.9712 1.77515 26.6651C2.56178 27.359 3.53914 27.7997 4.57996 27.93C4.62437 27.9396 4.66564 27.9602 4.69995 27.99H23.3C23.66 27.9 24.04 27.84 24.39 27.72C25.3036 27.4283 26.1184 26.8887 26.7434 26.1613C27.3684 25.4338 27.7792 24.5471 27.9301 23.6C27.9301 23.5 27.93 23.4 28 23.3V4.70001C27.94 4.45001 27.9 4.19 27.83 3.94Z" fill="white"/>
<path d="M7.76582 23.329C7.56386 23.2657 7.3528 23.2228 7.16198 23.1357C6.41598 22.7945 5.99955 22.2298 6 21.3844C6.00182 16.7873 6.00235 12.1899 6.00159 7.59239C6.00159 6.44315 6.89474 5.53386 8.04739 5.51293C8.65373 5.50202 9.26031 5.51111 9.901 5.51111C9.901 5.27708 9.901 5.05396 9.901 4.83062C9.901 4.45512 10.0345 4.30752 10.4146 4.29887C10.8414 4.28841 11.2686 4.29273 11.6955 4.29592C11.7987 4.29592 11.8599 4.27499 11.9099 4.16878C12.3298 3.27836 13.0383 2.82281 14.0222 2.83054C15.0001 2.83827 15.7423 3.24288 16.1564 4.16742C16.1826 4.22587 16.279 4.28659 16.3443 4.28864C16.7443 4.29978 17.1449 4.29182 17.5452 4.29569C17.6583 4.29361 17.7713 4.30553 17.8815 4.33117C18.109 4.39167 18.1999 4.51539 18.2034 4.75034C18.2068 4.99597 18.2034 5.24137 18.2034 5.5102C18.4394 5.5102 18.6582 5.50702 18.8757 5.5102C19.376 5.51953 19.8802 5.4911 20.3736 5.55251C21.3481 5.67373 22.1005 6.54913 22.1021 7.53121C22.1063 12.1752 22.1063 16.8192 22.1021 21.4633C22.1021 22.361 21.4289 23.1061 20.4896 23.2851C20.4386 23.2949 20.3893 23.3128 20.3392 23.3269L7.76582 23.329ZM9.901 6.51456C9.87751 6.5047 9.85314 6.49708 9.82822 6.49182C9.28123 6.48977 8.73425 6.48682 8.18726 6.4875C7.41238 6.4875 6.97161 6.931 6.97161 7.70406V21.2952C6.97161 21.3487 6.97161 21.4021 6.97161 21.4544C6.98003 21.7501 7.11035 21.9775 7.35371 22.1424C7.5891 22.3016 7.85407 22.3533 8.13245 22.3533C12.0754 22.3533 16.0186 22.3528 19.9619 22.3519C20.0753 22.3522 20.1885 22.3432 20.3003 22.3248C20.8323 22.2357 21.133 21.8802 21.133 21.3441C21.133 16.7802 21.133 12.2163 21.133 7.65243C21.133 6.95716 20.6822 6.4966 19.9869 6.48704C19.58 6.48136 19.1731 6.48591 18.766 6.48568H18.2422C18.2236 6.51866 18.2115 6.5298 18.2115 6.54117C18.2084 6.87475 18.206 7.20832 18.2045 7.5419C18.2029 7.99859 18.0148 8.19328 17.5661 8.1935C15.2174 8.1935 12.8688 8.1935 10.5203 8.1935C10.0866 8.1935 9.90214 8.00678 9.90123 7.57124C9.90032 7.21985 9.901 6.86709 9.901 6.51456ZM17.2156 5.26866H15.9995C15.5856 5.26866 15.4418 5.15927 15.3297 4.76012C15.1493 4.1192 14.563 3.69389 13.9248 3.7412C13.3455 3.78418 12.8615 4.20267 12.6919 4.80788C12.5984 5.14107 12.4321 5.26753 12.0858 5.26866C11.9588 5.26866 11.8322 5.26866 11.7053 5.26866H10.8985V7.20916H17.2156V5.26866Z" fill="#757575"/>
<path d="M19.356 10H9.64399C9.28832 10 9 10.2239 9 10.5C9 10.7761 9.28832 11 9.64399 11H19.356C19.7117 11 20 10.7761 20 10.5C20 10.2239 19.7117 10 19.356 10Z" fill="#757575"/>
<path d="M19.356 14H9.64399C9.28832 14 9 14.2239 9 14.5C9 14.7761 9.28832 15 9.64399 15H19.356C19.7117 15 20 14.7761 20 14.5C20 14.2239 19.7117 14 19.356 14Z" fill="#757575"/>
<path d="M19.356 18H9.64399C9.28832 18 9 18.2239 9 18.5C9 18.7761 9.28832 19 9.64399 19H19.356C19.7117 19 20 18.7761 20 18.5C20 18.2239 19.7117 18 19.356 18Z" fill="#757575"/>
<circle cx="21.1844" cy="18.8158" r="5.31579" fill="white" stroke="#7721AD"/>
<path d="M24.6256 18.2214L24.522 18.356L21.1255 21.7422C21.0061 21.8768 20.8431 21.9651 20.6651 21.9916C20.4871 22.0181 20.3054 21.9812 20.152 21.8872C20.0873 21.8509 20.0281 21.8056 19.976 21.7526L18.2674 20.0439C18.1108 19.9066 18.0153 19.7127 18.0017 19.5049C17.9881 19.2972 18.0576 19.0925 18.195 18.9359C18.3323 18.7794 18.5262 18.6838 18.734 18.6702C18.9417 18.6566 19.1464 18.7261 19.3029 18.8634C19.5307 19.0705 19.7482 19.288 19.9553 19.5158L20.5973 20.1475L20.6801 20.0439C21.5914 19.112 22.5234 18.2007 23.445 17.2687C23.5487 17.1517 23.6844 17.0677 23.8354 17.0272C23.9864 16.9867 24.1458 16.9915 24.2941 17.0409C24.4051 17.0839 24.5045 17.1522 24.5845 17.2402C24.6645 17.3283 24.7229 17.4338 24.755 17.5483C24.7872 17.6629 24.7923 17.7833 24.7698 17.9001C24.7473 18.017 24.6979 18.127 24.6256 18.2214Z" fill="#7721AD"/>
</g>
</g>
<defs>
<clipPath id="clip0_210_247">
<rect width="28" height="28" fill="white"/>
</clipPath>
<clipPath id="clip1_210_247">
<rect width="28" height="28" fill="white"/>
</clipPath>
</defs>
</svg>
