<svg width="28" height="28" viewBox="0 0 28 28" fill="none" xmlns="http://www.w3.org/2000/svg">
<g clip-path="url(#clip0_210_109)">
<path d="M27.832 3.93866C27.3373 1.89466 25.4893 0.270662 23.4173 0.0466616C23.38 0.0466616 23.3333 0.00932829 23.296 -0.00933838C17.0987 -5.04497e-06 10.9013 -5.04497e-06 4.704 -5.04497e-06C4.452 0.055995 4.2 0.102662 3.948 0.167995C1.89467 0.662662 0.270667 2.51066 0.056 4.58266C0.056 4.61999 0.0186667 4.66666 0 4.70399C0 10.9013 0 17.0987 0 23.296C0.056 23.548 0.102667 23.8 0.168 24.052C0.662667 26.096 2.51067 27.72 4.58267 27.944C4.62 27.944 4.66667 27.9813 4.704 28C10.9013 28 17.0987 28 23.296 28C23.66 27.9067 24.0427 27.8507 24.388 27.7293C26.3573 27.0387 27.5147 25.6387 27.9347 23.6133C27.9533 23.5107 27.972 23.408 28 23.3053C28 17.108 28 10.9107 28 4.71333C27.944 4.45199 27.8973 4.19066 27.832 3.93866Z" fill="white"/>
<path d="M22.3161 23.3333V23.8333H22.3894L22.4597 23.8122L22.3161 23.3333ZM14.0001 23.3333H13.5001V23.8333H14.0001V23.3333ZM22.4657 23.2901L22.3295 22.809L22.3295 22.809L22.4657 23.2901ZM22.8761 23.156L22.7055 22.686L22.6937 22.6903L22.682 22.6952L22.8761 23.156ZM24.6307 15.2787H25.1307V15.1033L25.0212 14.9663L24.6307 15.2787ZM23.7565 14.193L24.1454 13.8788L24.1454 13.8788L23.7565 14.193ZM23.0441 13.3093L22.6533 13.6213L22.6542 13.6224L23.0441 13.3093ZM21.7741 11.7172L22.165 11.4054L21.7741 11.7172ZM20.5054 10.1267L20.1126 10.436L20.1146 10.4386L20.5054 10.1267ZM18.2934 9.62267L18.5362 10.0598L18.5398 10.0578L18.2934 9.62267ZM17.8267 9.996L18.1789 10.3509L18.1803 10.3496L17.8267 9.996ZM15.3894 12.4313L15.7434 12.7844L15.3894 12.4313ZM14.1681 13.6547L13.8145 13.3011H13.8145L14.1681 13.6547ZM14.0841 13.734L13.7462 13.3654L13.7462 13.3654L14.0841 13.734ZM13.9907 13.8507L14.3519 14.1964L14.4907 14.0514V13.8507H13.9907ZM13.9905 13.8509H13.4905V15.0964L14.3517 14.1966L13.9905 13.8509ZM13.9905 13.8507H14.4905V12.6571L13.6398 13.4943L13.9905 13.8507ZM13.9903 13.8509L13.6396 13.4945L13.6396 13.4945L13.9903 13.8509ZM12.1985 15.624L11.8731 16.0036L12.2247 16.305L12.5521 15.9776L12.1985 15.624ZM12.0899 15.5367L12.3966 15.1418L12.3966 15.1418L12.0899 15.5367ZM12.0119 15.4747L11.6912 15.8583L11.6918 15.8588L12.0119 15.4747ZM10.1265 13.9067L10.4444 13.5207L10.4431 13.5197L10.1265 13.9067ZM7.85853 13.9253L8.18276 14.306L8.18351 14.3053L7.85853 13.9253ZM7.48052 14.252L7.80879 14.6292L7.48052 14.252ZM7.10253 14.5787L6.77829 14.1981L6.7769 14.1993L7.10253 14.5787ZM3.35986 17.808L3.03423 17.4286L2.85986 17.5782V17.808H3.35986ZM3.35986 21.0093H2.85986V21.0814L2.88018 21.1504L3.35986 21.0093ZM3.40078 21.1544L3.88274 21.0213L3.40078 21.1544ZM3.49986 21.476L3.9688 21.3025L3.96803 21.3005L3.49986 21.476ZM5.45986 23.2587L5.33422 23.7427L5.3386 23.7438L5.45986 23.2587ZM5.68384 23.3333L5.8594 22.8652L5.8594 22.8652L5.68384 23.3333ZM5.68386 23.3333L5.5083 23.8015L5.5932 23.8333H5.68386V23.3333ZM13.9999 23.3333V23.8333H14.4999V23.3333H13.9999ZM13.9999 23.3109L14.4999 23.3057L13.5 23.3075L13.9999 23.3109ZM22.3161 22.8333H14.0001V23.8333H22.3161V22.8333ZM22.3295 22.809C22.28 22.8231 22.2262 22.8383 22.1724 22.8544L22.4597 23.8122C22.5047 23.7987 22.551 23.7856 22.6018 23.7713L22.3295 22.809ZM22.682 22.6952C22.5848 22.7361 22.4746 22.768 22.3295 22.809L22.6018 23.7713C22.7357 23.7334 22.9064 23.6857 23.0701 23.6168L22.682 22.6952ZM24.1401 20.636C24.1401 21.5466 23.5615 22.3754 22.7055 22.686L23.0466 23.626C24.2999 23.1713 25.1401 21.9654 25.1401 20.636H24.1401ZM24.1401 15.4653V20.636H25.1401V15.4653H24.1401ZM24.1369 15.4103C24.1394 15.4429 24.1401 15.4547 24.1401 15.4653H25.1401C25.1401 15.4106 25.1361 15.3618 25.1339 15.3337L24.1369 15.4103ZM24.1307 15.2787C24.1307 15.3334 24.1347 15.3822 24.1369 15.4103L25.1339 15.3337C25.1314 15.3011 25.1307 15.2893 25.1307 15.2787H24.1307ZM23.3675 14.5072C23.6609 14.8703 23.9521 15.2307 24.2403 15.591L25.0212 14.9663C24.7312 14.6039 24.4385 14.2416 24.1454 13.8788L23.3675 14.5072ZM22.6542 13.6224C22.8925 13.9192 23.1307 14.2141 23.3675 14.5072L24.1454 13.8788C23.9084 13.5854 23.6711 13.2918 23.434 12.9963L22.6542 13.6224ZM21.3831 12.0289C21.8057 12.5588 22.2283 13.0889 22.6533 13.6213L23.4348 12.9974C23.01 12.4652 22.5876 11.9354 22.165 11.4054L21.3831 12.0289ZM20.1146 10.4386C20.539 10.9702 20.961 11.4995 21.3831 12.0289L22.165 11.4054C21.7429 10.8761 21.3207 10.3466 20.8962 9.81474L20.1146 10.4386ZM18.5398 10.0578C18.827 9.89507 19.1061 9.86001 19.3579 9.91759C19.6128 9.97586 19.8781 10.1382 20.1126 10.436L20.8982 9.81732C20.5447 9.36843 20.0913 9.05947 19.5808 8.94275C19.0673 8.82533 18.5344 8.91159 18.047 9.18758L18.5398 10.0578ZM18.1803 10.3496C18.3099 10.22 18.4295 10.1191 18.5362 10.0597L18.0506 9.18559C17.8213 9.31295 17.6236 9.49203 17.4732 9.64245L18.1803 10.3496ZM15.7434 12.7844C16.5555 11.9702 17.3652 11.1584 18.1789 10.3509L17.4745 9.64109C16.6587 10.4507 15.8472 11.2643 15.0353 12.0782L15.7434 12.7844ZM14.5216 14.0082C14.9298 13.6001 15.3369 13.1919 15.7434 12.7844L15.0353 12.0782C14.6288 12.4858 14.2221 12.8935 13.8145 13.3011L14.5216 14.0082ZM14.4219 14.1026C14.4488 14.0779 14.4847 14.0451 14.5216 14.0082L13.8145 13.3011C13.7954 13.3202 13.7753 13.3388 13.7462 13.3654L14.4219 14.1026ZM14.3536 14.1669C14.3727 14.1478 14.3928 14.1292 14.4219 14.1026L13.7462 13.3654C13.7193 13.3901 13.6834 13.4229 13.6465 13.4598L14.3536 14.1669ZM14.4907 13.8507C14.4907 13.8431 14.4916 13.875 14.4851 13.9142C14.4815 13.9355 14.4742 13.9702 14.4574 14.0111C14.4407 14.052 14.4099 14.1106 14.3536 14.1669L13.6465 13.4598C13.531 13.5753 13.5056 13.7081 13.4987 13.7498C13.4898 13.803 13.4907 13.8489 13.4907 13.8507H14.4907ZM14.3517 14.1966L14.3519 14.1964L13.6295 13.5049L13.6293 13.5051L14.3517 14.1966ZM13.4905 13.8507L13.4905 13.8509H14.4905L14.4905 13.8507H13.4905ZM14.3411 14.2072L14.3412 14.2071L13.6398 13.4943L13.6396 13.4945L14.3411 14.2072ZM12.5521 15.9776C13.1477 15.3819 13.7436 14.7953 14.3411 14.2072L13.6396 13.4945C13.0425 14.0823 12.4439 14.6716 11.845 15.2705L12.5521 15.9776ZM11.7832 15.9315C11.8195 15.9597 11.8469 15.9812 11.8731 16.0036L12.5239 15.2444C12.4766 15.2038 12.4305 15.1681 12.3966 15.1418L11.7832 15.9315ZM11.6918 15.8588C11.724 15.8857 11.7573 15.9115 11.7832 15.9315L12.3966 15.1418C12.3679 15.1195 12.3486 15.1045 12.332 15.0906L11.6918 15.8588ZM9.80868 14.2926C10.4417 14.814 11.0657 15.3355 11.6912 15.8583L12.3325 15.091C11.7074 14.5686 11.0807 14.0447 10.4444 13.5207L9.80868 14.2926ZM8.18351 14.3053C8.46223 14.067 8.73867 13.9695 8.99203 13.968C9.2461 13.9665 9.52574 14.0612 9.80991 14.2937L10.4431 13.5197C10.0087 13.1642 9.50896 12.9649 8.98603 12.968C8.46239 12.9712 7.96416 13.1771 7.53355 13.5454L8.18351 14.3053ZM7.80879 14.6292C7.93514 14.5192 8.05913 14.4113 8.18276 14.306L7.5343 13.5447C7.40593 13.6541 7.27792 13.7655 7.15226 13.8749L7.80879 14.6292ZM7.42676 14.9593C7.55513 14.85 7.68314 14.7385 7.80879 14.6292L7.15226 13.8749C7.02592 13.9848 6.90193 14.0927 6.7783 14.1981L7.42676 14.9593ZM5.55834 16.5715C6.18146 16.0324 6.80371 15.494 7.42816 14.9581L6.7769 14.1993C6.15068 14.7367 5.52693 15.2763 4.90405 15.8152L5.55834 16.5715ZM3.68549 18.1874C4.31171 17.65 4.93546 17.1104 5.55834 16.5715L4.90405 15.8152C4.28093 16.3543 3.65868 16.8927 3.03423 17.4286L3.68549 18.1874ZM3.85986 21.0093V17.808H2.85986V21.0093H3.85986ZM3.88274 21.0213C3.86962 20.9738 3.85515 20.9213 3.83955 20.8683L2.88018 21.1504C2.89306 21.1942 2.90534 21.2387 2.91882 21.2875L3.88274 21.0213ZM3.96803 21.3005C3.93831 21.2212 3.91409 21.1348 3.88274 21.0213L2.91882 21.2875C2.94802 21.3932 2.9836 21.5233 3.0317 21.6516L3.96803 21.3005ZM5.58551 22.7747C4.77698 22.5648 4.25875 22.0862 3.96879 21.3025L3.03093 21.6495C3.43164 22.7325 4.20141 23.4485 5.33422 23.7426L5.58551 22.7747ZM5.8594 22.8652C5.78993 22.8391 5.68826 22.8004 5.58113 22.7736L5.3386 23.7438C5.38078 23.7543 5.42843 23.7716 5.50828 23.8015L5.8594 22.8652ZM5.85943 22.8652L5.8594 22.8652L5.50828 23.8015L5.5083 23.8015L5.85943 22.8652ZM13.9999 22.8333H5.68386V23.8333H13.9999V22.8333ZM13.5 23.3075C13.4999 23.3161 13.4999 23.3247 13.4999 23.3333H14.4999C14.4999 23.327 14.4999 23.3207 14.4999 23.3144L13.5 23.3075ZM14.5001 23.3333C14.5001 23.3241 14.5 23.3149 14.4999 23.3057L13.5 23.3161C13.5 23.3218 13.5001 23.3275 13.5001 23.3333H14.5001Z" fill="#757575"/>
<path d="M7.03711 7.69067C7.03711 6.02934 8.38111 4.67601 10.0424 4.66667C11.7038 4.65734 13.0758 6.02001 13.0758 7.68134C13.0758 9.35201 11.7131 10.7053 10.0424 10.7053C8.38111 10.696 7.03711 9.35201 7.03711 7.69067Z" fill="#757575"/>
<rect x="3" y="2" width="22" height="21" rx="4" stroke="#7721AD" stroke-width="1.3"/>
</g>
<defs>
<clipPath id="clip0_210_109">
<rect width="28" height="28" fill="white"/>
</clipPath>
</defs>
</svg>
