<svg width="28" height="28" viewBox="0 0 28 28" fill="none" xmlns="http://www.w3.org/2000/svg">
<mask id="path-1-inside-1_210_164" fill="white">
<path fill-rule="evenodd" clip-rule="evenodd" d="M2.6665 5.32668V18.6267C2.85317 19.1027 3.1985 19.2613 3.7025 19.2707C5.71163 19.2567 7.71551 19.2584 9.71808 19.2602C10.3854 19.2608 11.0526 19.2613 11.7198 19.2613C11.7665 19.2613 11.8108 19.259 11.8552 19.2567C11.8958 19.2545 11.9364 19.2524 11.9789 19.2521C12.0053 19.2524 12.0298 19.2548 12.0532 19.257C12.0765 19.2592 12.0987 19.2613 12.121 19.2613H20.4743C20.969 19.2613 21.3237 18.9067 21.3237 18.3933C21.333 17.628 21.333 16.872 21.333 16.1067C21.333 15.3787 21.3237 14.6413 21.3143 13.9133V8.55601C21.3143 7.86534 21.0063 7.56668 20.3157 7.56668C19.4465 7.56668 18.5797 7.56434 17.714 7.562C16.8507 7.55967 15.9885 7.55734 15.1263 7.55734C14.655 7.55734 14.186 7.55968 13.717 7.56201C13.248 7.56434 12.779 7.56668 12.3077 7.56668C12.2517 7.56668 12.1957 7.56901 12.1397 7.57134C12.0895 7.57343 12.0393 7.57553 11.9891 7.57594L11.9769 7.57529C11.8045 7.56621 11.6409 7.55758 11.4772 7.56668C11.0758 7.57601 10.8052 7.38001 10.6278 7.03468C10.5878 6.95457 10.5477 6.87465 10.5077 6.79484C10.2681 6.31675 10.0305 5.84257 9.8065 5.35468C9.6105 4.92535 9.29317 4.73868 8.8265 4.73868C8.16073 4.7449 7.49495 4.74283 6.82917 4.74075C6.49628 4.73972 6.16339 4.73868 5.8305 4.73868C5.6625 4.74101 5.4945 4.74451 5.3265 4.74801C4.8225 4.75851 4.3185 4.76901 3.8145 4.74801C3.30117 4.72935 2.90917 4.85068 2.6665 5.32668ZM16.4703 16.0693H16.489C16.4837 16.1149 16.4798 16.1613 16.476 16.2078C16.4665 16.323 16.4569 16.4389 16.4237 16.5453C16.3303 16.8627 16.0037 17.068 15.677 17.04C15.3317 17.0027 15.0517 16.76 15.0143 16.4053C14.9957 16.2 14.9863 15.9853 15.0143 15.78C15.0517 15.3973 15.3877 15.108 15.761 15.1267C16.153 15.1453 16.4517 15.4533 16.4703 15.8547V16.0693ZM18.7477 15.8547V16.0973C18.7477 16.676 18.5423 16.9747 18.113 17.0493C17.7023 17.1053 17.3103 16.7973 17.2823 16.3867C17.2761 16.2681 17.2782 16.1537 17.2803 16.0407C17.2813 15.9847 17.2823 15.929 17.2823 15.8733C17.2917 15.444 17.6183 15.1267 18.0197 15.1267C18.4117 15.1267 18.729 15.444 18.7477 15.8547Z"/>
</mask>
<path d="M2.6665 18.6267H1.6665V18.8157L1.73553 18.9918L2.6665 18.6267ZM2.6665 5.32668L1.7756 4.87249L1.6665 5.08648V5.32668H2.6665ZM3.7025 19.2707L3.68399 20.2705L3.69673 20.2707L3.70947 20.2707L3.7025 19.2707ZM9.71808 19.2602L9.71895 18.2602H9.71895L9.71808 19.2602ZM11.8552 19.2567L11.8026 18.2581L11.8026 18.2581L11.8552 19.2567ZM11.9789 19.2521L11.9928 18.2522L11.9818 18.252L11.9708 18.2521L11.9789 19.2521ZM12.0532 19.257L12.1482 18.2615L12.1482 18.2615L12.0532 19.257ZM21.3237 18.3933L20.3237 18.3811V18.3933H21.3237ZM21.3143 13.9133H20.3143L20.3144 13.9262L21.3143 13.9133ZM17.714 7.562L17.7167 6.562L17.714 7.562ZM12.1397 7.57134L12.0981 6.57221L12.0981 6.57221L12.1397 7.57134ZM11.9891 7.57594L11.9365 8.57455L11.9668 8.57615L11.9973 8.5759L11.9891 7.57594ZM11.9769 7.57529L11.9242 8.57391L11.9243 8.57391L11.9769 7.57529ZM11.4772 7.56668L11.5004 8.56641L11.5165 8.56603L11.5326 8.56514L11.4772 7.56668ZM10.6278 7.03468L9.73336 7.48192L9.73827 7.49148L10.6278 7.03468ZM10.5077 6.79484L11.4017 6.34678L11.4017 6.34678L10.5077 6.79484ZM9.8065 5.35468L8.89681 5.76997L8.89767 5.77185L9.8065 5.35468ZM8.8265 4.73868V3.73863L8.81716 3.73872L8.8265 4.73868ZM6.82917 4.74075L6.82606 5.74075L6.82917 4.74075ZM5.8305 4.73868V3.73858L5.81662 3.73877L5.8305 4.73868ZM5.3265 4.74801L5.34733 5.74779L5.3265 4.74801ZM3.8145 4.74801L3.85613 3.74886L3.85084 3.74867L3.8145 4.74801ZM16.489 16.0693L17.4822 16.1862L17.6136 15.0693H16.489V16.0693ZM16.4703 16.0693H15.4703V17.0693H16.4703V16.0693ZM16.476 16.2078L17.4726 16.2899V16.2899L16.476 16.2078ZM16.4237 16.5453L15.4692 16.2471L15.4667 16.2551L15.4643 16.2632L16.4237 16.5453ZM15.677 17.04L15.5695 18.0342L15.5806 18.0354L15.5916 18.0364L15.677 17.04ZM15.0143 16.4053L14.0185 16.4959L14.0191 16.503L14.0198 16.51L15.0143 16.4053ZM15.0143 15.78L16.0052 15.9151L16.0078 15.8962L16.0096 15.8771L15.0143 15.78ZM15.761 15.1267L15.7111 16.1254L15.7134 16.1255L15.761 15.1267ZM16.4703 15.8547H17.4703V15.8314L17.4693 15.8082L16.4703 15.8547ZM18.7477 15.8547H19.7477V15.832L19.7466 15.8093L18.7477 15.8547ZM18.113 17.0493L18.2481 18.0402L18.2663 18.0377L18.2844 18.0346L18.113 17.0493ZM17.2823 16.3867L16.2837 16.4392L16.2841 16.447L16.2847 16.4547L17.2823 16.3867ZM17.2803 16.0407L16.2805 16.0223V16.0223L17.2803 16.0407ZM17.2823 15.8733L16.2826 15.8516L16.2823 15.8625V15.8733H17.2823ZM3.6665 18.6267V5.32668H1.6665V18.6267H3.6665ZM3.72102 18.2708C3.64337 18.2694 3.59648 18.2625 3.57147 18.2569C3.54829 18.2518 3.5514 18.2495 3.56792 18.2591C3.5866 18.2699 3.60302 18.2847 3.61279 18.2967C3.6209 18.3067 3.61274 18.3005 3.59748 18.2616L1.73553 18.9918C1.89657 19.4024 2.16314 19.7559 2.56309 19.9883C2.94004 20.2073 3.34304 20.2642 3.68399 20.2705L3.72102 18.2708ZM9.71895 18.2602C7.71703 18.2584 5.70924 18.2567 3.69554 18.2707L3.70947 20.2707C5.71403 20.2567 7.71399 20.2584 9.7172 20.2602L9.71895 18.2602ZM11.7198 18.2613C11.0531 18.2613 10.3864 18.2608 9.71895 18.2602L9.7172 20.2602C10.3845 20.2608 11.0521 20.2613 11.7198 20.2613V18.2613ZM11.8026 18.2581C11.7549 18.2606 11.7362 18.2613 11.7198 18.2613V20.2613C11.7969 20.2613 11.8668 20.2575 11.9077 20.2553L11.8026 18.2581ZM11.9708 18.2521C11.9026 18.2526 11.8402 18.2561 11.8026 18.2581L11.9077 20.2553C11.9514 20.253 11.9702 20.2522 11.9869 20.252L11.9708 18.2521ZM12.1482 18.2615C12.1288 18.2597 12.0657 18.2532 11.9928 18.2522L11.9649 20.252C11.9532 20.2518 11.9454 20.2512 11.9438 20.2511C11.9431 20.2511 11.9435 20.2511 11.946 20.2513C11.9487 20.2516 11.9519 20.2519 11.9582 20.2525L12.1482 18.2615ZM12.121 18.2613C12.1412 18.2613 12.1552 18.2623 12.1592 18.2626C12.1612 18.2627 12.1618 18.2628 12.1598 18.2626C12.1574 18.2624 12.1545 18.2621 12.1482 18.2615L11.9581 20.2525C11.9728 20.2539 12.043 20.2613 12.121 20.2613V18.2613ZM20.4743 18.2613H12.121V20.2613H20.4743V18.2613ZM20.3237 18.3933C20.3237 18.406 20.3216 18.4008 20.3285 18.3833C20.3354 18.3654 20.3491 18.3415 20.372 18.3182C20.395 18.2949 20.4205 18.279 20.4432 18.2699C20.4656 18.2609 20.4778 18.2613 20.4743 18.2613V20.2613C20.9678 20.2613 21.4438 20.0802 21.797 19.7215C22.1497 19.3633 22.3237 18.8858 22.3237 18.3933H20.3237ZM20.333 16.1067C20.333 16.873 20.333 17.6229 20.3238 18.3811L22.3236 18.4055C22.333 17.6331 22.333 16.871 22.333 16.1067H20.333ZM20.3144 13.9262C20.3238 14.6551 20.333 15.3861 20.333 16.1067H22.333C22.333 15.3712 22.3236 14.6276 22.3143 13.9005L20.3144 13.9262ZM20.3143 8.55601V13.9133H22.3143V8.55601H20.3143ZM20.3157 8.56668C20.3665 8.56668 20.404 8.56946 20.4302 8.5728C20.4564 8.57615 20.4682 8.57965 20.4689 8.57986C20.4692 8.57996 20.4574 8.57636 20.4383 8.56543C20.4288 8.55999 20.418 8.55303 20.4065 8.54433C20.3949 8.53561 20.3833 8.52565 20.372 8.51452C20.3607 8.50338 20.3505 8.49178 20.3413 8.48004C20.3323 8.46833 20.3248 8.45719 20.3189 8.44718C20.3071 8.427 20.3027 8.41377 20.3022 8.41224C20.3018 8.41116 20.3051 8.42112 20.3083 8.44564C20.3115 8.47022 20.3143 8.50627 20.3143 8.55601H22.3143C22.3143 8.08563 22.212 7.51993 21.776 7.09017C21.3431 6.66345 20.7792 6.56668 20.3157 6.56668V8.56668ZM17.7113 8.562C18.5768 8.56433 19.4449 8.56668 20.3157 8.56668V6.56668C19.4481 6.56668 18.5826 6.56434 17.7167 6.562L17.7113 8.562ZM15.1263 8.55734C15.9869 8.55734 16.8478 8.55967 17.7113 8.562L17.7167 6.562C16.8536 6.55967 15.9901 6.55734 15.1263 6.55734V8.55734ZM13.722 8.562C14.1914 8.55966 14.6579 8.55734 15.1263 8.55734V6.55734C14.6521 6.55734 14.1806 6.55969 13.712 6.56202L13.722 8.562ZM12.3077 8.56668C12.7819 8.56668 13.2534 8.56433 13.722 8.562L13.712 6.56202C13.2426 6.56436 12.7761 6.56668 12.3077 6.56668V8.56668ZM12.1813 8.57048C12.2408 8.568 12.276 8.56668 12.3077 8.56668V6.56668C12.2274 6.56668 12.1506 6.57002 12.0981 6.57221L12.1813 8.57048ZM11.9973 8.5759C12.067 8.57533 12.1339 8.57245 12.1813 8.57048L12.0981 6.57221C12.045 6.57442 12.0116 6.57572 11.9809 6.57597L11.9973 8.5759ZM11.9243 8.57391L11.9365 8.57455L12.0417 6.57732L12.0295 6.57668L11.9243 8.57391ZM11.5326 8.56514C11.633 8.55956 11.7421 8.56431 11.9242 8.57391L12.0295 6.57668C11.867 6.56811 11.6487 6.55561 11.4217 6.56822L11.5326 8.56514ZM9.73827 7.49148C9.8855 7.77819 10.103 8.06379 10.4235 8.27212C10.7517 8.48547 11.1228 8.57519 11.5004 8.56641L11.4539 6.56695C11.438 6.56732 11.4409 6.56534 11.4567 6.56954C11.4735 6.574 11.494 6.58255 11.5135 6.59523C11.5324 6.6075 11.5414 6.6178 11.5419 6.61841C11.5419 6.61841 11.5413 6.61771 11.5402 6.61617C11.539 6.61463 11.5374 6.61227 11.5352 6.60899C11.5309 6.60236 11.5248 6.59224 11.5174 6.57787L9.73827 7.49148ZM9.61373 7.24291C9.65377 7.32279 9.69361 7.40228 9.73341 7.48189L11.5223 6.58746C11.482 6.50686 11.4417 6.42651 11.4017 6.34678L9.61373 7.24291ZM8.89767 5.77185C9.12995 6.27787 9.37534 6.76727 9.61373 7.24291L11.4017 6.34678C11.1609 5.86623 10.931 5.40726 10.7153 4.93751L8.89767 5.77185ZM8.8265 5.73868C8.87726 5.73868 8.90282 5.74382 8.91013 5.74562C8.91574 5.747 8.90695 5.74541 8.89186 5.73607C8.88495 5.7318 8.87884 5.72719 8.8739 5.72286C8.87153 5.72078 8.86973 5.71902 8.86847 5.71772C8.86721 5.71643 8.86663 5.71573 8.86668 5.71578C8.8667 5.71581 8.87866 5.7302 8.89682 5.76997L10.7162 4.93939C10.5543 4.58484 10.3081 4.26046 9.94415 4.03528C9.58429 3.81263 9.19284 3.73868 8.8265 3.73868V5.73868ZM6.82606 5.74075C7.49079 5.74282 8.1628 5.74492 8.83585 5.73863L8.81716 3.73872C8.15865 3.74488 7.4991 3.74283 6.83229 3.74076L6.82606 5.74075ZM5.8305 5.73868C6.16158 5.73868 6.49291 5.73971 6.82606 5.74075L6.83229 3.74076C6.49966 3.73972 6.16521 3.73868 5.8305 3.73868V5.73868ZM5.34733 5.74779C5.51591 5.74428 5.68044 5.74086 5.84439 5.73858L5.81662 3.73877C5.64456 3.74116 5.47309 3.74474 5.30567 3.74823L5.34733 5.74779ZM3.77287 5.74714C4.31329 5.76966 4.84853 5.75819 5.34733 5.74779L5.30567 3.74823C4.79646 3.75884 4.32371 3.76836 3.85613 3.74888L3.77287 5.74714ZM3.55741 5.78087C3.576 5.74439 3.58563 5.73753 3.57922 5.74386C3.57155 5.75145 3.56059 5.75867 3.55281 5.76221C3.5475 5.76462 3.55783 5.75878 3.59483 5.75346C3.63322 5.74795 3.69181 5.74421 3.77816 5.74735L3.85084 3.74867C3.51913 3.73661 3.11699 3.76339 2.7252 3.94148C2.30549 4.13226 1.98868 4.45451 1.7756 4.87249L3.55741 5.78087ZM16.489 15.0693H16.4703V17.0693H16.489V15.0693ZM17.4726 16.2899C17.4767 16.2404 17.4792 16.2115 17.4822 16.1862L15.4959 15.9525C15.4881 16.0183 15.483 16.0822 15.4794 16.1256L17.4726 16.2899ZM17.3782 16.8436C17.4503 16.6128 17.465 16.3828 17.4726 16.2899L15.4794 16.1256C15.4742 16.1879 15.4714 16.2189 15.4679 16.2447C15.4648 16.2679 15.4637 16.2646 15.4692 16.2471L17.3782 16.8436ZM15.5916 18.0364C16.3543 18.1017 17.1451 17.6364 17.383 16.8275L15.4643 16.2632C15.4914 16.1711 15.5467 16.1138 15.5916 16.0846C15.6348 16.0564 15.6923 16.0377 15.7624 16.0437L15.5916 18.0364ZM14.0198 16.51C14.113 17.3951 14.8209 17.9533 15.5695 18.0342L15.7845 16.0458C15.8122 16.0488 15.8612 16.0629 15.9115 16.1097C15.9664 16.1608 16.0017 16.2326 16.0089 16.3007L14.0198 16.51ZM14.0235 15.6449C13.9801 15.963 13.9976 16.2668 14.0185 16.4959L16.0102 16.3148C15.9937 16.1332 15.9926 16.0077 16.0052 15.9151L14.0235 15.6449ZM15.811 14.1279C14.896 14.0822 14.1074 14.7773 14.0191 15.6829L16.0096 15.8771C16.0021 15.9541 15.9647 16.0166 15.9183 16.057C15.8726 16.0969 15.8006 16.1299 15.7111 16.1254L15.811 14.1279ZM17.4693 15.8082C17.4277 14.9154 16.7394 14.1721 15.8086 14.1278L15.7134 16.1255C15.6536 16.1227 15.5879 16.0948 15.539 16.0445C15.491 15.9952 15.4732 15.9395 15.4714 15.9011L17.4693 15.8082ZM17.4703 16.0693V15.8547H15.4703V16.0693H17.4703ZM19.7477 16.0973V15.8547H17.7477V16.0973H19.7477ZM18.2844 18.0346C18.7118 17.9602 19.1354 17.7458 19.4215 17.3199C19.6823 16.9315 19.7477 16.485 19.7477 16.0973H17.7477C17.7477 16.1855 17.7396 16.2331 17.7354 16.2511C17.7315 16.2675 17.7343 16.2448 17.7612 16.2048C17.7906 16.161 17.8329 16.1204 17.8807 16.0919C17.9247 16.0656 17.9518 16.0624 17.9417 16.0641L18.2844 18.0346ZM16.2847 16.4547C16.3537 17.4672 17.2885 18.171 18.2481 18.0402L17.9779 16.0585C18.0616 16.0471 18.1308 16.0739 18.176 16.1098C18.222 16.1464 18.2731 16.2172 18.28 16.3187L16.2847 16.4547ZM16.2805 16.0223C16.2785 16.1304 16.2753 16.2797 16.2837 16.4392L18.281 16.3341C18.2769 16.2565 18.278 16.1769 18.2801 16.0591L16.2805 16.0223ZM16.2823 15.8733C16.2823 15.9183 16.2815 15.9647 16.2805 16.0223L18.2801 16.0591C18.2811 16.0046 18.2823 15.9397 18.2823 15.8733H16.2823ZM18.0197 14.1267C17.0544 14.1267 16.3033 14.899 16.2826 15.8516L18.2821 15.8951C18.2813 15.9343 18.263 15.9943 18.2111 16.0461C18.1599 16.0973 18.0889 16.1267 18.0197 16.1267V14.1267ZM19.7466 15.8093C19.7056 14.9069 18.9877 14.1267 18.0197 14.1267V16.1267C17.8357 16.1267 17.7524 15.9812 17.7487 15.9001L19.7466 15.8093Z" fill="#7721AD" mask="url(#path-1-inside-1_210_164)"/>
</svg>
