<svg width="28" height="28" viewBox="0 0 28 28" fill="none" xmlns="http://www.w3.org/2000/svg">
<g clip-path="url(#clip0_210_216)">
<path d="M27.832 3.93866C27.3373 1.89466 25.4893 0.270662 23.4173 0.0466616C23.38 0.0466616 23.3333 0.00932829 23.296 -0.00933838C17.0987 -5.04497e-06 10.9013 -5.04497e-06 4.704 -5.04497e-06C4.452 0.055995 4.2 0.102662 3.948 0.167995C1.89467 0.662662 0.270667 2.51066 0.056 4.58266C0.056 4.61999 0.0186667 4.66666 0 4.70399C0 10.9013 0 17.0987 0 23.296C0.056 23.548 0.102667 23.8 0.168 24.052C0.662667 26.096 2.51067 27.72 4.58267 27.944C4.62 27.944 4.66667 27.9813 4.704 28C10.9013 28 17.0987 28 23.296 28C23.66 27.9067 24.0427 27.8507 24.388 27.7293C26.3573 27.0387 27.5147 25.6387 27.9347 23.6133C27.9533 23.5107 27.972 23.408 28 23.3053C28 17.108 28 10.9107 28 4.71333C27.944 4.45199 27.8973 4.19066 27.832 3.93866Z" fill="white"/>
<mask id="path-2-inside-1_210_216" fill="white">
<path d="M13.7607 23.5069V23.521C13.7583 23.5195 13.7583 23.5147 13.7607 23.5069V16.021H7.69471C6.88269 16.021 6.89669 15.701 7.16269 15.361C7.4287 15.021 7.2327 15.281 7.2607 15.241C9.06674 12.961 11.7828 9.56101 15.3949 5.02101C15.9167 4.94195 16.094 5.08115 16.2607 5.52101L15.7607 12.021H22.2578C22.2647 12.0132 22.2658 12.013 22.2607 12.021H22.2578C22.0047 12.3101 13.9009 23.0544 13.7607 23.5069Z"/>
</mask>
<path d="M13.7607 23.521L13.2331 24.3705C13.5415 24.562 13.9294 24.5714 14.2467 24.395C14.564 24.2186 14.7607 23.884 14.7607 23.521H13.7607ZM13.7607 16.021H14.7607V15.021H13.7607V16.021ZM7.16269 15.361L7.95029 15.9772L7.16269 15.361ZM7.2607 15.241L6.47682 14.6201L6.45845 14.6433L6.44147 14.6675L7.2607 15.241ZM15.3949 5.02101L15.2451 4.0323L14.8568 4.09113L14.6123 4.39842L15.3949 5.02101ZM16.2607 5.52101L17.2578 5.59771L17.2749 5.37517L17.1958 5.16646L16.2607 5.52101ZM15.7607 12.021L14.7637 11.9443L14.6809 13.021H15.7607V12.021ZM22.2607 12.021V13.021H22.8133L23.1073 12.5533L22.2607 12.021ZM14.7607 23.521V23.5069H12.7607V23.521H14.7607ZM14.7607 23.5069V16.021H12.7607V23.5069H14.7607ZM13.7607 15.021H7.69471V17.021H13.7607V15.021ZM7.69471 15.021C7.54402 15.021 7.50944 15.0045 7.54051 15.0146C7.5709 15.0245 7.77495 15.0985 7.90853 15.3512C8.04665 15.6125 7.99442 15.8451 7.96775 15.9248C7.9432 15.9982 7.91909 16.0171 7.95029 15.9772L6.3751 14.7448C6.27329 14.8749 6.14769 15.0613 6.07107 15.2903C5.99234 15.5257 5.93748 15.902 6.14035 16.2858C6.33869 16.661 6.67486 16.8363 6.92269 16.9168C7.17121 16.9975 7.43938 17.021 7.69471 17.021V15.021ZM7.95029 15.9772C8.01684 15.8921 8.04993 15.8505 8.06369 15.8335C8.06693 15.8294 8.06686 15.8296 8.06468 15.8322C8.06361 15.8335 8.06035 15.8374 8.05566 15.8428C8.05298 15.8458 8.04048 15.8603 8.0231 15.8783C8.01583 15.8858 7.99445 15.9079 7.96486 15.9339C7.95075 15.9464 7.92076 15.9722 7.87978 16.001C7.85888 16.0158 7.82562 16.038 7.7826 16.0615C7.76374 16.0715 7.72144 16.0921 7.69794 16.1026C7.66867 16.1146 7.60188 16.138 7.56427 16.1489C7.51621 16.1606 7.40573 16.1782 7.34344 16.1826C7.26436 16.1826 7.09008 16.1602 6.99664 16.1349C6.89168 16.0943 6.69407 15.9757 6.60476 15.8981C6.52889 15.815 6.41454 15.64 6.37456 15.5519C6.34836 15.4773 6.31646 15.3395 6.30864 15.2776C6.3052 15.2283 6.30515 15.1397 6.30763 15.1006C6.31479 15.0145 6.33174 14.9473 6.34204 14.911C6.35337 14.8709 6.36518 14.8388 6.37348 14.8177C6.38216 14.7956 6.39028 14.7773 6.3965 14.7639C6.40861 14.7377 6.4195 14.7171 6.42606 14.7051C6.43913 14.6812 6.45034 14.663 6.45527 14.6551C6.46122 14.6456 6.46616 14.638 6.4692 14.6334C6.47519 14.6244 6.47986 14.6177 6.48172 14.615C6.48768 14.6065 6.49024 14.6033 6.48557 14.6095C6.48273 14.6133 6.47936 14.6178 6.47678 14.6212C6.47549 14.6228 6.47515 14.6233 6.47567 14.6226C6.47594 14.6223 6.47693 14.621 6.47846 14.6191C6.47961 14.6176 6.48318 14.6131 6.48813 14.6071C6.4906 14.6042 6.49508 14.5988 6.50085 14.5921C6.50495 14.5873 6.51778 14.5724 6.53524 14.5542C6.54331 14.5457 6.56189 14.5265 6.58713 14.5037C6.5998 14.4922 6.62165 14.473 6.65033 14.4511C6.66329 14.4413 6.69318 14.42 6.71019 14.4087C6.7324 14.3945 6.78569 14.3638 6.81699 14.3478C6.86088 14.3275 6.97164 14.2872 7.03895 14.2696C7.13973 14.2523 7.39043 14.2542 7.53617 14.2848C7.71222 14.3545 8.00856 14.5847 8.11872 14.7365C8.18281 14.8652 8.2471 15.0989 8.25673 15.1974C8.25769 15.2643 8.24904 15.3779 8.24171 15.4244C8.23503 15.4578 8.22057 15.5159 8.21327 15.5406C8.19721 15.5926 8.18023 15.6322 8.17137 15.6521C8.15311 15.6931 8.13606 15.7238 8.12977 15.7349C8.1215 15.7497 8.11448 15.7613 8.11029 15.7681C8.10196 15.7817 8.09513 15.792 8.09218 15.7965C8.08583 15.8061 8.08096 15.813 8.07992 15.8145L6.44147 14.6675C6.43868 14.6715 6.4325 14.6804 6.42523 14.6914C6.42182 14.6965 6.41464 14.7074 6.40604 14.7214C6.40172 14.7285 6.39458 14.7403 6.38623 14.7551C6.38194 14.7627 6.37624 14.7731 6.3698 14.7856C6.36367 14.7974 6.35455 14.8156 6.34444 14.8383C6.34011 14.8482 6.33094 14.8701 6.32616 14.8821C6.32048 14.897 6.30857 14.9309 6.30249 14.9499C6.29519 14.9747 6.28072 15.0328 6.27404 15.0662C6.26671 15.1127 6.25805 15.2263 6.25902 15.2932C6.26865 15.3917 6.33294 15.6254 6.39703 15.7542C6.50719 15.906 6.80354 16.1362 6.97959 16.2058C7.12534 16.2365 7.37605 16.2383 7.47684 16.2211C7.54416 16.2035 7.65492 16.1631 7.69883 16.1429C7.73013 16.1268 7.78343 16.0961 7.80566 16.082C7.82268 16.0706 7.8526 16.0493 7.86557 16.0395C7.89428 16.0176 7.91617 15.9983 7.92888 15.9868C7.9542 15.9639 7.97289 15.9446 7.98108 15.936C7.9988 15.9175 8.01195 15.9023 8.01645 15.897C8.02262 15.8899 8.02757 15.8839 8.03058 15.8803C8.04087 15.8678 8.0495 15.8568 8.05243 15.853C8.05693 15.8472 8.06132 15.8415 8.06517 15.8365C8.07288 15.8264 8.08142 15.8151 8.08947 15.8043C8.09353 15.7989 8.09804 15.7928 8.10262 15.7865C8.10671 15.7809 8.11314 15.772 8.12017 15.762C8.12357 15.7571 8.12953 15.7485 8.13655 15.738C8.1401 15.7326 8.14549 15.7244 8.15181 15.7142C8.1571 15.7058 8.16862 15.6871 8.18189 15.6627C8.18857 15.6505 8.19954 15.6298 8.21173 15.6035C8.21798 15.59 8.22612 15.5716 8.23483 15.5494C8.24316 15.5282 8.25498 15.4961 8.26633 15.456C8.27104 15.4388 8.28031 15.4007 8.28473 15.3798C8.28945 15.3545 8.29764 15.2977 8.30076 15.2663C8.30324 15.2272 8.30319 15.1386 8.29975 15.0892C8.29193 15.0273 8.26003 14.8895 8.23382 14.8149C8.19384 14.7267 8.07948 14.5518 8.00361 14.4687C7.91429 14.3911 7.71668 14.2724 7.6117 14.2318C7.51825 14.2065 7.34396 14.1842 7.26487 14.1841C7.20257 14.1885 7.09207 14.2061 7.04399 14.2178C7.00637 14.2287 6.93957 14.2522 6.91028 14.2642C6.88676 14.2746 6.84444 14.2953 6.82557 14.3053C6.7825 14.3288 6.74919 14.3511 6.72824 14.3658C6.70615 14.3814 6.68825 14.3953 6.67545 14.4057C6.66231 14.4163 6.65128 14.4257 6.64278 14.4332C6.62619 14.4479 6.61311 14.4604 6.60476 14.4685C6.59595 14.4771 6.58866 14.4846 6.58333 14.4901C6.57294 14.5009 6.56471 14.5099 6.55974 14.5154C6.55438 14.5213 6.54986 14.5265 6.54653 14.5303C6.54 14.5378 6.53446 14.5444 6.53063 14.549C6.52292 14.5582 6.51538 14.5674 6.50889 14.5754C6.48371 14.6066 6.44155 14.6599 6.3751 14.7448L7.95029 15.9772ZM8.04457 15.8619C9.84988 13.5829 12.5633 10.1862 16.1774 5.64361L14.6123 4.39842C11.0023 8.93579 8.2836 12.3392 6.47682 14.6201L8.04457 15.8619ZM15.5447 6.00973C15.6305 5.99673 15.6509 6.00122 15.6322 5.99944C15.6041 5.99676 15.5272 5.98346 15.4385 5.92907C15.3506 5.87523 15.3051 5.81419 15.2918 5.79392C15.2836 5.78141 15.296 5.79714 15.3257 5.87557L17.1958 5.16646C17.0989 4.91098 16.915 4.48825 16.4834 4.22376C16.0435 3.95418 15.571 3.98291 15.2451 4.0323L15.5447 6.00973ZM15.2637 5.44432L14.7637 11.9443L16.7578 12.0977L17.2578 5.59771L15.2637 5.44432ZM15.7607 13.021H22.2578V11.021H15.7607V13.021ZM22.2578 13.021H22.2607V11.021H22.2578V13.021ZM23.1073 12.5533C23.1111 12.5472 23.1335 12.5121 23.1566 12.4662C23.1603 12.4587 23.2051 12.3737 23.2341 12.2577C23.2411 12.2292 23.3001 12.0152 23.2289 11.753C23.1854 11.5929 23.0808 11.373 22.8525 11.2067C22.626 11.0418 22.3882 11.0102 22.2294 11.0157C21.9664 11.0247 21.7838 11.1372 21.7583 11.1522C21.6978 11.1876 21.6543 11.2217 21.6349 11.2374C21.5935 11.2708 21.5639 11.3003 21.554 11.3102C21.5298 11.3345 21.5115 11.3553 21.5055 11.3622L23.0101 12.6799C23.0075 12.6828 22.992 12.7006 22.9698 12.7229C22.9608 12.7318 22.932 12.7606 22.8912 12.7935C22.8721 12.809 22.8289 12.8429 22.7687 12.8782C22.7433 12.893 22.561 13.0054 22.2981 13.0145C22.1394 13.0199 21.9016 12.9884 21.6751 12.8234C21.4469 12.6572 21.3423 12.4374 21.2988 12.2773C21.2276 12.0153 21.2866 11.8014 21.2936 11.7732C21.3225 11.6577 21.3669 11.5734 21.3702 11.5669C21.3923 11.5229 21.4128 11.4908 21.4142 11.4888L23.1073 12.5533ZM21.5055 11.3622C21.4109 11.4702 20.8213 12.2445 20.0453 13.271C19.2467 14.3275 18.2044 15.7133 17.1657 17.1043C16.1273 18.4948 15.0905 19.893 14.3036 20.9732C13.9107 21.5126 13.5769 21.9771 13.3355 22.3232C13.2154 22.4954 13.1135 22.645 13.0372 22.7628C12.9995 22.821 12.9626 22.8798 12.9312 22.934C12.9171 22.9584 12.8479 23.0743 12.8055 23.211L14.716 23.8027C14.6824 23.9112 14.6375 23.9786 14.6622 23.9358C14.6697 23.9229 14.6864 23.8955 14.7158 23.8501C14.7737 23.7607 14.8605 23.6328 14.9759 23.4673C15.2055 23.1382 15.5297 22.6868 15.9202 22.1508C16.7001 21.0801 17.7314 19.6893 18.7681 18.301C19.8045 16.9133 20.8444 15.5305 21.6408 14.477C22.039 13.9502 22.3759 13.5064 22.6206 13.1858C22.7431 13.0253 22.8417 12.8969 22.913 12.8048C22.9964 12.6971 23.0195 12.6691 23.0101 12.6798L21.5055 11.3622ZM12.8055 23.211C12.7935 23.2498 12.7591 23.3646 12.7589 23.5148C12.7587 23.6336 12.7846 24.0919 13.2331 24.3705L14.2884 22.6716C14.7344 22.9486 14.7591 23.4037 14.7589 23.5178C14.7587 23.6633 14.7255 23.7718 14.716 23.8027L12.8055 23.211Z" fill="#7721AD" mask="url(#path-2-inside-1_210_216)"/>
</g>
<defs>
<clipPath id="clip0_210_216">
<rect width="28" height="28" fill="white"/>
</clipPath>
</defs>
</svg>
