<svg width="24" height="24" viewBox="0 0 24 24" fill="none" xmlns="http://www.w3.org/2000/svg">
<path fill-rule="evenodd" clip-rule="evenodd" d="M10.039 3.05849C10.2498 1.88029 11.2896 1 12.5195 1C13.7778 1 14.7617 1.90466 14.9624 3.06196C15.1664 3.01769 15.3574 3 15.5195 3C16.9329 3 18 4.14131 18 5.5V6.05311C18.1894 6.01522 18.3669 6 18.5195 6C19.9327 6 21 7.14127 21 8.5V16C21 16.5523 20.5523 17 20 17C19.4477 17 19 16.5523 19 16V8.5C19 8.20187 18.7847 8 18.5195 8C18.4146 8 18.2527 8.03766 18.1463 8.11368C18.103 8.14458 18.0737 8.1779 18.0525 8.21892C18.0317 8.25923 18 8.34272 18 8.5C18 9.05228 17.5523 9.5 17 9.5C16.4477 9.5 16 9.05228 16 8.5V5.5C16 5.20183 15.7847 5 15.5195 5C15.4848 5 15.4179 5.00607 15.3399 5.02808C15.2631 5.04972 15.1978 5.08049 15.1491 5.11509C15.1041 5.14713 15.074 5.18143 15.0525 5.22253C15.0316 5.26253 15 5.34483 15 5.5C15 6.05229 14.5523 6.5 14 6.5C13.4477 6.5 13 6.05229 13 5.5V3.5C13 3.20183 12.7847 3 12.5195 3C12.2204 3 12 3.23599 12 3.5V5.5C12 6.05229 11.5523 6.5 11 6.5C10.4477 6.5 10 6.05229 10 5.5C10 5.34171 9.9683 5.25713 9.94721 5.21602C9.92579 5.1743 9.89664 5.14114 9.85463 5.11081C9.80895 5.07783 9.74724 5.04823 9.6738 5.02728C9.5991 5.00598 9.53436 5 9.5 5C9.23447 5 9 5.22176 9 5.51956C9 5.51956 9 5.51957 9 5.51956L9.00004 14C9.00004 14.5523 8.55233 15 8.00004 15C7.44776 15 7.00004 14.5523 7.00004 14L7 5.51957C7 4.16054 8.08705 3 9.5 3C9.65779 3 9.84225 3.01675 10.039 3.05849Z" fill="black"/>
<path d="M11 5.5V11" stroke="black" stroke-width="2" stroke-linecap="round" stroke-linejoin="round"/>
<path d="M14 5.5V11" stroke="black" stroke-width="2" stroke-linecap="round" stroke-linejoin="round"/>
<path d="M17 5.5V11" stroke="black" stroke-width="2" stroke-linecap="round" stroke-linejoin="round"/>
<path fill-rule="evenodd" clip-rule="evenodd" d="M3.79003 11.967C3.75217 12.1069 3.75118 12.4054 4.04293 12.8086C4.05928 12.8312 4.07468 12.8544 4.08908 12.8783L5.66177 15.4855C7.16831 17.9964 8.16087 19.3279 9.16956 20.0691C10.1084 20.759 11.1524 20.9999 13 20.9999C14.7742 20.9999 16.2855 20.5397 17.3301 19.715C18.3451 18.9138 19 17.7089 19 16C19 15.4477 19.4477 15 20 15C20.5523 15 21 15.4477 21 16C21 18.291 20.0879 20.0861 18.5694 21.2849C17.0805 22.4602 15.0918 22.9999 13 22.9999C10.9816 22.9999 9.42778 22.7409 7.98523 21.6808C6.61273 20.6722 5.44055 19.004 3.94737 16.5154C3.94717 16.5151 3.94698 16.5148 3.94678 16.5144L2.39659 13.9446C1.84159 13.1591 1.63814 12.2624 1.85948 11.4445C2.08711 10.6035 2.74059 9.9634 3.61814 9.76225C5.34978 9.36532 7.3273 10.6786 8.87786 13.5216C9.1423 14.0064 8.96362 14.6138 8.47876 14.8783C7.9939 15.1427 7.38647 14.964 7.12203 14.4792C5.6726 11.8216 4.40013 11.6349 4.06499 11.7117C3.90915 11.7474 3.82504 11.8377 3.79003 11.967Z" fill="black"/>
</svg>
